<?xml version="1.0" encoding="UTF-8"?>
<svg width="36px" height="34px" viewBox="0 0 36 34" version="1.1" xmlns="http://www.w3.org/2000/svg" xmlns:xlink="http://www.w3.org/1999/xlink">
    <!-- Generator: Sketch 52.5 (67469) - http://www.bohemiancoding.com/sketch -->
    <title>Group 13</title>
    <desc>Created with Sketch.</desc>
    <g id="Symbols" stroke="none" stroke-width="1" fill="none" fill-rule="evenodd">
        <g id="Header" transform="translate(-808.000000, -18.000000)">
            <g id="Group-4" transform="translate(750.000000, 18.000000)">
                <g id="Group-13" transform="translate(58.000000, 0.000000)">
                    <g id="Group-11" transform="translate(5.760000, 5.802757)" fill="#FFFFFF">
                        <g id="Group-3">
                            <g id="Group-61-Copy">
                                <g id="Group-10">
                                    <polygon id="+" points="18.4484711 10.0219955 18.4484711 7.09987412 15.4832437 7.09987412 15.4832437 5.26456293 18.4484711 5.25599176 18.4484711 2.2790581 20.3409428 2.2790581 20.3409428 5.25599176 23.364325 5.26456293 23.364325 7.09987412 20.3409428 7.09987412 20.3409428 10.0219955"></polygon>
                                    <path d="M13.4559643,13.4777807 L9.90548583,4.67803698 L6.34091813,13.4777807 L13.4559643,13.4777807 Z M16.5837668,21.2844499 L14.3154056,15.6294422 L5.48147691,15.6294422 L3.18493725,21.2844499 L0.437543171,21.2844499 L8.7079038,0.871251296 L11.6384575,0.871251296 L19.7820153,21.2844499" id="A"></path>
                                </g>
                            </g>
                        </g>
                    </g>
                    <rect id="Rectangle" stroke="#FFFFFF" x="0.5" y="0.5" width="35" height="32.3658537"></rect>
                </g>
            </g>
        </g>
    </g>
</svg>