<?xml version="1.0" encoding="utf-8"?>
<!-- Generator: Adobe Illustrator 17.0.0, SVG Export Plug-In . SVG Version: 6.00 Build 0)  -->
<!DOCTYPE svg PUBLIC "-//W3C//DTD SVG 1.1//EN" "http://www.w3.org/Graphics/SVG/1.1/DTD/svg11.dtd">
<svg version="1.1" id="Capa_1" xmlns="http://www.w3.org/2000/svg" xmlns:xlink="http://www.w3.org/1999/xlink" x="0px" y="0px"
	 width="32px" height="30px" viewBox="0 0 32 30" enable-background="new 0 0 32 30" xml:space="preserve">
<title>Accesos directos icon</title>
<desc>Created with Sketch.</desc>
<g id="Accesos-directos-icon">
	<g id="Leyes-Icon">
		<g id="Outlined-_x2F_-Documents" transform="translate(0.500000, 0.000000)">
			<g id="Stroke" transform="translate(0.968750, 0.000000)">
				<path fill="#FFFFFF" d="M14.703,29.875c-7.887,0-14.304-6.617-14.304-14.75s6.417-14.75,14.304-14.75s14.304,6.617,14.304,14.75
					S22.59,29.875,14.703,29.875z M14.703,1.327c-7.362,0-13.352,6.19-13.352,13.798s5.99,13.798,13.352,13.798
					c7.363,0,13.352-6.19,13.352-13.798S22.066,1.327,14.703,1.327z"/>
			</g>
		</g>
	</g>
	<g id="Leyes-Icon-Copy">
		<g id="Outlined-_x2F_-Documents_1_">
			<g transform="translate(0.500000, 0.000000)">
				<g id="Stroke_1_" transform="translate(0.968750, 0.000000)">
					<path fill="#FFFFFF" d="M14.703,29.875c-7.887,0-14.304-6.617-14.304-14.75s6.417-14.75,14.304-14.75
						s14.304,6.617,14.304,14.75S22.59,29.875,14.703,29.875z M14.703,1.327c-7.362,0-13.352,6.19-13.352,13.798
						s5.99,13.798,13.352,13.798c7.363,0,13.352-6.19,13.352-13.798S22.066,1.327,14.703,1.327z"/>
				</g>
			</g>
		</g>
	</g>
	<path fill="#FFFFFF" d="M7.909,22.262c-0.428,0-0.777-0.344-0.777-0.766c0.073-3.851,2.998-9.551,9.04-10.004v-2.74
		c0-0.281,0.156-0.539,0.408-0.674c0.283-0.138,0.567-0.112,0.789,0.031l8.431,5.209c0.225,0.139,0.364,0.386,0.364,0.643
		c0,0.26-0.122,0.492-0.335,0.636l-8.436,5.792c-0.217,0.153-0.527,0.178-0.78,0.064c-0.28-0.142-0.441-0.404-0.441-0.694v-2.671
		c-4.031,0.403-7.371,3.76-7.487,4.429C8.686,21.921,8.337,22.262,7.909,22.262z M17.123,9.076v3.33l-0.462,0.014
		c-5.272,0.156-8.042,4.68-8.509,8.173c1.175-1.653,4.661-4.346,8.477-4.49l0.494-0.019v3.335l7.93-5.444L17.123,9.076z"/>
</g>
</svg>
