<?xml version="1.0" encoding="UTF-8"?>
<svg width="40px" height="48px" viewBox="0 0 40 48" version="1.1" xmlns="http://www.w3.org/2000/svg" xmlns:xlink="http://www.w3.org/1999/xlink">
    <!-- Generator: Sketch 52.5 (67469) - http://www.bohemiancoding.com/sketch -->
    <title>Group 16@2x</title>
    <desc>Created with Sketch.</desc>
    <g id="Symbols" stroke="none" stroke-width="1" fill="none" fill-rule="evenodd">
        <g id="Servicios-online---nuevo-componente" transform="translate(-539.000000, -29.000000)" fill="#9B9B9B">
            <g id="Group-17">
                <g id="Group-16" transform="translate(539.000000, 29.000000)">
                    <path d="M15.8653805,9.63157895 C14.9598624,9.63157895 13.6571874,10.7573684 12.6245791,16.1089474 C12.5133752,16.68 12.1956496,17.1857895 11.7349474,17.5610526 C9.09782478,19.7147368 7.58862809,22.8310526 7.58862809,26.0942105 C7.58862809,29.0310526 8.73244032,31.8047368 10.7976568,33.8931579 C13.069395,36.1936842 16.1831061,37.4336842 19.4874525,37.3684211 C22.8712303,37.3194737 26.1279179,35.8510526 28.447315,33.3384211 C30.4648726,31.1521053 31.5133672,28.4273684 31.4021632,25.67 C31.2909592,22.57 29.7817626,19.6168421 27.2717302,17.5610526 C26.811028,17.1857895 26.4933024,16.68 26.3820984,16.1089474 C25.3494902,10.7573684 24.0468151,9.63157895 23.1412971,9.63157895 L15.8653805,9.63157895 L15.8653805,9.63157895 Z M19.2968171,39 C15.6112,39 12.2115358,37.6131579 9.68561718,35.0678947 C7.30267504,32.6531579 6,29.4715789 6,26.0942105 C6,22.3252632 7.73160462,18.7521053 10.7341117,16.2884211 C10.9247471,16.1415789 11.0200648,15.9784211 11.0677236,15.7989474 C11.4807669,13.6615789 12.5769203,8 15.8653805,8 L23.1412971,8 C26.4297573,8 27.5259107,13.6615789 27.938954,15.7989474 C27.9866128,16.0273684 28.1454756,16.1905263 28.2725659,16.2884211 C31.1320964,18.6215789 32.8478148,22.0152632 32.9907913,25.6047368 C33.1178816,28.8026316 31.9264105,31.9515789 29.6070135,34.4642105 C27.0016634,37.2868421 23.3160462,38.9510526 19.5192251,39 L19.2968171,39 L19.2968171,39 Z" id="Fill-5517"></path>
                    <path d="M20.5,48 C20.22,48 20,47.648 20,47.2 L20,40.8 C20,40.368 20.22,40 20.5,40 C20.78,40 21,40.368 21,40.8 L21,47.2 C21,47.648 20.78,48 20.5,48" id="Fill-5518"></path>
                    <path d="M8.83586187,45 C8.66944806,45 8.51967563,44.9649323 8.3699032,44.8597292 C7.98715143,44.5967216 7.88730314,44.0531724 8.13692386,43.649894 L11.4652001,38.3897408 C11.7314622,37.9864624 12.247345,37.8812593 12.6300968,38.144267 C13.0128486,38.4072746 13.1126969,38.9508238 12.8630761,39.3541022 L9.53479989,44.6142554 C9.36838607,44.8597292 9.10212397,45 8.83586187,45" id="Fill-5519"></path>
                    <path d="M0.875803326,35 C0.560899725,35 0.245996124,34.8798588 0.0885443232,34.6756188 C-0.121391411,34.3752659 0.0535550342,34.0148424 0.490921147,33.870673 L5.7393145,32.0685554 C6.15918596,31.9123718 6.6840253,32.032513 6.91145568,32.3328659 C7.12139141,32.6332189 6.94644497,32.9936424 6.50907885,33.1378118 L1.2606855,34.9399294 C1.13822299,34.9879859 1.01576048,35 0.875803326,35" id="Fill-5520"></path>
                    <path d="M24.2142857,9 C23.7742857,9 23.4285714,8.66983492 23.4285714,8.24962481 L23.4285714,2.87243622 C23.4285714,2.67583792 23.35,2.48224112 23.1928571,2.34267134 L22.5485714,1.72136068 C22.4071429,1.58029015 22.2028571,1.50075038 21.9985714,1.50075038 L17.0014286,1.50075038 C16.7971429,1.50075038 16.5928571,1.58029015 16.4514286,1.72136068 L15.8071429,2.34267134 C15.65,2.48224112 15.5714286,2.67583792 15.5714286,2.87243622 L15.5714286,8.24962481 C15.5714286,8.66983492 15.2257143,9 14.7857143,9 C14.3457143,9 14,8.66983492 14,8.24962481 L14,2.87243622 C14,2.27213607 14.2514286,1.70635318 14.6914286,1.28164082 L15.3357143,0.660330165 C15.7757143,0.24012006 16.3885714,0 17.0014286,0 L21.9985714,0 C22.6114286,0 23.2242857,0.24012006 23.6642857,0.660330165 L24.3085714,1.28164082 C24.7485714,1.70635318 25,2.27213607 25,2.87243622 L25,8.24962481 C25,8.66983492 24.6542857,9 24.2142857,9" id="Fill-5521"></path>
                    <path d="M31.1641381,45 C30.897876,45 30.6316139,44.8598216 30.4652001,44.6145095 L27.1369239,39.3578202 C26.8873031,38.9548073 26.9871514,38.4116161 27.3699032,38.1487817 C27.752655,37.8859472 28.2685378,37.9735587 28.5347999,38.3940938 L31.8630761,43.6507831 C32.1126969,44.0537959 32.0128486,44.5969872 31.6300968,44.8598216 C31.4803244,44.9649554 31.3305519,45 31.1641381,45" id="Fill-5522"></path>
                    <path d="M39.1241967,35 C38.9842395,35 38.861777,34.9879859 38.7393145,34.9399294 L33.4909211,33.1378118 C33.053555,32.9936424 32.8786086,32.6332189 33.0885443,32.3328659 C33.3159747,32.032513 33.840814,31.9123718 34.2606855,32.0685554 L39.5090789,33.870673 C39.946445,34.0148424 40.1213914,34.3752659 39.9114557,34.6756188 C39.7540039,34.8798588 39.4391003,35 39.1241967,35" id="Fill-5523"></path>
                </g>
            </g>
        </g>
    </g>
</svg>