<?xml version="1.0" encoding="UTF-8"?>
<svg width="32px" height="40px" viewBox="0 0 32 40" version="1.1" xmlns="http://www.w3.org/2000/svg" xmlns:xlink="http://www.w3.org/1999/xlink">
    <!-- Generator: Sketch 52.5 (67469) - http://www.bohemiancoding.com/sketch -->
    <title>book</title>
    <desc>Created with Sketch.</desc>
    <g id="Symbols" stroke="none" stroke-width="1" fill="none" fill-rule="evenodd">
        <g id="Servicios-online---nuevo-componente" transform="translate(-703.000000, -37.000000)" fill="#9B9B9B" fill-rule="nonzero">
            <g id="Group-17">
                <path d="M734.991725,38.0092308 C734.991725,37.4512821 734.536592,37 733.973882,37 L709.280838,37 C705.813551,37 703,39.7979487 703,43.2276923 L703,70.7723077 C703,74.2102564 705.821826,77 709.280838,77 L733.982157,77 C734.544867,77 735,76.5487179 735,75.9907692 L735,48.454359 C735,47.8964103 734.544867,47.4451282 733.982157,47.4451282 L709.280838,47.4451282 C706.938971,47.4451282 705.027411,45.5497436 705.027411,43.2276923 C705.027411,40.905641 706.938971,39.0102564 709.280838,39.0102564 L733.982157,39.0102564 C734.536592,39.0102564 734.991725,38.5589744 734.991725,38.0092308 Z M709.263033,49.6380924 L733,49.6380924 L733,75 L709.263033,75 C706.915877,75 705,73.1174162 705,70.8110474 L705,48 C706.119668,49.0187142 707.620853,49.6380924 709.263033,49.6380924 Z M710.009189,42 L732.990811,42 C733.548736,42 734,42.4471545 734,43 C734,43.5528455 733.548736,44 732.990811,44 L710.009189,44 C709.451264,44 709,43.5528455 709,43 C709,42.4471545 709.451264,42 710.009189,42 Z M713.643875,69.9336149 C714.157476,70.1303248 714.736296,69.8762412 714.931954,69.3516816 L716.391233,65.5158394 L721.502786,65.5158394 C721.543548,65.5158394 721.576158,65.5076431 721.608767,65.5076431 L723.068046,69.3516816 C723.222942,69.7532975 723.597952,69.9991849 723.99742,69.9991849 C724.119706,69.9991849 724.233839,69.9745961 724.356125,69.9336149 C724.869726,69.7369051 725.130603,69.1549717 724.934945,68.6386083 L720.532651,57.0655117 C720.288079,56.4180084 719.684801,56 719,56 C718.315199,56 717.711921,56.4180084 717.467349,57.0655117 L713.065055,68.6386083 C712.869397,69.1549717 713.130274,69.7287088 713.643875,69.9336149 Z M718.995585,58 L721,63 L717,63 L718.995585,58 Z" id="book"></path>
            </g>
        </g>
    </g>
</svg>