<?xml version="1.0" encoding="utf-8"?>
<!-- Generator: Adobe Illustrator 17.0.0, SVG Export Plug-In . SVG Version: 6.00 Build 0)  -->
<!DOCTYPE svg PUBLIC "-//W3C//DTD SVG 1.1//EN" "http://www.w3.org/Graphics/SVG/1.1/DTD/svg11.dtd">
<svg version="1.1" xmlns="http://www.w3.org/2000/svg" xmlns:xlink="http://www.w3.org/1999/xlink" x="0px" y="0px" width="50px"
	 height="45.519px" viewBox="0 0 50 45.519" enable-background="new 0 0 50 45.519" xml:space="preserve">
<g id="Capa_1" display="none">
	<rect display="inline" fill="#158E00" width="50" height="50"/>
</g>
<g id="Capa_2" display="none">
	<g id="Symbols" display="inline">
		<g id="Header" transform="translate(-808.000000, -18.000000)">
			<g id="Group-4" transform="translate(750.000000, 18.000000)">
				<g id="Group-13" transform="translate(58.000000, 0.000000)">
					<g id="Group-11" transform="translate(5.760000, 5.802757)">
						<g id="Group-3">
							<g id="Group-61-Copy">
								<g id="Group-10">
									<polygon id="_x2B_" fill="#FFFFFF" points="27.797,18.008 27.797,13.957 23.686,13.957 23.686,11.413 27.797,11.401 
										27.797,7.275 30.42,7.275 30.42,11.401 34.611,11.413 34.611,13.957 30.42,13.957 30.42,18.008 									"/>
									<path id="A" fill="#FFFFFF" d="M20.876,22.798L15.955,10.6l-4.941,12.198H20.876z M25.212,33.619l-3.144-7.839H9.822
										l-3.183,7.839H2.831L14.295,5.323h4.062l11.288,28.296"/>
								</g>
							</g>
						</g>
					</g>
					<path fill="#FFFFFF" d="M49.901,48.125H0V1.875h49.901V48.125z M1.386,46.74h47.129V3.261H1.386V46.74z"/>
				</g>
			</g>
		</g>
	</g>
</g>
<g id="Capa_3" display="none">
	<title>Group 13</title>
	<desc>Created with Sketch.</desc>
	<g id="Symbols_1_" display="inline">
		<g id="Header_1_" transform="translate(-808.000000, -18.000000)">
			<g id="Group-4_1_" transform="translate(750.000000, 18.000000)">
				<g id="Group-13_1_" transform="translate(58.000000, 0.000000)">
					<g id="Group-11_1_" transform="translate(5.760000, 5.802757)">
						<g id="Group-3_1_">
							<g id="Group-61-Copy_1_">
								<g id="Group-10_1_">
									<polygon id="_x2B__1_" fill="#FFFFFF" points="30.118,13.947 26.522,13.947 26.522,11.398 30.118,11.386 32.413,11.386 
										36.079,11.398 36.079,13.947 32.413,13.947 									"/>
									<path id="A_1_" fill="#FFFFFF" d="M20.929,22.805l-4.931-12.222l-4.951,12.222H20.929z M25.273,33.647l-3.15-7.854H9.853
										l-3.19,7.854H2.848L14.334,5.296h4.07l11.31,28.351"/>
								</g>
							</g>
						</g>
					</g>
					<path fill="#FFFFFF" d="M50,48.171H0V1.829h50V48.171z M1.389,46.782h47.222V3.218H1.389V46.782z"/>
				</g>
			</g>
		</g>
	</g>
</g>
<g id="Capa_4" display="none">
	<g id="Accesos-directos-icon" display="inline">
		<g id="Leyes-Icon">
			<g id="Outlined-_x2F_-Documents" transform="translate(0.500000, 0.000000)">
				<g id="Stroke" transform="translate(0.968750, 0.000000)">
					<path fill="#FFFFFF" d="M23.531,50.125c-13.785,0-25-11.243-25-25.063S9.746,0,23.531,0s25,11.243,25,25.063
						S37.316,50.125,23.531,50.125z M23.531,1.617c-12.868,0-23.337,10.518-23.337,23.446s10.469,23.446,23.337,23.446
						S46.868,37.99,46.868,25.063S36.399,1.617,23.531,1.617z"/>
				</g>
			</g>
		</g>
		<g id="Leyes-Icon-Copy">
			<g id="Outlined-_x2F_-Documents_1_">
				<g transform="translate(0.500000, 0.000000)">
					<g id="Stroke_1_" transform="translate(0.968750, 0.000000)">
						<path fill="#FFFFFF" d="M23.531,50.125c-13.785,0-25-11.243-25-25.063S9.746,0,23.531,0s25,11.243,25,25.063
							S37.316,50.125,23.531,50.125z M23.531,1.617c-12.868,0-23.337,10.518-23.337,23.446s10.469,23.446,23.337,23.446
							S46.868,37.99,46.868,25.063S36.399,1.617,23.531,1.617z"/>
					</g>
				</g>
			</g>
		</g>
		<path fill="#FFFFFF" d="M10.558,37.19c-0.749,0-1.359-0.583-1.359-1.3c0.128-6.545,5.24-16.23,15.8-16.999v-4.656
			c0-0.476,0.272-0.914,0.71-1.145c0.505-0.238,0.992-0.193,1.382,0.051l14.735,8.851c0.394,0.239,0.637,0.657,0.637,1.092
			c0,0.44-0.212,0.833-0.582,1.08l-14.746,9.843c-0.377,0.257-0.918,0.306-1.362,0.109C25.283,33.874,25,33.427,25,32.936v-4.537
			c-7.045,0.685-12.883,6.388-13.086,7.526C11.916,36.611,11.307,37.19,10.558,37.19z M26.663,14.783v5.659l-0.807,0.024
			c-9.215,0.265-14.055,7.953-14.871,13.887c2.053-2.808,8.146-7.384,14.815-7.628l0.863-0.032v5.667l13.859-9.252L26.663,14.783z"
			/>
	</g>
</g>
<g id="Capa_5" display="none">
	<title>Group 16@2x</title>
	<desc>Created with Sketch.</desc>
	<g id="Symbols_2_" display="inline">
		<g id="Servicios-online---nuevo-componente" transform="translate(-539.000000, -29.000000)">
			<g id="Group-17">
				<g id="Group-16" transform="translate(539.000000, 29.000000)">
					<path id="Fill-5517" fill="#FFFFFF" d="M20.72,10.003c-0.945,0-2.305,1.175-3.383,6.761c-0.116,0.596-0.448,1.124-0.929,1.516
						c-2.752,2.248-4.328,5.501-4.328,8.906c0,3.065,1.194,5.96,3.349,8.14c2.371,2.401,5.621,3.695,9.07,3.627
						c3.532-0.051,6.931-1.584,9.352-4.206c2.106-2.282,3.2-5.126,3.084-8.004c-0.116-3.236-1.691-6.318-4.311-8.464
						c-0.481-0.392-0.812-0.92-0.929-1.516c-1.078-5.586-2.437-6.761-3.383-6.761H20.72L20.72,10.003z M24.301,40.656
						c-3.847,0-7.395-1.448-10.032-4.104c-2.487-2.52-3.847-5.841-3.847-9.366c0-3.934,1.807-7.663,4.941-10.235
						c0.199-0.153,0.298-0.324,0.348-0.511c0.431-2.231,1.575-8.14,5.008-8.14h7.594c3.432,0,4.576,5.909,5.008,8.14
						c0.05,0.238,0.216,0.409,0.348,0.511c2.985,2.435,4.775,5.977,4.925,9.724c0.133,3.338-1.111,6.625-3.532,9.247
						c-2.719,2.946-6.566,4.683-10.529,4.734H24.301L24.301,40.656z"/>
					<path id="Fill-5518" fill="#FFFFFF" d="M25.557,50.05c-0.292,0-0.522-0.367-0.522-0.835v-6.68c0-0.451,0.23-0.835,0.522-0.835
						c0.292,0,0.522,0.384,0.522,0.835v6.68C26.079,49.683,25.849,50.05,25.557,50.05"/>
					<path id="Fill-5519" fill="#FFFFFF" d="M13.383,46.919c-0.174,0-0.33-0.037-0.486-0.146c-0.399-0.275-0.504-0.842-0.243-1.263
						l3.474-5.49c0.278-0.421,0.816-0.531,1.216-0.256c0.399,0.275,0.504,0.842,0.243,1.263l-3.474,5.49
						C13.938,46.772,13.66,46.919,13.383,46.919"/>
					<path id="Fill-5520" fill="#FFFFFF" d="M5.074,36.481c-0.329,0-0.657-0.125-0.822-0.339c-0.219-0.313-0.037-0.69,0.42-0.84
						l5.478-1.881c0.438-0.163,0.986-0.038,1.223,0.276c0.219,0.313,0.037,0.69-0.42,0.84l-5.478,1.881
						C5.348,36.469,5.22,36.481,5.074,36.481"/>
					<path id="Fill-5521" fill="#FFFFFF" d="M29.434,9.344c-0.459,0-0.82-0.345-0.82-0.783V2.948c0-0.205-0.082-0.407-0.246-0.553
						l-0.672-0.648c-0.148-0.147-0.361-0.23-0.574-0.23h-5.216c-0.213,0-0.426,0.083-0.574,0.23l-0.672,0.648
						c-0.164,0.146-0.246,0.348-0.246,0.553v5.612c0,0.439-0.361,0.783-0.82,0.783s-0.82-0.345-0.82-0.783V2.948
						c0-0.627,0.262-1.217,0.722-1.66l0.672-0.648c0.459-0.439,1.099-0.689,1.739-0.689h5.216c0.64,0,1.279,0.251,1.739,0.689
						l0.672,0.648c0.459,0.443,0.722,1.034,0.722,1.66v5.612C30.254,8.999,29.893,9.344,29.434,9.344"/>
					<path id="Fill-5522" fill="#FFFFFF" d="M36.688,46.919c-0.278,0-0.556-0.146-0.73-0.402l-3.474-5.487
						c-0.261-0.421-0.156-0.988,0.243-1.262s0.938-0.183,1.216,0.256l3.474,5.487c0.261,0.421,0.156,0.988-0.243,1.262
						C37.018,46.882,36.861,46.919,36.688,46.919"/>
					<path id="Fill-5523" fill="#FFFFFF" d="M44.996,36.481c-0.146,0-0.274-0.013-0.402-0.063l-5.478-1.881
						c-0.457-0.15-0.639-0.527-0.42-0.84c0.237-0.313,0.785-0.439,1.223-0.276l5.478,1.881c0.457,0.15,0.639,0.527,0.42,0.84
						C45.653,36.356,45.325,36.481,44.996,36.481"/>
				</g>
			</g>
		</g>
	</g>
</g>
<g id="Capa_6" display="none">
	<title>Arrow</title>
	<desc>Created with Sketch.</desc>
	<g id="Symbols_3_" display="inline">
		<g id="Serv.-Home" transform="translate(-886.000000, -64.000000)">
			
				<g id="Previous-Button" transform="translate(910.000000, 86.000000) rotate(-180.000000) translate(-910.000000, -86.000000) translate(890.000000, 66.000000)">
				<g id="Arrow_10_">
					<path fill="#FFFFFF" d="M19.063,42C32.835,42,44,30.835,44,17.063C44,3.29,32.835-7.875,19.063-7.875S-5.875,3.29-5.875,17.063
						C-5.875,30.835,5.29,42,19.063,42z M10.729,17.087l0.528-0.528l0.352-0.353l0.001,0.001L24.406,3.409l0.882,0.882
						L12.493,17.086l12.795,12.747l-0.88,0.883L11.611,17.968l-0.001,0.001l-0.404-0.404l-0.477-0.475V17.087L10.729,17.087z"/>
				</g>
			</g>
		</g>
	</g>
</g>
<g id="Capa_7" display="none">
	<g id="Symbols_4_" display="inline">
		<g id="Serv.-Home_1_" transform="translate(-886.000000, -64.000000)">
			
				<g id="Previous-Button_1_" transform="translate(910.000000, 86.000000) rotate(-180.000000) translate(-910.000000, -86.000000) translate(890.000000, 66.000000)">
				<g id="Arrow_13_">
					<path fill="#FFFFFF" d="M19.063-7.875C5.29-7.875-5.875,3.29-5.875,17.063C-5.875,30.835,5.29,42,19.063,42
						S44,30.835,44,17.063C44,3.29,32.835-7.875,19.063-7.875z M27.396,17.038l-0.528,0.528l-0.352,0.353l-0.001-0.001
						L13.719,30.716l-0.882-0.882l12.795-12.795L12.837,4.292l0.88-0.883l12.797,12.748l0.001-0.001l0.404,0.404l0.477,0.475V17.038
						L27.396,17.038z"/>
				</g>
			</g>
		</g>
	</g>
</g>
<g id="Capa_8" display="none">
	<g id="Symbols_5_" display="inline">
		<g id="Servicios-online---nuevo-componente_1_" transform="translate(-703.000000, -37.000000)">
			<g id="Group-17_1_">
				<path id="book" fill="#FFFFFF" d="M747.799,38.256c0-0.694-0.566-1.256-1.266-1.256h-30.719C711.5,37,708,40.481,708,44.748
					v34.267c0,4.277,3.51,7.748,7.814,7.748h30.73c0.7,0,1.266-0.561,1.266-1.256V51.25c0-0.694-0.566-1.256-1.266-1.256h-30.73
					c-2.913,0-5.291-2.358-5.291-5.247s2.378-5.247,5.291-5.247h30.73C747.233,39.501,747.799,38.939,747.799,38.256z
					 M715.792,52.722h29.53v31.551h-29.53c-2.92,0-5.303-2.342-5.303-5.211V50.684C711.881,51.952,713.749,52.722,715.792,52.722z
					 M716.72,43.22h28.59c0.694,0,1.255,0.556,1.255,1.244s-0.561,1.244-1.255,1.244h-28.59c-0.694,0-1.256-0.556-1.256-1.244
					S716.026,43.22,716.72,43.22z M721.241,77.971c0.639,0.245,1.359-0.071,1.602-0.724l1.815-4.772h6.359
					c0.051,0,0.091-0.01,0.132-0.01l1.815,4.782c0.193,0.5,0.659,0.806,1.156,0.806c0.152,0,0.294-0.031,0.446-0.082
					c0.639-0.245,0.964-0.969,0.72-1.611l-5.477-14.397c-0.304-0.806-1.055-1.326-1.907-1.326c-0.852,0-1.602,0.52-1.907,1.326
					l-5.477,14.397C720.278,77.002,720.602,77.716,721.241,77.971z M727.899,63.125l2.494,6.22h-4.976L727.899,63.125z"/>
			</g>
		</g>
	</g>
</g>
<g id="Capa_9">
	<g>
		<g>
			<g>
				<path fill="#FFFFFF" d="M24.485,42.337c-0.29,0.137-0.532,0.198-0.803,0.198c-0.643,0-0.946-0.452-0.946-1.134
					c0-0.653,0.324-1.095,0.997-1.095c0.328,0,0.538,0.079,0.706,0.191l-0.178,0.315c-0.121-0.08-0.302-0.137-0.525-0.137
					c-0.385,0-0.56,0.293-0.56,0.719c0,0.507,0.185,0.783,0.548,0.783c0.14,0,0.274-0.029,0.375-0.076v-0.395h-0.296l-0.022-0.31
					h0.704V42.337z"/>
				<path fill="#FFFFFF" d="M26.225,41.72c0,0.531-0.268,0.815-0.733,0.815c-0.468,0-0.733-0.28-0.733-0.815
					c0-0.459,0.255-0.809,0.733-0.809C25.964,40.911,26.225,41.262,26.225,41.72 M25.798,41.72c0-0.376-0.111-0.507-0.305-0.507
					c-0.194,0-0.302,0.134-0.302,0.507c0,0.363,0.098,0.509,0.302,0.509C25.696,42.229,25.798,42.093,25.798,41.72"/>
				<path fill="#FFFFFF" d="M26.923,41.102c0.07-0.095,0.238-0.191,0.414-0.191c0.367,0,0.63,0.261,0.63,0.809
					c0,0.538-0.318,0.815-0.681,0.815c-0.223,0-0.353-0.086-0.452-0.22l-0.076,0.188h-0.222v-2.196h0.417v0.544L26.923,41.102z
					 M26.951,42.07c0.064,0.086,0.172,0.159,0.283,0.159c0.181,0,0.315-0.133,0.315-0.509c0-0.373-0.118-0.503-0.309-0.503
					c-0.105,0-0.219,0.055-0.29,0.124V42.07z"/>
				<path fill="#FFFFFF" d="M28.41,42.503v-1.254l-0.178-0.038v-0.267h0.592v1.56H28.41z M28.397,40.307h0.421v0.378h-0.421V40.307z
					"/>
				<path fill="#FFFFFF" d="M29.56,41.835c0,0.248,0.14,0.385,0.401,0.385c0.162,0,0.319-0.067,0.455-0.134l0.079,0.293
					c-0.13,0.07-0.337,0.156-0.586,0.156c-0.487,0-0.771-0.299-0.771-0.815c0-0.481,0.229-0.809,0.729-0.809
					c0.471,0,0.659,0.35,0.659,0.742v0.181H29.56z M29.849,41.217c-0.206,0-0.289,0.188-0.289,0.372h0.57
					C30.129,41.389,30.066,41.217,29.849,41.217"/>
				<path fill="#FFFFFF" d="M31.729,41.29c-0.051-0.016-0.121-0.025-0.195-0.025c-0.111,0-0.21,0.048-0.28,0.105v1.132H30.84v-1.56
					h0.29c0.016,0.073,0.032,0.141,0.045,0.21h0.013c0.047-0.111,0.188-0.239,0.372-0.239c0.084,0,0.143,0.013,0.179,0.023
					C31.735,41.055,31.735,41.173,31.729,41.29"/>
				<path fill="#FFFFFF" d="M32.949,42.503v-0.926c0-0.235-0.09-0.347-0.28-0.347c-0.109,0-0.201,0.048-0.274,0.095v1.178h-0.417
					v-1.56h0.287l0.064,0.178c0.089-0.105,0.261-0.21,0.494-0.21c0.395,0,0.55,0.233,0.55,0.627v0.964H32.949z"/>
				<path fill="#FFFFFF" d="M35.115,41.72c0,0.531-0.268,0.815-0.733,0.815c-0.467,0-0.732-0.28-0.732-0.815
					c0-0.459,0.255-0.809,0.732-0.809C34.854,40.911,35.115,41.262,35.115,41.72 M34.688,41.72c0-0.376-0.112-0.507-0.307-0.507
					c-0.193,0-0.301,0.134-0.301,0.507c0,0.363,0.098,0.509,0.301,0.509C34.585,42.229,34.688,42.093,34.688,41.72"/>
				<path fill="#FFFFFF" d="M37.138,41.064c-0.026-0.089-0.039-0.169-0.039-0.287v-0.471h0.415v2.196h-0.338l-0.048-0.171
					c-0.063,0.095-0.214,0.204-0.414,0.204c-0.354,0-0.637-0.255-0.637-0.812c0-0.516,0.293-0.812,0.672-0.812
					C36.918,40.911,37.051,40.969,37.138,41.064 M37.098,41.3c-0.063-0.038-0.162-0.077-0.283-0.077
					c-0.197,0-0.322,0.134-0.322,0.497c0,0.372,0.119,0.512,0.316,0.512c0.104,0,0.21-0.05,0.289-0.134V41.3z"/>
				<path fill="#FFFFFF" d="M38.249,41.835c0,0.248,0.14,0.385,0.401,0.385c0.163,0,0.319-0.067,0.456-0.134l0.079,0.293
					c-0.131,0.07-0.338,0.156-0.586,0.156c-0.487,0-0.77-0.299-0.77-0.815c0-0.481,0.229-0.809,0.729-0.809
					c0.471,0,0.659,0.35,0.659,0.742v0.181H38.249z M38.539,41.217c-0.207,0-0.289,0.188-0.289,0.372h0.57
					C38.819,41.389,38.755,41.217,38.539,41.217"/>
				<path fill="#FFFFFF" d="M41.113,42.535c-0.605,0-0.926-0.407-0.926-1.124c0-0.66,0.318-1.105,0.926-1.105
					c0.293,0,0.557,0.063,0.732,0.181l-0.159,0.331c-0.111-0.082-0.306-0.146-0.529-0.146c-0.357,0-0.534,0.265-0.534,0.736
					c0,0.497,0.178,0.761,0.528,0.761c0.211,0,0.421-0.089,0.568-0.197l0.133,0.335C41.637,42.453,41.396,42.535,41.113,42.535"/>
				<path fill="#FFFFFF" d="M42.138,42.503v-2.196h0.417v0.576c0,0.108-0.034,0.216-0.041,0.241
					c0.088-0.108,0.219-0.213,0.441-0.213c0.45,0,0.577,0.233,0.577,0.627v0.964H43.11v-0.926c0-0.041-0.007-0.073-0.023-0.095
					c-0.013-0.175-0.102-0.251-0.257-0.251c-0.109,0-0.201,0.048-0.275,0.095v1.178H42.138z"/>
				<path fill="#FFFFFF" d="M43.998,42.503v-1.254l-0.179-0.038v-0.267h0.592v1.56H43.998z M43.985,40.307h0.421v0.378h-0.421
					V40.307z"/>
				<path fill="#FFFFFF" d="M44.792,42.089v-1.783h0.41v1.76c0,0.131,0.079,0.15,0.251,0.15v0.293c0,0-0.121,0.025-0.229,0.025
					C44.906,42.535,44.792,42.367,44.792,42.089"/>
				<path fill="#FFFFFF" d="M46.085,41.835c0,0.248,0.14,0.385,0.401,0.385c0.163,0,0.319-0.067,0.455-0.134l0.079,0.293
					c-0.131,0.07-0.337,0.156-0.585,0.156c-0.487,0-0.771-0.299-0.771-0.815c0-0.481,0.229-0.809,0.729-0.809
					c0.471,0,0.659,0.35,0.659,0.742v0.181H46.085z M46.374,41.217c-0.207,0-0.289,0.188-0.289,0.372h0.57
					C46.655,41.389,46.591,41.217,46.374,41.217"/>
				<path fill="#FFFFFF" d="M49.224,0H0.87H0.094v0.775l0.001,43.969v0.775h0.775h48.354H50v-0.775L49.999,0.775V0H49.224z
					 M0.87,0.775h19.422l0.001,43.969H0.871L0.87,0.775z M49.225,44.744H21.068L21.067,0.775h28.157L49.225,44.744z"/>
			</g>
			<g>
				<g>
					<g>
						<path fill="#FFFFFF" d="M11.189,6.804c0.044-0.036,0.135-0.115,0.061-0.264c-0.035-0.07-0.128-0.077-0.088-0.085
							c0.497-0.117,0.762-0.841,0.747-1.12c0.255,0.236,0.828,0.303,1.244-0.051c0.269-0.258,0.398-0.938-0.061-1.278
							c-0.235-0.173-0.651-0.189-0.911,0.013c-0.082-0.139-0.225-0.237-0.379-0.238c-0.002-0.049,0.006-0.376-0.188-0.588
							c-0.248-0.271-0.947-0.291-1.2,0.005C9.912,3.073,9.261,3.305,9.298,4.09c-0.352-0.139-0.554-0.141-0.74-0.124
							c-0.175,0.017-0.409,0.173-0.49,0.281C8.03,4.294,7.988,4.361,7.958,4.42C7.901,4.532,7.857,4.681,7.873,4.846
							c0.026,0.279,0.164,0.515,0.367,0.626c0.28,0.153,0.635,0.132,0.761,0.112c0.097-0.021,0.201-0.057,0.312-0.172
							c0.032-0.033,0.056-0.086,0.104-0.087C9.415,5.397,9.389,5.773,9.809,5.952C9.811,5.97,9.817,5.987,9.821,6.014
							c0.133,0.518,0.482,0.454,0.487,0.49c-0.154,0.094-0.089,0.229-0.052,0.3c0.236-0.072,0.411-0.082,0.466-0.082
							C10.778,6.721,10.953,6.731,11.189,6.804z"/>
						<g>
							<polygon fill="none" points="10.667,7.326 10.354,8.362 9.236,8.362 9.24,8.364 10.145,9.012 9.799,10.036 10.667,9.377 
								11.537,10.036 11.19,9.012 12.096,8.363 12.098,8.362 10.981,8.362 							"/>
							<path fill="#FFFFFF" d="M12.367,8.368c-0.002-0.519,0.349-0.921,0.354-0.926c0.038-0.043,0.042-0.083,0.04-0.111
								c-0.007-0.048-0.044-0.081-0.052-0.081c-0.1-0.068-0.325-0.205-0.325-0.205l-0.018-0.016h-0.019
								c-0.024,0-0.043,0.015-0.074,0.038c-0.062,0.048-0.178,0.137-0.38,0.137c-0.036,0-0.072-0.003-0.111-0.008
								c-0.106-0.015-0.283-0.105-0.283-0.105c-0.058-0.03-0.13-0.062-0.159-0.075l-0.013-0.005c-0.29-0.12-0.536-0.13-0.605-0.13
								c-0.069,0-0.315,0.01-0.605,0.13l-0.013,0.005c-0.015,0.007-0.042,0.019-0.073,0.033L9.854,7.131
								C9.795,7.157,9.72,7.186,9.662,7.194C9.624,7.2,9.587,7.203,9.551,7.203c-0.201,0-0.317-0.089-0.38-0.137
								C9.14,7.042,9.12,7.028,9.097,7.028L9.079,7.03l-0.01,0.007c-0.001,0-0.231,0.142-0.326,0.208
								C8.728,7.251,8.691,7.282,8.684,7.331c-0.003,0.027,0.001,0.068,0.04,0.111c0.014,0.017,0.355,0.412,0.354,0.934
								c0.009,0.059,0.035,0.373-0.232,0.833c-0.012,0.023-0.306,0.56,0.015,1.03c0.001,0.005,0.242,0.442,0.943,0.442
								c0.057,0,0.575,0.01,0.754,0.341c0.008,0.013,0.091,0.146,0.124,0.211l0.041,0.079l0.039-0.079
								c0.034-0.064,0.116-0.196,0.128-0.214c0.175-0.328,0.694-0.338,0.751-0.338c0.692,0,0.939-0.436,0.939-0.436
								c0.329-0.482,0.021-1.034,0.019-1.037C12.333,8.748,12.358,8.435,12.367,8.368z M12.096,8.363L11.19,9.012l0.347,1.024
								l-0.869-0.659l-0.868,0.659l0.346-1.024L9.24,8.364L9.236,8.362h1.117l0.314-1.037l0.314,1.037h1.117L12.096,8.363z"/>
							<g>
								<path fill="none" d="M7.637,13.36c0.492,0.507,1.209,0.226,1.209,0.226c0.114-0.017,0.173-0.368,0.203-0.641
									c-0.429-0.055-0.844-0.132-1.243-0.234C7.672,13.043,7.637,13.36,7.637,13.36z"/>
								<path fill="none" d="M7.506,11.217c-0.017-0.013-0.032-0.03-0.055-0.034c-0.063-0.011-0.106,0.042-0.178,0.027
									c-0.064-0.013-0.567-0.402-0.604-0.426c-0.109-0.074-0.287-0.175-0.367-0.287c-0.054-0.075-0.011-0.172-0.022-0.265
									c-0.007-0.068-0.088-0.228-0.227-0.273c-0.032,0.16-0.243,0.727-0.929,0.87c-0.094,0.368,0.053,1.083,0.137,1.172
									c0.064,0.01,0.122,0.043,0.175,0.085c0.006-0.142,0.045-0.235,0.045-0.235c0.191-0.39,0.639-0.268,0.639-0.268
									c0.157,0.048,0.19,0.187,0.19,0.187c0.061,0.309-0.195,0.335-0.195,0.335c-0.184,0.009-0.187-0.14-0.187-0.14
									c-0.023-0.144,0.182-0.151,0.182-0.151c-0.173-0.302-0.716,0.194-0.36,0.63c0.037,0.044,0.07,0.015,0.07,0.015
									c1.07-0.53,1.244-0.755,1.244-0.755c0.227-0.202,0.399-0.327,0.531-0.415C7.542,11.253,7.506,11.217,7.506,11.217z"/>
								<path fill="none" d="M12.571,6.944c0.018,0.015,0.04,0.032,0.064,0.051C12.612,6.976,12.589,6.958,12.571,6.944z"/>
								<path fill="none" d="M12.916,7.211C12.88,7.184,12.84,7.154,12.8,7.123C12.842,7.155,12.879,7.184,12.916,7.211
									L12.916,7.211z"/>
								<path fill="none" d="M12.673,7.024c0.036,0.028,0.068,0.053,0.107,0.083C12.743,7.079,12.707,7.051,12.673,7.024z"/>
								<path fill="none" d="M7.425,13.175c0.034-0.041,0.078-0.229,0.078-0.229c0.026-0.106,0.064-0.193,0.102-0.282
									c-0.116-0.033-0.228-0.073-0.342-0.11C7.274,12.906,7.425,13.175,7.425,13.175z"/>
								<path fill="none" d="M12.474,12.946c0.029,0.272,0.089,0.623,0.203,0.64c0,0,0.716,0.281,1.208-0.226
									c0,0-0.035-0.317-0.168-0.647C13.319,12.815,12.903,12.891,12.474,12.946z"/>
								<path fill="none" d="M14.019,12.947c0,0,0.045,0.188,0.078,0.229c0,0,0.15-0.268,0.162-0.618
									c-0.114,0.037-0.226,0.076-0.341,0.109C13.955,12.754,13.993,12.841,14.019,12.947z"/>
								<path fill="none" d="M8.691,11.966c-0.231,0.004-0.412,0.095-0.554,0.228c0.269,0.062,0.584,0.119,0.932,0.168
									C9.011,11.962,8.691,11.966,8.691,11.966z"/>
								<path fill="none" d="M13.57,12.149c0.215-0.054,0.409-0.107,0.56-0.155c-0.032-0.061-0.064-0.121-0.111-0.181
									c0,0-0.607-0.736-1.695-0.322c-0.023,0.007,0.048,0.183,0.347,0.249C12.71,11.749,13.18,11.78,13.57,12.149z"/>
								<path fill="none" d="M12.831,11.966c0,0-0.32-0.005-0.379,0.397c0.349-0.049,0.664-0.106,0.933-0.168
									C13.244,12.061,13.063,11.97,12.831,11.966z"/>
								<path fill="none" d="M9.776,11.712c-0.077-0.106-0.191-0.11-0.191-0.11c-0.157-0.002-0.189,0.365-0.235,0.798
									c0.333,0.038,0.705,0.061,1.099,0.072C10.281,12.128,9.912,11.901,9.776,11.712z"/>
								<path fill="none" d="M7.503,11.813c-0.047,0.059-0.078,0.119-0.11,0.179c0.152,0.048,0.346,0.102,0.561,0.156
									c0.39-0.369,0.859-0.4,0.898-0.408c0.299-0.066,0.369-0.242,0.347-0.249C8.11,11.077,7.503,11.813,7.503,11.813z"/>
								<path fill="none" d="M11.937,11.602c0,0-0.114,0.004-0.191,0.11c-0.137,0.189-0.505,0.416-0.673,0.76
									c0.394-0.01,0.766-0.033,1.099-0.071C12.126,11.967,12.094,11.601,11.937,11.602z"/>
								<path fill="#FFFFFF" d="M18.425,12.671c-0.114-0.138-0.414-0.069-0.414-0.069c0.162-0.482-0.283-0.61-0.283-0.61
									c-0.159-0.042-0.264-0.012-0.332,0.034c0,0-0.003,0.002-0.005,0.003c-0.001,0.001-0.003,0.002-0.003,0.003
									c-0.012,0.008-0.022,0.016-0.032,0.026c-0.04,0.042-0.065,0.099-0.065,0.16c0,0.127,0.104,0.231,0.232,0.231
									c0.049,0,0.095-0.016,0.133-0.042c0.046-0.033,0.079-0.082,0.092-0.137c0.062,0.039,0.085,0.108,0.085,0.108
									c0.13,0.41-0.332,0.558-0.332,0.558c-1.019,0.306-1.643-0.22-1.643-0.22l0.178-0.095c0.061-0.027,0.117-0.035,0.161-0.035
									c-0.002,0.008-0.003,0.019-0.003,0.03c0,0.11,0.091,0.2,0.202,0.2c0.111,0,0.202-0.09,0.202-0.2
									c-0.001-0.083-0.041-0.124-0.041-0.124c-0.119-0.18-0.531-0.061-0.531-0.061c0.137-0.338,0.015-0.581,0.015-0.581
									c-0.19-0.39-0.639-0.268-0.639-0.268c-0.157,0.048-0.189,0.187-0.189,0.187c-0.061,0.309,0.195,0.335,0.195,0.335
									c0.184,0.009,0.186-0.14,0.186-0.14c0.024-0.144-0.18-0.151-0.18-0.151c0.172-0.302,0.714,0.194,0.359,0.63
									c-0.037,0.044-0.071,0.015-0.071,0.015c-0.635-0.314-0.95-0.519-1.104-0.636c-0.015-0.173-0.166-0.26-0.137-0.306
									c0.025-0.01,0.115,0.035,0.165-0.04c0.018-0.027,0.06-0.301,0.094-0.495c0.562,0.257,1.041,0.178,1.137,0.147
									c0.049-0.02,0.089-0.055,0.09-0.129c0.009-0.214-0.545-1.472-0.56-1.916c0.262,0.13,0.424-0.274,0.471-0.398
									c0.352,0.161,0.473,3.425,0.744,3.535c0.135,0.055,0.189-0.167,0.201-0.208c0.435-1.455,0.45-2.872,0.422-3.347
									c-0.044-0.745-0.104-1.411-0.283-2.024c-0.11-0.377-0.323-1.147-0.821-1.252c-0.233-0.049-0.41,0.168-0.406,0.363
									c0.004,0.169,0.12,0.251,0.069,0.417c-0.062,0.108-0.125,0.227-0.155,0.348c-0.03,0.121,0.078,0.171,0.043,0.3
									c-0.157-0.024-0.236,0.114-0.484,0.051c0.161-0.075,0.164-0.535-0.034-0.614c-0.03-0.012-0.063-0.017-0.069-0.043
									c0,0,0.064-0.068,0.096-0.134c0.114-0.233,0.113-0.438,0.023-0.593c0.082,0.007,0.167-0.143,0.179-0.263l0.002,0.001
									c0-0.001,0-0.007,0-0.01V5.213c0.002-0.032-0.004-0.137,0.044-0.235c0.015-0.032,0-0.069-0.027-0.083
									c-0.028-0.013-0.066-0.001-0.082,0.031c-0.049,0.103-0.165,0.046-0.116-0.058c0.015-0.033,0-0.069-0.028-0.083
									c-0.027-0.013-0.065-0.003-0.08,0.03c-0.047,0.099-0.16,0.044-0.113-0.056c0.015-0.032,0.001-0.069-0.027-0.082
									c-0.027-0.013-0.065-0.002-0.081,0.031c-0.048,0.102-0.166,0.045-0.117-0.056c0.015-0.034,0-0.07-0.027-0.084
									C14.7,4.557,14.663,4.567,14.647,4.6c-0.052,0.108-0.088,0.153-0.142,0.197c-0.11,0.02-0.081,0.146-0.068,0.232
									c-0.206-0.045-0.361,0.112-0.367,0.253h-0.023c-0.17,0.004-0.333,0.092-0.32,0.249c0.006,0.089,0.11,0.2,0.15,0.201
									c0.018-0.006-0.009-0.095,0.079-0.1c0.081-0.005,0.201,0.064,0.216,0.141c0.018,0.087-0.054,0.298,0.224,0.329
									c0,0-0.002,0.043-0.006,0.088c-0.1-0.007-0.125-0.012-0.225,0.003c-0.175,0.028-0.416,0.127-0.475,0.301
									c-0.011,0.029-0.016,0.09-0.011,0.132c0.004,0.036,0.037,0.08,0.032,0.124c-0.003,0.021-0.04,0.065-0.055,0.079
									c-0.073,0.077-0.209,0.15-0.329,0.156c-0.133,0.007-0.262-0.079-0.314-0.15c-0.177-0.237,0.052-0.648,0.049-0.802
									c-0.01-0.408-0.525-0.165-0.729-0.059c-0.243,0.128-0.437,0.333-0.6,0.535c-0.09,0.111-0.19,0.25-0.24,0.368
									c-0.009,0.022-0.029,0.025-0.05,0.025c0.104,0.047,0.288,0.116,0.434,0.117c0,0,0.284,0.039,0.488-0.131
									c0,0,0.029-0.025,0.07-0.025c0.029,0,0.055,0.013,0.078,0.033c0.002,0.003,0.028,0.024,0.059,0.048
									c0.018,0.015,0.041,0.032,0.064,0.051c0.012,0.009,0.024,0.019,0.037,0.029c0.034,0.027,0.07,0.055,0.107,0.083
									c0.007,0.005,0.013,0.01,0.02,0.016c0.04,0.031,0.08,0.061,0.115,0.088l0,0c0.042,0.031,0.082,0.061,0.105,0.077
									l0.002,0.002c0.004,0.003,0.014,0.013,0.018,0.029c0.001,0.015-0.006,0.034-0.02,0.051
									c-0.001,0.001-0.022,0.025-0.055,0.066c-0.068,0.086-0.183,0.256-0.271,0.464c0.096,0.167,0.258,0.367,0.489,0.369
									c0.185,0.002,0.261-0.091,0.288-0.209c0.003,0.003,0.013,0.015,0.015,0.016c0.022-0.02,0.124,0.532,0.259,0.682
									c-0.126,0.059-0.321,0.257-0.215,0.801c-0.104-0.083-0.295-0.228-0.386-0.322c-0.055-0.113-0.162-0.379-0.47-0.405
									c0.045,0.137,0.109,0.291,0.208,0.461c0.002,0.005,0.19,0.351,0.131,0.743c0.129-0.132,0.109-0.496,0.109-0.496
									c0.005-0.005,0.023-0.01,0.029-0.012c0.026-0.002,0.156,0.251,0.379,0.303c0.291,0.498,0.619,0.813,0.935,1.013
									c-0.006,0.12,0.009,0.407-0.069,0.407c-0.249,0.055-0.478-0.113-0.698-0.101c-0.019-0.009-0.038-0.018-0.038-0.018
									c-0.944-0.455-2.188,0.521-2.395,0.71c-0.109,0.101-0.236-0.037-0.236-0.037c-0.074-0.094-0.172-0.136-0.268-0.125
									c-0.095-0.011-0.193,0.031-0.267,0.125c0,0-0.127,0.137-0.236,0.037c-0.196-0.179-1.324-1.052-2.245-0.755
									c-0.002-0.05-0.127-0.076-0.161-0.089c-0.073-0.021-0.137-0.078-0.183-0.101c-0.1-0.05-0.264-0.019-0.378-0.033
									c-0.044-0.007-0.107-0.03-0.146-0.054c-0.148-0.091-0.316-0.202-0.41-0.335c-0.015-0.022-0.052-0.072-0.059-0.081
									c-0.046-0.057-0.068-0.1-0.103-0.195c-0.05-0.182,0.028-0.377,0.055-0.561c0.02-0.136,0.015-0.145,0.027-0.292
									c0.585-0.201,0.824-0.64,0.961-0.874C7.626,8.455,7.663,8.38,7.663,8.38c0.026,0.004,0.052,0.006,0.08,0.007
									C7.977,8.389,8.134,8.258,8.39,8.289c0,0.014,0.034,0.122,0.2,0.19c0.005,0.168,0.017,0.306,0.081,0.437
									c0.014,0.023,0.032,0.042,0.044,0.061c0.11-0.27,0.138-0.48,0.142-0.607C8.849,8.359,8.842,8.343,8.838,8.319
									C8.783,8.034,8.65,7.956,8.525,7.884C8.463,7.85,8.395,7.84,8.336,7.797C8.245,7.735,8.149,7.668,8.088,7.551
									c0,0,0.03-0.028,0.062-0.068C8.314,7.311,8.395,7.06,8.455,6.784C8.58,6.613,8.928,6.68,9.06,6.704
									c0.034,0.004,0.092,0.017,0.119,0.038c0.037,0.026,0.046,0.085,0.098,0.107c0.055,0.023,0.117,0.006,0.183,0
									C9.484,6.876,9.497,6.915,9.515,6.95c0,0,0.018,0.032,0.053,0.069c0.162-0.003,0.381-0.089,0.472-0.135
									c-0.011-0.007-0.02-0.014-0.025-0.021C9.94,6.768,9.831,6.666,9.729,6.649c-0.129-0.021-0.157-0.137-0.28-0.162
									C9.417,6.479,9.307,6.463,9.27,6.476C8.996,6.512,8.802,6.408,8.546,6.39c-0.244-0.017-0.251,0.149-0.34,0.286
									C8.173,6.728,8.134,6.788,8.094,6.827C8.027,6.892,7.949,6.894,7.867,6.956L7.83,6.854C7.807,6.77,7.776,6.683,7.72,6.6
									C7.588,6.393,7.437,6.232,7.143,6.164C7.087,6.141,7.078,6.138,7.041,6.108c-0.048-0.037-0.014-0.082,0-0.086
									c0.084-0.048,0.228-0.031,0.323-0.075c0.234-0.109,0.151-0.308,0.06-0.324C7.307,5.601,7.093,5.545,7.052,5.52
									C6.995,5.484,6.896,5.306,6.803,5.262C6.7,5.234,6.736,5.066,6.641,5.029C6.6,5.022,6.54,5.043,6.473,5.076
									C6.469,5.041,6.444,4.85,6.339,4.788C6.26,4.743,6.231,4.813,6.235,4.858C6.239,4.899,6.35,4.955,6.371,5.135
									C6.352,5.148,6.334,5.158,6.314,5.172c-0.015-0.074-0.048-0.19-0.125-0.235c-0.079-0.045-0.107,0.025-0.103,0.07
									c0.004,0.039,0.101,0.09,0.132,0.242C6.195,5.268,6.173,5.287,6.151,5.307c-0.158-0.043-0.2-0.15-0.239-0.157
									c-0.044-0.01-0.116,0.013-0.08,0.096c0.038,0.083,0.157,0.129,0.229,0.15C6.044,5.413,6.031,5.43,6.017,5.447
									C5.834,5.411,5.79,5.292,5.749,5.282c-0.045-0.008-0.117,0.014-0.08,0.096c0.053,0.116,0.26,0.161,0.279,0.165
									c-0.03,0.049-0.049,0.095-0.042,0.127C5.765,5.654,5.512,5.73,5.56,5.898c0.047,0.034,0.215-0.103,0.369-0.027
									c0.102,0.158,0.265,0.165,0.302,0.194c0.057,0.045,0.066,0.126,0.092,0.2c0.046,0.137,0.141,0.246,0.221,0.367
									c0.087,0.133,0.178,0.272,0.27,0.388C6.826,7.052,6.836,7.085,6.83,7.135c-0.104,0.166-0.417,0.36-0.545,0.48
									C6.156,7.736,4.933,8.667,4.779,9.073C4.745,9.164,4.725,9.28,4.73,9.401c-0.075,0.04-0.239,0.105-0.29,0.031
									C4.346,9.302,4.53,9.202,4.49,9.075C4.47,9.026,4.399,8.994,4.354,9.026C4.05,9.245,4.207,9.632,4.399,9.72
									c0.212,0.088,0.242-0.14,0.406-0.048c0.039,0.022,0.427,0.369,0.362,0.643c-0.004,0.014-0.019,0.054-0.027,0.064
									c-0.085,0.106-0.227,0.187-0.324,0.286c-0.202,0.128,0.192,0.933,0.159,1.346c-0.023,0.157,0.131,0.139,0.224,0.384
									c-0.096,0.003-0.19,0.027-0.237,0.098c0,0-0.04,0.041-0.04,0.124c0,0.11,0.09,0.2,0.201,0.2c0.111,0,0.202-0.09,0.202-0.2
									c0-0.011-0.001-0.022-0.002-0.03c0.044,0,0.101,0.008,0.162,0.035l0.178,0.095c0,0-0.624,0.526-1.642,0.22
									c0,0-0.462-0.147-0.333-0.558c0,0,0.023-0.069,0.085-0.108c0.012,0.056,0.046,0.105,0.092,0.137
									c0.038,0.026,0.084,0.042,0.133,0.042c0.127,0,0.231-0.104,0.231-0.231c0-0.062-0.024-0.118-0.064-0.16
									c-0.01-0.01-0.02-0.017-0.032-0.026c0-0.001-0.001-0.002-0.001-0.002c-0.004-0.003-0.005-0.004-0.005-0.004
									c-0.07-0.047-0.174-0.077-0.334-0.035c0,0-0.445,0.128-0.283,0.61c0,0-0.3-0.068-0.414,0.069c0,0-0.039,0.044-0.036,0.114
									v0.002v0.002c0.003,0.028,0.011,0.061,0.032,0.098c0.031,0.045,0.084,0.075,0.143,0.075c0.055,0,0.103-0.026,0.136-0.065
									c0-0.002,0.001-0.002,0.001-0.002c0.012-0.016,0.049-0.037,0.103,0.02c0.675,0.704,1.777,0.414,2.388-0.058
									c0,0,0.338-0.341,0.716-0.549c0.147,0.063,0.303,0.11,0.455,0.165c-0.011,0.219,0.034,0.533,0.279,0.898
									c0,0-0.172,0.319-0.463,0.143c0,0-0.215-0.165-0.032-0.365c0,0,0.122-0.102,0.175,0.026
									c-0.062,0.004-0.113,0.055-0.113,0.118c0,0.066,0.052,0.118,0.118,0.118c0.064,0,0.114-0.049,0.118-0.111
									c0.006-0.048,0.009-0.17-0.096-0.259c0,0-0.093-0.101-0.268-0.073c-0.256,0.04-0.401,0.576,0.105,0.798
									c0,0,0.398,0.181,0.603-0.116c0,0-0.003-0.043,0.074,0.031c0.421,0.408,1.361,0.29,1.735,0.012c0,0,0.095-0.06,0.198-0.109
									c0.005,0.157,0.133,0.286,0.293,0.286c0.161,0,0.292-0.132,0.292-0.294c0-0.144-0.104-0.264-0.242-0.288
									c-0.006-0.002-0.193-0.055-0.466,0.11c0,0-0.288,0.181-0.272,0.153C9.17,13.4,9.23,13.194,9.272,12.974
									c0.41,0.045,0.831,0.075,1.267,0.085c-0.005,0.127-0.023,0.282-0.072,0.4c0,0-0.154,0.064-0.157,0.172
									c0,0-0.017,0.079,0.12,0.189c0,0,0.1,0.111,0.129,0.196c0,0,0.008,0.119,0.172,0.119c0.012,0,0.022-0.001,0.031-0.003
									c0.01,0.002,0.021,0.003,0.032,0.003c0.164,0,0.172-0.119,0.172-0.119c0.029-0.085,0.128-0.196,0.128-0.196
									c0.137-0.11,0.12-0.189,0.12-0.189c-0.003-0.108-0.158-0.172-0.158-0.172c-0.049-0.118-0.066-0.273-0.071-0.4
									c0.436-0.009,0.857-0.039,1.267-0.084c0.042,0.22,0.102,0.426,0.199,0.578c0.017,0.028-0.271-0.153-0.271-0.153
									c-0.273-0.165-0.461-0.112-0.468-0.11c-0.137,0.025-0.241,0.144-0.241,0.288c0,0.161,0.131,0.294,0.292,0.294
									c0.16,0,0.288-0.129,0.292-0.286c0.104,0.049,0.199,0.109,0.199,0.109c0.372,0.278,1.314,0.396,1.735-0.012
									c0.077-0.074,0.073-0.031,0.073-0.031c0.205,0.297,0.604,0.116,0.604,0.116c0.505-0.222,0.36-0.758,0.105-0.798
									c-0.175-0.028-0.269,0.073-0.269,0.073c-0.104,0.089-0.102,0.211-0.096,0.259c0.003,0.062,0.054,0.111,0.117,0.111
									c0.065,0,0.118-0.052,0.118-0.118c0-0.064-0.051-0.115-0.113-0.118c0.052-0.128,0.175-0.026,0.175-0.026
									c0.183,0.2-0.033,0.365-0.033,0.365c-0.291,0.175-0.463-0.143-0.463-0.143c0.244-0.364,0.29-0.677,0.279-0.896
									c0.153-0.055,0.309-0.102,0.456-0.166c0.377,0.209,0.714,0.549,0.714,0.549c0.611,0.472,1.712,0.762,2.388,0.058
									c0.054-0.056,0.091-0.035,0.103-0.02c0,0,0.001,0,0.001,0.002c0.032,0.039,0.081,0.065,0.136,0.065
									c0.059,0,0.111-0.03,0.143-0.075c0.021-0.037,0.029-0.07,0.032-0.098v-0.001v-0.004
									C18.464,12.715,18.425,12.671,18.425,12.671z M5.818,12.459c0,0-0.034,0.029-0.07-0.015c-0.356-0.437,0.187-0.933,0.36-0.63
									c0,0-0.204,0.007-0.182,0.151c0,0,0.004,0.149,0.187,0.14c0,0,0.256-0.026,0.195-0.335c0,0-0.033-0.139-0.19-0.187
									c0,0-0.448-0.122-0.639,0.268c0,0-0.039,0.093-0.045,0.235c-0.052-0.042-0.111-0.075-0.175-0.085
									c-0.084-0.088-0.23-0.804-0.137-1.172c0.686-0.143,0.897-0.71,0.929-0.87c0.139,0.046,0.22,0.206,0.227,0.273
									c0.011,0.093-0.032,0.189,0.022,0.265c0.08,0.111,0.258,0.213,0.367,0.287c0.037,0.024,0.54,0.413,0.604,0.426
									c0.072,0.015,0.116-0.038,0.178-0.027c0.022,0.005,0.038,0.021,0.055,0.034c0,0,0.036,0.036,0.087,0.073
									c-0.132,0.087-0.304,0.213-0.531,0.415C7.062,11.704,6.888,11.929,5.818,12.459z M7.503,12.947c0,0-0.044,0.188-0.078,0.229
									c0,0-0.151-0.27-0.163-0.62c0.114,0.037,0.226,0.077,0.342,0.11C7.567,12.753,7.529,12.84,7.503,12.947z M8.845,13.586
									c0,0-0.716,0.281-1.209-0.226c0,0,0.035-0.317,0.168-0.649c0.399,0.102,0.814,0.178,1.243,0.234
									C9.019,13.218,8.959,13.569,8.845,13.586z M8.137,12.194c0.142-0.133,0.323-0.224,0.554-0.228c0,0,0.32-0.004,0.378,0.396
									C8.721,12.313,8.406,12.256,8.137,12.194z M8.851,11.74c-0.039,0.008-0.508,0.04-0.898,0.408
									c-0.215-0.054-0.409-0.108-0.561-0.156c0.032-0.06,0.063-0.121,0.11-0.179c0,0,0.607-0.736,1.696-0.322
									C9.22,11.499,9.151,11.674,8.851,11.74z M9.35,12.401c0.046-0.434,0.078-0.8,0.235-0.798c0,0,0.113,0.004,0.191,0.11
									c0.136,0.189,0.504,0.416,0.673,0.76C10.056,12.462,9.684,12.439,9.35,12.401z M11.072,12.472
									c0.168-0.344,0.536-0.571,0.673-0.76c0.077-0.106,0.191-0.11,0.191-0.11c0.158-0.002,0.19,0.365,0.235,0.799
									C11.838,12.44,11.466,12.462,11.072,12.472z M12.324,11.491c1.089-0.414,1.695,0.322,1.695,0.322
									c0.047,0.06,0.079,0.12,0.111,0.181c-0.152,0.048-0.345,0.101-0.56,0.155c-0.39-0.37-0.86-0.401-0.899-0.409
									C12.372,11.674,12.301,11.499,12.324,11.491z M12.831,11.966c0.231,0.004,0.413,0.095,0.555,0.229
									c-0.269,0.062-0.585,0.119-0.933,0.168C12.511,11.961,12.831,11.966,12.831,11.966z M12.677,13.586
									c-0.114-0.017-0.173-0.367-0.203-0.64c0.429-0.055,0.844-0.132,1.243-0.233c0.133,0.331,0.168,0.647,0.168,0.647
									C13.393,13.867,12.677,13.586,12.677,13.586z M14.097,13.175c-0.034-0.041-0.078-0.229-0.078-0.229
									c-0.026-0.106-0.064-0.193-0.101-0.28c0.116-0.032,0.228-0.072,0.341-0.109C14.247,12.907,14.097,13.175,14.097,13.175z"/>
							</g>
						</g>
					</g>
				</g>
			</g>
		</g>
		<g>
			<path fill="#FFFFFF" d="M25.265,15.547l-0.056-2.298h-0.016c-0.048,0.29-0.097,0.5-0.133,0.657l-0.387,1.641h-0.778l-0.371-1.641
				c-0.036-0.157-0.085-0.367-0.137-0.657H23.37l-0.036,2.298H22.85l0.105-2.722h0.907c0,0,0.298,1.371,0.456,2.25h0.012
				c0.181-0.875,0.536-2.25,0.536-2.25h0.891l0.105,2.722H25.265z"/>
			<path fill="#FFFFFF" d="M26.478,15.547V13.95l-0.23-0.048v-0.331h0.754v1.976H26.478z M26.462,12.765h0.532v0.48h-0.532V12.765z"
				/>
			<path fill="#FFFFFF" d="M28.708,15.547v-1.173c0-0.298-0.113-0.439-0.355-0.439c-0.137,0-0.254,0.06-0.347,0.121v1.492h-0.528
				v-1.976h0.363l0.081,0.226c0.113-0.133,0.331-0.266,0.625-0.266c0.5,0,0.698,0.294,0.698,0.794v1.222H28.708z"/>
			<path fill="#FFFFFF" d="M29.837,15.547V13.95l-0.23-0.048v-0.331h0.754v1.976H29.837z M29.821,12.765h0.532v0.48h-0.532V12.765z"
				/>
			<path fill="#FFFFFF" d="M31.296,14.091c0,0.307,0.855,0.214,0.855,0.859c0,0.359-0.266,0.637-0.778,0.637
				c-0.238,0-0.46-0.068-0.593-0.145l0.109-0.367c0.093,0.065,0.286,0.137,0.468,0.137c0.173,0,0.29-0.097,0.29-0.218
				c0-0.355-0.843-0.238-0.843-0.911c0-0.29,0.222-0.552,0.754-0.552c0.206,0,0.419,0.04,0.556,0.097l-0.073,0.383
				c-0.133-0.061-0.302-0.101-0.476-0.101C31.385,13.91,31.296,13.978,31.296,14.091z"/>
			<path fill="#FFFFFF" d="M33.296,15.587c-0.351,0-0.581-0.165-0.581-0.661v-0.98h-0.294v-0.375h0.294v-0.343l0.52-0.169v0.512
				h0.528v0.375h-0.528v0.968c0,0.137,0.069,0.226,0.21,0.226c0.109,0,0.222-0.032,0.302-0.073l0.081,0.387
				C33.712,15.522,33.506,15.587,33.296,15.587z"/>
			<path fill="#FFFFFF" d="M34.518,14.7c0,0.315,0.177,0.488,0.508,0.488c0.202,0,0.407-0.077,0.581-0.165l0.101,0.371
				c-0.165,0.089-0.435,0.194-0.746,0.194c-0.609,0-0.972-0.379-0.972-1.032c0-0.609,0.294-1.024,0.927-1.024
				c0.597,0,0.831,0.443,0.831,0.939v0.23H34.518z M34.889,13.918c-0.262,0-0.371,0.238-0.371,0.472h0.722
				C35.24,14.135,35.163,13.918,34.889,13.918z"/>
			<path fill="#FFFFFF" d="M37.268,14.01c-0.065-0.02-0.157-0.032-0.246-0.032c-0.141,0-0.266,0.06-0.355,0.133v1.435h-0.524v-1.976
				h0.367l0.056,0.266h0.012c0.061-0.141,0.238-0.302,0.472-0.302c0.105,0,0.185,0.016,0.23,0.028L37.268,14.01z"/>
			<path fill="#FFFFFF" d="M37.747,15.547V13.95l-0.23-0.048v-0.331h0.754v1.976H37.747z M37.731,12.765h0.532v0.48h-0.532V12.765z"
				/>
			<path fill="#FFFFFF" d="M40.525,14.555c0,0.673-0.339,1.032-0.927,1.032c-0.593,0-0.927-0.355-0.927-1.032
				c0-0.581,0.323-1.024,0.927-1.024C40.195,13.531,40.525,13.974,40.525,14.555z M39.985,14.555c0-0.476-0.141-0.641-0.387-0.641
				c-0.246,0-0.383,0.169-0.383,0.641c0,0.46,0.125,0.645,0.383,0.645C39.856,15.2,39.985,15.026,39.985,14.555z"/>
			<path fill="#FFFFFF" d="M43.086,13.724c-0.032-0.113-0.048-0.214-0.048-0.363v-0.597h0.524v2.782h-0.427l-0.06-0.218
				c-0.081,0.121-0.27,0.258-0.524,0.258c-0.448,0-0.806-0.323-0.806-1.028c0-0.653,0.371-1.028,0.851-1.028
				C42.807,13.531,42.977,13.603,43.086,13.724z M43.037,14.023c-0.081-0.048-0.206-0.097-0.359-0.097
				c-0.25,0-0.407,0.169-0.407,0.629c0,0.472,0.149,0.649,0.399,0.649c0.133,0,0.266-0.065,0.367-0.169V14.023z"/>
			<path fill="#FFFFFF" d="M44.489,14.7c0,0.315,0.177,0.488,0.508,0.488c0.202,0,0.407-0.077,0.581-0.165l0.101,0.371
				c-0.165,0.089-0.436,0.194-0.746,0.194c-0.609,0-0.972-0.379-0.972-1.032c0-0.609,0.294-1.024,0.927-1.024
				c0.597,0,0.831,0.443,0.831,0.939v0.23H44.489z M44.86,13.918c-0.262,0-0.371,0.238-0.371,0.472h0.722
				C45.21,14.135,45.134,13.918,44.86,13.918z"/>
			<path fill="#FFFFFF" d="M22.902,19.424v-2.722h1.673v0.448H23.43v0.669h0.875l-0.04,0.468H23.43v0.698h1.145v0.439H22.902z"/>
			<path fill="#FFFFFF" d="M26.204,19.424V18.25c0-0.298-0.113-0.439-0.355-0.439c-0.137,0-0.254,0.06-0.347,0.121v1.492h-0.528
				v-1.976h0.363l0.081,0.226c0.113-0.133,0.331-0.266,0.625-0.266c0.5,0,0.698,0.294,0.698,0.794v1.222H26.204z"/>
			<path fill="#FFFFFF" d="M27.623,18.577c0,0.315,0.177,0.488,0.508,0.488c0.202,0,0.407-0.077,0.581-0.165l0.101,0.371
				c-0.165,0.089-0.435,0.194-0.746,0.194c-0.609,0-0.972-0.379-0.972-1.032c0-0.609,0.294-1.024,0.927-1.024
				c0.597,0,0.831,0.443,0.831,0.939v0.23H27.623z M27.994,17.795c-0.262,0-0.371,0.238-0.371,0.472h0.722
				C28.345,18.012,28.269,17.795,27.994,17.795z"/>
			<path fill="#FFFFFF" d="M30.373,17.887c-0.065-0.02-0.157-0.032-0.246-0.032c-0.141,0-0.266,0.06-0.355,0.133v1.435h-0.524
				v-1.976h0.367l0.056,0.266h0.012c0.06-0.141,0.238-0.302,0.472-0.302c0.105,0,0.185,0.016,0.23,0.028L30.373,17.887z"/>
			<path fill="#FFFFFF" d="M32.421,17.448l-0.008,0.391c-0.093-0.004-0.238-0.024-0.371-0.068c0.089,0.081,0.181,0.181,0.198,0.31
				c0,0.484-0.48,0.677-0.814,0.677c-0.077,0-0.169-0.016-0.254-0.036c-0.06,0.02-0.097,0.056-0.097,0.109
				c0,0.214,1.254-0.036,1.254,0.706c0,0.464-0.444,0.718-0.939,0.718c-0.415,0-0.835-0.181-0.835-0.544
				c0-0.254,0.202-0.387,0.524-0.435c-0.246-0.028-0.492-0.105-0.492-0.335c0-0.165,0.153-0.286,0.375-0.302
				c-0.198-0.109-0.355-0.274-0.355-0.556c0-0.524,0.496-0.673,0.815-0.673C31.635,17.408,32.079,17.444,32.421,17.448z
				 M31.345,19.311c-0.185,0.016-0.302,0.121-0.302,0.29c0,0.173,0.157,0.298,0.371,0.298c0.238,0,0.395-0.121,0.395-0.327
				C31.809,19.399,31.655,19.335,31.345,19.311z M31.772,18.077c0-0.234-0.198-0.294-0.351-0.294c-0.153,0-0.355,0.06-0.355,0.294
				c0,0.25,0.19,0.31,0.355,0.31C31.583,18.387,31.772,18.327,31.772,18.077z"/>
			<path fill="#FFFFFF" d="M32.639,17.141l-0.052-0.302l1.02-0.286l0.069,0.387L32.639,17.141z M32.925,19.424v-1.597l-0.23-0.048
				v-0.331h0.754v1.976H32.925z"/>
			<path fill="#FFFFFF" d="M35.155,19.424l-0.073-0.234c-0.101,0.137-0.298,0.274-0.577,0.274c-0.395,0-0.661-0.254-0.661-0.633
				c0-0.367,0.27-0.585,0.746-0.585h0.415v-0.101c0-0.254-0.145-0.335-0.347-0.335c-0.234,0-0.431,0.06-0.593,0.133l-0.133-0.375
				c0.198-0.085,0.468-0.161,0.778-0.161c0.56,0,0.802,0.258,0.802,0.762v1.254H35.155z M35.006,18.561h-0.327
				c-0.218,0-0.319,0.105-0.319,0.254c0,0.181,0.097,0.29,0.294,0.29c0.125,0,0.254-0.056,0.351-0.133V18.561z"/>
		</g>
		<g>
			<path fill="#FFFFFF" d="M24.812,8.757c-1.441,0-2.215-0.956-2.215-2.662c0-1.593,0.766-2.609,2.215-2.609
				c0.698,0,1.327,0.152,1.744,0.432l-0.379,0.804c-0.265-0.205-0.728-0.356-1.259-0.356c-0.849,0-1.274,0.599-1.274,1.722
				c0,1.183,0.425,1.79,1.259,1.79c0.501,0,1.001-0.212,1.35-0.47l0.318,0.804C26.064,8.559,25.487,8.757,24.812,8.757z"/>
			<path fill="#FFFFFF" d="M29.175,8.757c-1.441,0-2.215-0.956-2.215-2.662c0-1.593,0.766-2.609,2.215-2.609
				c0.698,0,1.327,0.152,1.744,0.432l-0.379,0.804c-0.265-0.205-0.728-0.356-1.259-0.356c-0.849,0-1.274,0.599-1.274,1.722
				c0,1.183,0.425,1.79,1.259,1.79c0.501,0,1.001-0.212,1.35-0.47l0.319,0.804C30.427,8.559,29.85,8.757,29.175,8.757z"/>
			<path fill="#FFFFFF" d="M34.563,8.681V6.557h-1.896v2.123h-1.001V3.561h1.001v2.093h1.896V3.561h1.009v5.119H34.563z"/>
			<path fill="#FFFFFF" d="M36.575,8.681V3.561h3.148v0.842h-2.154v1.259h1.646l-0.076,0.88h-1.57v1.312h2.154v0.827H36.575z"/>
			<path fill="#FFFFFF" d="M42.993,8.681l-1.593-4.027h-0.03l0.068,4.027h-0.895V3.561h1.524l1.616,4.111h0.03l-0.068-4.111h0.918
				v5.119H42.993z"/>
		</g>
	</g>
</g>
<g id="Capa_10" display="none">
	<g id="Symbols_6_" display="inline">
		<g id="Header_2_" transform="translate(-750.000000, -18.000000)">
			<g id="Group-4_2_" transform="translate(750.000000, 18.000000)">
				<g id="Group-5">
					<g id="Group-13_2_">
						<rect id="Rectangle" x="-71.157" y="-74.585" fill="none" stroke="#FFFFFF" width="35" height="32.366"/>
					</g>
					<g id="Group-7" transform="translate(10.536585, 8.780488)">
						<rect id="Rectangle_1_" x="-71.157" y="-74.585" fill="none" stroke="#FFFFFF" width="14.805" height="14.805"/>
						<rect id="Rectangle_2_" x="-71.657" y="-75.085" fill="#FFFFFF" width="8.621" height="15.805"/>
					</g>
				</g>
			</g>
		</g>
	</g>
	<g id="Symbols_7_" display="inline">
		<g id="Header_3_" transform="translate(-750.000000, -18.000000)">
			<g id="Group-4_3_" transform="translate(750.000000, 18.000000)">
				<g id="Group-5_1_">
					<g id="Group-13_3_">
						<path fill="#FFFFFF" d="M50,47.979H0V1.637h50V47.979z M1.389,46.59h47.222V3.026H1.389V46.59z"/>
					</g>
					<g id="Group-7_1_" transform="translate(10.536585, 8.780488)">
						<path fill="#FFFFFF" d="M26.048,27.003H4.098V5.052h21.95V27.003z M5.486,25.615h19.172V6.441H5.486V25.615z"/>
						<rect id="Rectangle_3_" x="4.097" y="5.052" fill="#FFFFFF" width="11.973" height="21.951"/>
					</g>
				</g>
			</g>
		</g>
	</g>
</g>
</svg>
