<?xml version="1.0" encoding="UTF-8"?>
<svg width="47px" height="47px" viewBox="0 0 47 47" version="1.1" xmlns="http://www.w3.org/2000/svg" xmlns:xlink="http://www.w3.org/1999/xlink">
    <!-- Generator: Sketch 52.5 (67469) - http://www.bohemiancoding.com/sketch -->
    <title>Group 12</title>
    <desc>Created with Sketch.</desc>
    <g id="Symbols" stroke="none" stroke-width="1" fill="none" fill-rule="evenodd">
        <g id="Descarga-Noticias" transform="translate(-344.000000, -76.000000)">
            <g id="Group-6" transform="translate(344.000000, 76.000000)">
                <g id="Group-5">
                    <g id="Group-12">
                        <circle id="Oval" fill="#0F69B4" cx="23.5" cy="23.5" r="23.5"></circle>
                        <path d="M13,13.4551106 C13,11.5467323 14.5220811,10 16.4000445,10 L29.9892724,10 C31.8617607,10 33.3893169,11.5522961 33.3893169,13.4551106 L33.3893169,24.6160637 C33.3893169,26.5188783 31.8617607,28.0711744 29.9892724,28.0711744 L27.7882774,28.0711744 C27.4159698,28.0711744 27.1148386,27.7651662 27.1148386,27.3868288 C27.1148386,27.0084914 27.4159698,26.7024832 27.7882774,26.7024832 L29.9892724,26.7024832 C31.1226205,26.7024832 32.0479145,25.7622035 32.0479145,24.6105 L32.0479145,13.443983 C32.0479145,12.2922795 31.1226205,11.3519998 29.9892724,11.3519998 L16.4000445,11.3519998 C15.2666963,11.3519998 14.3414024,12.2922795 14.3414024,13.443983 L14.3414024,24.6049362 C14.3414024,25.7566397 15.2666963,26.6969194 16.4000445,26.6969194 L18.6010395,26.6969194 C18.9733471,26.6969194 19.2744783,27.0029276 19.2744783,27.381265 C19.2744783,27.7596024 18.9733471,28.0656106 18.6010395,28.0656106 L16.4000445,28.0656106 C14.5275562,28.0656106 13,26.5133145 13,24.6105 L13,13.4551106 Z" id="Shape" fill="#FFFFFF" fill-rule="nonzero"></path>
                        <path d="M28.3424865,31.9647393 C28.6052918,32.231801 28.6052918,32.6602125 28.3315362,32.9217104 L23.7379173,37.5897262 C23.4860622,37.8456603 23.0425781,37.8456603 22.790723,37.5897262 L18.197104,32.9217104 C17.9342987,32.6546487 17.9342987,32.2262372 18.197104,31.9591755 C18.3285067,31.8256447 18.4982352,31.7588793 18.6734388,31.7588793 C18.8486424,31.7588793 19.0183708,31.8256447 19.1497735,31.9591755 L22.599094,35.4643602 L22.599094,22.6843456 C22.599094,22.3060082 22.9002252,22 23.2725328,22 C23.6448404,22 23.9459716,22.3060082 23.9459716,22.6843456 L23.9459716,35.469924 L27.3952921,31.9647393 C27.6580975,31.6976776 28.0796811,31.6976776 28.3424865,31.9647393 Z" id="Shape" fill="#FFFFFF" fill-rule="nonzero"></path>
                    </g>
                </g>
            </g>
        </g>
    </g>
</svg>