<?xml version="1.0" encoding="UTF-8"?>
<svg width="141px" height="127px" viewBox="0 0 141 127" version="1.1" xmlns="http://www.w3.org/2000/svg" xmlns:xlink="http://www.w3.org/1999/xlink">
    <!-- Generator: Sketch 52.5 (67469) - http://www.bohemiancoding.com/sketch -->
    <title>Formato documento/ DOC</title>
    <desc>Created with Sketch.</desc>
    <g id="Formato-documento/-DOC" stroke="none" stroke-width="1" fill="none" fill-rule="evenodd">
        <rect id="Rectangle" fill="#F9F7F7" fill-rule="nonzero" x="0" y="0" width="141" height="127"></rect>
        <g id="doc" transform="translate(29.000000, 14.000000)">
            <path d="M17.7857143,0 C14.525,0 11.8571429,2.66785714 11.8571429,5.92857143 L11.8571429,88.9285714 C11.8571429,92.1892857 14.525,94.8571429 17.7857143,94.8571429 L77.0714286,94.8571429 C80.3321429,94.8571429 83,92.1892857 83,88.9285714 L83,23.7142857 L59.2857143,0 L17.7857143,0 Z" id="Path" fill="#E2E5E7"></path>
            <path d="M65.2142857,23.7142857 L83,23.7142857 L59.2857143,0 L59.2857143,17.7857143 C59.2857143,21.0464286 61.9535714,23.7142857 65.2142857,23.7142857 Z" id="Path" fill="#B0B7BD"></path>
            <polygon id="Path" fill="#CAD1D8" points="83 41.5 65.2142857 23.7142857 83 23.7142857"></polygon>
            <path d="M71.1428571,77.0714286 C71.1428571,78.7017857 69.8089286,80.0357143 68.1785714,80.0357143 L2.96428571,80.0357143 C1.33392857,80.0357143 0,78.7017857 0,77.0714286 L0,47.4285714 C0,45.7982143 1.33392857,44.4642857 2.96428571,44.4642857 L68.1785714,44.4642857 C69.8089286,44.4642857 71.1428571,45.7982143 71.1428571,47.4285714 L71.1428571,77.0714286 Z" id="Path" fill="#50BEE8"></path>
            <g id="Group" transform="translate(9.448661, 54.098214)" fill="#FFFFFF">
                <path d="M1.774125,17.0446429 C0.991553571,17.0446429 0.137839286,16.6148214 0.137839286,15.5743571 L0.137839286,2.11353571 C0.137839286,1.25982143 0.991553571,0.64325 1.774125,0.64325 L7.20173214,0.64325 C18.0332321,0.64325 17.793125,17.0446429 7.41219643,17.0446429 L1.774125,17.0446429 Z M3.268125,3.53342857 L3.268125,14.1515 L7.20173214,14.1515 C13.601625,14.1515 13.8832321,3.53342857 7.20173214,3.53342857 L3.268125,3.53342857 Z" id="Shape" fill-rule="nonzero"></path>
                <path d="M26.8638393,17.2817857 C22.4796607,17.4715 17.9265179,14.5546429 17.9265179,8.74760714 C17.9265179,2.91685714 22.4766964,0.0503928571 26.8638393,0.0503928571 C31.010875,0.260857143 35.347625,3.13028571 35.347625,8.74760714 C35.347625,14.3678929 31.010875,17.2817857 26.8638393,17.2817857 Z M26.6029821,3.13325 C23.9469821,3.13325 21.0568036,5.00667857 21.0568036,8.75057143 C21.0568036,12.4737143 23.9499464,14.3708571 26.6029821,14.3708571 C29.330125,14.3708571 32.2440179,12.4737143 32.2440179,8.75057143 C32.2440179,5.00371429 29.330125,3.13325 26.6029821,3.13325 Z" id="Shape" fill-rule="nonzero"></path>
                <path d="M38.1370179,8.72389286 C38.1370179,4.15 41.0064464,0.216392857 46.4577679,0.216392857 C48.5209107,0.216392857 50.1571964,0.832964286 51.885375,2.32696429 C52.5256607,2.91685714 52.5968036,3.96028571 51.9565179,4.62428571 C51.3162321,5.19046429 50.3439464,5.12228571 49.7748036,4.55314286 C48.8054821,3.53342857 47.8094821,3.25182143 46.4577679,3.25182143 C42.8087321,3.25182143 41.0568393,5.83667857 41.0568393,8.72685714 C41.0568393,11.6674286 42.7850179,14.3678929 46.4577679,14.3678929 C47.8094821,14.3678929 49.0663393,13.8195 50.1571964,12.8501786 C50.889375,12.2810357 51.9090893,12.5626429 52.3359464,13.13475 C52.715375,13.6564643 52.902125,14.5338929 52.0750893,15.3609286 C50.4150893,16.9053214 48.4260536,17.2136071 46.4548036,17.2136071 C40.721875,17.2136071 38.1370179,13.2977857 38.1370179,8.72389286 Z" id="Path"></path>
            </g>
            <path d="M68.1785714,80.0357143 L11.8571429,80.0357143 L11.8571429,83 L68.1785714,83 C69.8089286,83 71.1428571,81.6660714 71.1428571,80.0357143 L71.1428571,77.0714286 C71.1428571,78.7017857 69.8089286,80.0357143 68.1785714,80.0357143 Z" id="Path" fill="#CAD1D8"></path>
        </g>
    </g>
</svg>