<?xml version="1.0" encoding="UTF-8"?>
<svg width="32px" height="30px" viewBox="0 0 32 30" version="1.1" xmlns="http://www.w3.org/2000/svg" xmlns:xlink="http://www.w3.org/1999/xlink">
    <!-- Generator: Sketch 52.5 (67469) - http://www.bohemiancoding.com/sketch -->
    <title>Documents Icon</title>
    <desc>Created with Sketch.</desc>
    <g id="Documents-Icon" stroke="none" stroke-width="1" fill="none" fill-rule="evenodd">
        <g id="Leyes-Icon" stroke="#FFFFFF">
            <g id="Outlined-/-Documents" transform="translate(0.500000, 0.000000)">
                <g id="Stroke" transform="translate(0.968750, 0.000000)">
                    <path d="M14.53125,0 C22.55671,0 29.0625,6.71557575 29.0625,14.9998248 C29.0625,23.2840738 22.55671,30 14.53125,30 C6.50579001,30 0,23.2840738 0,14.9998248 C0,6.71557575 6.50579001,0 14.53125,0 Z" id="Stroke-Copy"></path>
                </g>
            </g>
        </g>
        <g id="Group-143" transform="translate(9.000000, 5.000000)" fill="#FFFFFF">
            <g id="Group-130">
                <path d="M0.583333333,13.8 L9.91666667,13.8 L9.91666667,0.6 L5.08083333,0.6 L0.583333333,5.226 L0.583333333,13.8 L0.583333333,13.8 Z M10.2083333,14.4 L0.291666667,14.4 C0.128333333,14.4 0,14.268 0,14.1 L0,5.1 C0,5.022 0.0291666667,4.944 0.0875,4.89 L4.75416667,0.09 C4.80666667,0.036 4.8825,0 4.95833333,0 L10.2083333,0 C10.3716667,0 10.5,0.138 10.5,0.3 L10.5,14.1 C10.5,14.268 10.3716667,14.4 10.2083333,14.4 L10.2083333,14.4 Z" id="Fill-6181"></path>
                <path d="M4.95833333,5.4 L0.291666667,5.4 C0.128333333,5.4 0,5.268 0,5.1 C0,4.9374 0.128333333,4.8 0.291666667,4.8 L4.66666667,4.8 L4.66666667,0.3 C4.66666667,0.138 4.795,0 4.95833333,0 C5.12166667,0 5.25,0.138 5.25,0.3 L5.25,5.1 C5.25,5.268 5.12166667,5.4 4.95833333,5.4" id="Fill-6182"></path>
                <path d="M11.9583333,16.2 L1.45833333,16.2 C1.295,16.2 1.16666667,16.068 1.16666667,15.9 L1.16666667,14.1 C1.16666667,13.9374 1.295,13.8 1.45833333,13.8 C1.62166667,13.8 1.75,13.9374 1.75,14.1 L1.75,15.6 L11.6666667,15.6 L11.6666667,1.8 L10.2083333,1.8 C10.045,1.8 9.91666667,1.668 9.91666667,1.5 C9.91666667,1.3374 10.045,1.2 10.2083333,1.2 L11.9583333,1.2 C12.1216667,1.2 12.25,1.3374 12.25,1.5 L12.25,15.9 C12.25,16.068 12.1216667,16.2 11.9583333,16.2" id="Fill-6183"></path>
                <path d="M13.7083333,18 L2.625,18 C2.46166667,18 2.33333333,17.868 2.33333333,17.7 L2.33333333,15.9 C2.33333333,15.7374 2.46166667,15.6 2.625,15.6 C2.78833333,15.6 2.91666667,15.7374 2.91666667,15.9 L2.91666667,17.4 L13.4166667,17.4 L13.4166667,3 L11.9583333,3 C11.795,3 11.6666667,2.868 11.6666667,2.7 C11.6666667,2.5374 11.795,2.4 11.9583333,2.4 L13.7083333,2.4 C13.8716667,2.4 14,2.5374 14,2.7 L14,17.7 C14,17.868 13.8716667,18 13.7083333,18" id="Fill-6184"></path>
            </g>
        </g>
    </g>
</svg>