<?xml version="1.0" encoding="UTF-8"?>
<svg width="32px" height="30px" viewBox="0 0 32 30" version="1.1" xmlns="http://www.w3.org/2000/svg" xmlns:xlink="http://www.w3.org/1999/xlink">
    <!-- Generator: Sketch 52.5 (67469) - http://www.bohemiancoding.com/sketch -->
    <title>Educación icon</title>
    <desc>Created with Sketch.</desc>
    <g id="Educación-icon" stroke="none" stroke-width="1" fill="none" fill-rule="evenodd">
        <g id="Leyes-Icon" stroke="#FFFFFF">
            <g id="Outlined-/-Documents" transform="translate(0.500000, 0.000000)">
                <g id="Stroke" transform="translate(0.968750, 0.000000)">
                    <path d="M14.53125,0 C22.55671,0 29.0625,6.71557575 29.0625,14.9998248 C29.0625,23.2840738 22.55671,30 14.53125,30 C6.50579001,30 0,23.2840738 0,14.9998248 C0,6.71557575 6.50579001,0 14.53125,0 Z" id="Stroke-Copy"></path>
                </g>
            </g>
        </g>
        <g id="Leyes-Icon-Copy" stroke="#FFFFFF">
            <g id="Outlined-/-Documents">
                <g transform="translate(0.500000, 0.000000)">
                    <g id="Stroke" transform="translate(0.968750, 0.000000)">
                        <path d="M14.53125,0 C22.55671,0 29.0625,6.71557575 29.0625,14.9998248 C29.0625,23.2840738 22.55671,30 14.53125,30 C6.50579001,30 0,23.2840738 0,14.9998248 C0,6.71557575 6.50579001,0 14.53125,0 Z" id="Stroke-Copy"></path>
                    </g>
                </g>
            </g>
        </g>
        <path d="M23.9958624,6.47938462 C23.9958624,6.21435897 23.7682958,6 23.4869408,6 L11.1404189,6 C9.40677528,6 8,7.32902564 8,8.95815385 L8,22.0418462 C8,23.6748718 9.41091285,25 11.1404189,25 L23.4910784,25 C23.7724334,25 24,24.785641 24,24.5206154 L24,11.4408205 C24,11.1757949 23.7724334,10.9614359 23.4910784,10.9614359 L11.1404189,10.9614359 C9.96948539,10.9614359 9.01370572,10.0611282 9.01370572,8.95815385 C9.01370572,7.85517949 9.96948539,6.95487179 11.1404189,6.95487179 L23.4910784,6.95487179 C23.7682958,6.95487179 23.9958624,6.74051282 23.9958624,6.47938462 Z M10.9792654,11.7887111 L22,11.7887111 L22,24 L10.9792654,24 C9.88951422,24 9,23.0935708 9,21.9830969 L9,11 C9.51984597,11.490492 10.2168246,11.7887111 10.9792654,11.7887111 Z M11.4844109,9 L22.5155891,9 C22.7833935,9 23,9.22357724 23,9.5 C23,9.77642276 22.7833935,10 22.5155891,10 L11.4844109,10 C11.2166065,10 11,9.77642276 11,9.5 C11,9.22357724 11.2166065,9 11.4844109,9 Z M13.3219375,21.9668075 C13.578738,22.0651624 13.8681481,21.9381206 13.9659769,21.6758408 L14.6956164,19.7579197 L17.251393,19.7579197 C17.271774,19.7579197 17.2880788,19.7538216 17.3043836,19.7538216 L18.0340231,21.6758408 C18.1114709,21.8766488 18.298976,21.9995924 18.4987098,21.9995924 C18.5598528,21.9995924 18.6169195,21.9872981 18.6780625,21.9668075 C18.934863,21.8684525 19.0653014,21.5774859 18.9674726,21.3193042 L16.7663253,15.5327559 C16.6440394,15.2090042 16.3424007,15 16,15 C15.6575993,15 15.3559606,15.2090042 15.2336747,15.5327559 L13.0325274,21.3193042 C12.9346986,21.5774859 13.065137,21.8643544 13.3219375,21.9668075 Z M15.9977925,15 L17,18 L15,18 L15.9977925,15 Z" id="book" fill="#FFFFFF" fill-rule="nonzero"></path>
    </g>
</svg>