<?xml version="1.0" encoding="UTF-8"?>
<svg width="32px" height="40px" viewBox="0 0 32 40" version="1.1" xmlns="http://www.w3.org/2000/svg" xmlns:xlink="http://www.w3.org/1999/xlink">
    <!-- Generator: Sketch 52.5 (67469) - http://www.bohemiancoding.com/sketch -->
    <title>Group 16</title>
    <desc>Created with Sketch.</desc>
    <g id="Symbols" stroke="none" stroke-width="1" fill="none" fill-rule="evenodd">
        <g id="Servicios-online---nuevo-componente" transform="translate(-64.000000, -37.000000)" fill="#9B9B9B">
            <g id="Group-17">
                <g id="Group-16" transform="translate(64.000000, 37.000000)">
                    <path d="M31.3333333,40 L4.36666667,40 C1.83733333,40 0,37.9733333 0,35.1733333 L0,6.66666667 C0,6.30666667 0.298666667,6 0.666666667,6 C1.03466667,6 1.33333333,6.30666667 1.33333333,6.66666667 L1.33333333,35.1733333 C1.33333333,36.9066667 2.27066667,38.6666667 4.36666667,38.6666667 L30.6666667,38.6666667 L30.6666667,11.3333333 C30.6666667,10.9733333 30.9653333,10.6666667 31.3333333,10.6666667 C31.7013333,10.6666667 32,10.9733333 32,11.3333333 L32,39.3333333 C32,39.7066667 31.7013333,40 31.3333333,40" id="Fill-6411"></path>
                    <path d="M31.3336196,12 L19.33351,12 C18.9655066,12 18.6668372,11.7066667 18.6668372,11.3333333 C18.6668372,10.9733333 18.9655066,10.6666667 19.33351,10.6666667 L30.0416078,10.6666667 C29.4069353,9.48 29.042932,7.82666667 29.038932,6.01333333 C29.0349319,4.2 29.3989353,2.54666667 30.0402745,1.33333333 L5.20004751,1.33333333 C3.17736236,1.33333333 1.33334552,3 1.33334552,4.84 L1.33334552,7.33333333 C1.33334552,9.30666667 3.44136477,10.6666667 5.33338206,10.6666667 L10.0000914,10.6666667 C10.3680947,10.6666667 10.6667641,10.9733333 10.6667641,11.3333333 C10.6667641,11.7066667 10.3680947,12 10.0000914,12 L5.33338206,12 C2.75735853,12 0,10.1333333 0,7.33333333 L0,4.84 C0,2.26666667 2.42935553,0 5.20004751,0 L31.3336196,0 C31.6029554,0 31.8469576,0.173333333 31.9496252,0.413333333 C32.0522928,0.666666667 31.994959,0.946666667 31.8056239,1.14666667 C29.8962731,3.05333333 29.8962731,8.95866667 31.8056239,10.8666667 C31.994959,11.0533333 32.0522928,11.3466667 31.9496252,11.5866667 C31.8469576,11.84 31.6029554,12 31.3336196,12" id="Fill-6412"></path>
                    <path d="M29.3243243,6 L5.67567568,6 C5.3027027,6 5,5.78 5,5.5 C5,5.229 5.3027027,5 5.67567568,5 L29.3243243,5 C29.6972973,5 30,5.229 30,5.5 C30,5.78 29.6972973,6 29.3243243,6" id="Fill-6413"></path>
                    <path d="M19.3125,26.9930711 C19.11725,26.9930711 18.928875,26.914347 18.7955,26.7700197 L14.5,22.0859407 L10.2045,26.7700197 C10.016125,26.9799504 9.716375,27.0586744 9.4455,26.953709 C9.177375,26.8618644 9,26.6125716 9,26.3370376 L9,6.65603347 C9,6.30046333 9.308,6 9.6875,6 C10.067,6 10.375,6.30046333 10.375,6.65603347 L10.375,24.5919886 L13.983,20.6557877 C14.242875,20.3802537 14.757125,20.3802537 15.017,20.6557877 L18.625,24.5919886 L18.625,6.65603347 C18.625,6.30046333 18.933,6 19.3125,6 C19.692,6 20,6.30046333 20,6.65603347 L20,26.3370376 C20,26.6125716 19.822625,26.8618644 19.5545,26.953709 C19.47475,26.9799504 19.393625,26.9930711 19.3125,26.9930711" id="Fill-6414"></path>
                </g>
            </g>
        </g>
    </g>
</svg>