<?xml version="1.0" encoding="utf-8"?>
<!-- Generator: Adobe Illustrator 17.0.0, SVG Export Plug-In . SVG Version: 6.00 Build 0)  -->
<!DOCTYPE svg PUBLIC "-//W3C//DTD SVG 1.1//EN" "http://www.w3.org/Graphics/SVG/1.1/DTD/svg11.dtd">
<svg version="1.1" id="Capa_1" xmlns="http://www.w3.org/2000/svg" xmlns:xlink="http://www.w3.org/1999/xlink" x="0px" y="0px"
	 width="559px" height="232px" viewBox="0 0 559 232" enable-background="new 0 0 559 232" xml:space="preserve">
<title>Group 2</title>
<desc>Created with Sketch.</desc>
<g id="Desktop">
	<g id="Error" transform="translate(-215.000000, -468.000000)">
		<g id="Group" transform="translate(0.000000, 363.000000)">
			<g id="Group-2" transform="translate(200.000000, 120.000000)">
				<text transform="matrix(1 0 0 1 0 217)" fill="#9DBE15" font-family="'gobCL'" font-size="340">4</text>
				<text transform="matrix(1 0 0 1 409 217)" fill="#9DBE15" font-family="'gobCL'" font-size="340">4</text>
				<g id="energia-renovable" transform="translate(198.000000, 0.000000)">
					<path id="Path" fill="#0F69B4" d="M6.8,102.008C6.8,49.511,49.504,6.801,102,6.801c29.468,0,57.042,13.877,74.994,37.403H156.4
						c-1.88,0-3.4,1.523-3.4,3.4c0,1.877,1.52,3.4,3.4,3.4h27.2c0.105,0,0.197-0.051,0.299-0.061
						c0.228-0.017,0.442-0.068,0.663-0.133c0.228-0.068,0.432-0.149,0.636-0.259c0.092-0.047,0.194-0.055,0.282-0.116
						c0.095-0.061,0.146-0.16,0.231-0.231c0.184-0.146,0.343-0.306,0.49-0.486c0.136-0.17,0.255-0.34,0.354-0.527
						c0.102-0.19,0.18-0.381,0.241-0.588c0.071-0.224,0.119-0.442,0.136-0.68c0.014-0.109,0.068-0.208,0.068-0.32V20.402
						c0-1.877-1.52-3.4-3.4-3.4c-1.88,0-3.4,1.523-3.4,3.4v16.94C160.952,13.812,132.43,0,102,0C45.757,0,0,45.761,0,102.008
						c0,10.823,1.683,21.469,5.002,31.643c0.466,1.438,1.802,2.35,3.233,2.35c0.347,0,0.704-0.058,1.054-0.17
						c1.785-0.585,2.761-2.503,2.179-4.288C8.371,122.048,6.8,112.113,6.8,102.008z"/>
					<path id="Shape" fill="#0F69B4" d="M90.567,169.749c0.416,0.17,0.85,0.251,1.28,0.251c1.113,0,2.193-0.557,2.836-1.544
						l50.768-78.201c0.735-1.129,0.731-2.587-0.004-3.716c-0.738-1.129-2.071-1.724-3.388-1.493l-35.897,6.008l9.321-53.064
						c0.284-1.615-0.616-3.203-2.146-3.778c-1.519-0.568-3.246,0.031-4.085,1.435l-50.768,85c-0.684,1.139-0.64,2.567,0.105,3.665
						c0.741,1.095,2.055,1.656,3.351,1.438l35.778-5.987l-9.193,46.169C88.211,167.532,89.065,169.133,90.567,169.749z
						 M68.06,117.837l37.579-62.924L98.67,94.608c-0.193,1.088,0.152,2.2,0.924,2.985c0.775,0.785,1.878,1.146,2.962,0.959
						l33.016-5.525l-36.959,56.927l6.705-33.687c0.22-1.095-0.112-2.227-0.883-3.033c-0.646-0.667-1.523-1.034-2.433-1.034
						c-0.186,0-0.369,0.014-0.555,0.047L68.06,117.837z"/>
					<path id="Path_1_" fill="#0F69B4" d="M198.805,70.317c-0.595-1.774-2.513-2.736-4.304-2.14
						c-1.778,0.589-2.744,2.506-2.152,4.28c3.22,9.624,4.852,19.702,4.852,29.952c0,52.282-42.704,94.818-95.2,94.818
						c-29.461,0-57.035-13.816-74.994-37.25H47.6c1.88,0,3.4-1.517,3.4-3.386s-1.52-3.386-3.4-3.386H20.4
						c-0.102,0-0.194,0.051-0.292,0.061c-0.231,0.017-0.452,0.068-0.68,0.135c-0.221,0.068-0.425,0.146-0.626,0.25
						c-0.088,0.051-0.19,0.058-0.282,0.119c-0.095,0.061-0.146,0.159-0.231,0.23c-0.184,0.146-0.343,0.305-0.49,0.484
						c-0.136,0.169-0.255,0.339-0.353,0.525c-0.102,0.19-0.18,0.379-0.241,0.589c-0.071,0.22-0.119,0.437-0.139,0.671
						c-0.01,0.112-0.065,0.207-0.065,0.322v27.091c0,1.869,1.52,3.386,3.4,3.386s3.4-1.517,3.4-3.386v-16.878
						C43.051,190.245,71.573,204,102,204c56.243,0,102-45.574,102-101.591C204,91.431,202.249,80.631,198.805,70.317z"/>
				</g>
			</g>
		</g>
	</g>
</g>
</svg>
