<?xml version="1.0" encoding="UTF-8"?>
<svg width="45px" height="35px" viewBox="0 0 45 35" version="1.1" xmlns="http://www.w3.org/2000/svg" xmlns:xlink="http://www.w3.org/1999/xlink">
    <!-- Generator: Sketch 52.5 (67469) - http://www.bohemiancoding.com/sketch -->
    <title>Group 149</title>
    <desc>Created with Sketch.</desc>
    <g id="Symbols" stroke="none" stroke-width="1" fill="none" fill-rule="evenodd">
        <g id="Servicios-online---nuevo-componente" transform="translate(-377.000000, -41.000000)" fill="#9B9B9B">
            <g id="Group-17">
                <g id="Group-149" transform="translate(377.000000, 41.000000)">
                    <path d="M23.5,6 C23.22,6 23,5.552 23,5 L23,1 C23,0.448 23.22,0 23.5,0 C23.78,0 24,0.448 24,1 L24,5 C24,5.552 23.78,6 23.5,6" id="Fill-4438"></path>
                    <path d="M13.7513904,7 C13.3259177,7 12.9004449,6.80458696 12.6751947,6.45108697 L10.1724138,2.64821749 C9.82202447,2.12345664 10.0222469,1.45158709 10.6229143,1.14858709 C11.2235818,0.843391448 11.974416,1.02343492 12.3248053,1.55039143 L14.8275862,5.35326091 C15.1779755,5.87582611 14.9777531,6.54989131 14.3770857,6.85289131 C14.1768632,6.95169565 13.9516129,7 13.7513904,7" id="Fill-4439"></path>
                    <path d="M5.90264766,15 C5.72668024,15 5.5287169,14.9474769 5.35274949,14.8324264 L1.54745418,12.331328 C1.01955193,11.9861765 0.843584521,11.2208403 1.15152749,10.6230778 C1.43747454,10.0253153 2.11934827,9.82522745 2.64725051,10.1653768 L6.45254582,12.6664752 C6.98044807,13.0116268 7.15641548,13.7769629 6.84847251,14.3747254 C6.65050916,14.7749011 6.27657841,15 5.90264766,15" id="Fill-4440"></path>
                    <path d="M42.9026477,35 C42.7266802,35 42.5287169,34.9474769 42.3527495,34.8324264 L38.5474542,32.331328 C38.0195519,31.9861765 37.8435845,31.2208403 38.1515275,30.6230778 C38.4374745,30.0253153 39.1193483,29.8252275 39.6472505,30.1653768 L43.4525458,32.6664752 C43.9804481,33.0116268 44.1564155,33.7769629 43.8484725,34.3747254 C43.6505092,34.7749011 43.2765784,35 42.9026477,35" id="Fill-4441"></path>
                    <path d="M5,24 L1,24 C0.44,24 0,23.776 0,23.5 C0,23.224 0.44,23 1,23 L5,23 C5.56,23 6,23.224 6,23.5 C6,23.776 5.56,24 5,24" id="Fill-4442"></path>
                    <path d="M44,24 L40,24 C39.44,24 39,23.776 39,23.5 C39,23.224 39.44,23 40,23 L44,23 C44.56,23 45,23.224 45,23.5 C45,23.776 44.56,24 44,24" id="Fill-4443"></path>
                    <path d="M2.09735234,35 C1.72342159,35 1.34949084,34.7750012 1.15152749,34.3750033 C0.843584521,33.7775064 1.01955193,33.0125104 1.54745418,32.6675122 L5.35274949,30.1675253 C5.88065173,29.8225271 6.56252546,30.027526 6.84847251,30.6250229 C7.15641548,31.2225198 6.98044807,31.9875158 6.45254582,32.332514 L2.64725051,34.8325009 C2.4712831,34.9475003 2.27331976,35 2.09735234,35" id="Fill-4444"></path>
                    <path d="M39.0973523,15 C38.7234216,15 38.3494908,14.7750012 38.1515275,14.3750033 C37.8435845,13.7775064 38.0195519,13.0125104 38.5474542,12.6675122 L42.3527495,10.1675253 C42.8806517,9.82252709 43.5625255,10.027526 43.8484725,10.6250229 C44.1564155,11.2225198 43.9804481,11.9875158 43.4525458,12.332514 L39.6472505,14.8325009 C39.4712831,14.9475003 39.2733198,15 39.0973523,15" id="Fill-4445"></path>
                    <path d="M31.2486096,7 C31.0483871,7 30.8231368,6.95168393 30.6229143,6.85285561 C30.0222469,6.54978211 29.8220245,5.87555336 30.1724138,5.35286136 L32.6751947,1.54906919 C33.025584,1.02418102 33.7764182,0.844093857 34.3770857,1.14716737 C34.9777531,1.45024088 35.1779755,2.12227344 34.8275862,2.64716162 L32.3248053,6.45095379 C32.0995551,6.80453955 31.6740823,7 31.2486096,7" id="Fill-4446"></path>
                    <path d="M23,12.2727273 C17.5890909,12.2727273 13.1818182,16.8590909 13.1818182,22.5 C13.1818182,28.1409091 17.5890909,32.7272727 23,32.7272727 C28.4109091,32.7272727 32.8181818,28.1409091 32.8181818,22.5 C32.8181818,16.8590909 28.4109091,12.2727273 23,12.2727273 L23,12.2727273 Z M23,35 C16.3890909,35 11,29.3931818 11,22.5 C11,15.6068182 16.3890909,10 23,10 C29.6109091,10 35,15.6068182 35,22.5 C35,29.3931818 29.6109091,35 23,35 L23,35 Z" id="Fill-4447"></path>
                </g>
            </g>
        </g>
    </g>
</svg>