<?xml version="1.0" encoding="UTF-8"?>
<svg width="40px" height="41px" viewBox="0 0 40 41" version="1.1" xmlns="http://www.w3.org/2000/svg" xmlns:xlink="http://www.w3.org/1999/xlink">
    <!-- Generator: Sketch 52.5 (67469) - http://www.bohemiancoding.com/sketch -->
    <title>sticker-2</title>
    <desc>Created with Sketch.</desc>
    <g id="Symbols" stroke="none" stroke-width="1" fill="none" fill-rule="evenodd">
        <g id="Servicios-online---nuevo-componente" transform="translate(-220.000000, -37.000000)" fill="#0F69B4" fill-rule="nonzero">
            <g id="Group-17">
                <path d="M258.625096,58.1545231 C258.282354,57.6846091 258.273994,57.0384773 258.616736,56.5601719 L259.327299,55.5448219 C259.887389,54.7476463 260.088018,53.7406877 259.86231,52.784077 C259.636602,51.8274662 259.017995,51.013508 258.15696,50.5519853 L257.070218,49.9645927 C256.551925,49.6876791 256.27606,49.1170692 256.368015,48.5380679 L256.577004,47.3129349 C256.735836,46.3479329 256.476689,45.3577569 255.866442,44.5941465 C255.247834,43.8305362 254.336642,43.3690135 253.366934,43.3270569 L252.121359,43.2851003 C251.53619,43.2599263 251.034617,42.8655342 250.875785,42.3033156 L250.533043,41.1117479 C250.115065,39.6600491 248.769177,38.6446991 247.256097,38.6446991 C246.796321,38.6446991 246.336545,38.7370037 245.910208,38.9216128 L244.773308,39.4083095 C244.246656,39.6348752 243.60297,39.4922227 243.226789,39.0642652 L242.399193,38.1412198 C241.755507,37.4195661 240.827596,37 239.866247,37 C238.879819,37 237.943549,37.4279574 237.291503,38.1747851 L236.488986,39.1230045 C236.112805,39.5593533 235.477479,39.7103971 234.942467,39.4922227 L233.797208,39.0223086 C233.37923,38.8544822 232.944533,38.7621777 232.501476,38.7621777 C230.971677,38.7621777 229.617429,39.7943103 229.21617,41.2795743 L228.890147,42.471142 C228.739675,43.0333606 228.238102,43.4361441 227.661292,43.4697094 L226.432437,43.5452313 C225.454369,43.6039705 224.551536,44.0738846 223.949648,44.8458862 C223.34776,45.6178878 223.105333,46.6080639 223.280884,47.5730659 L223.506592,48.7898076 C223.615266,49.3688088 223.3394,49.9478101 222.829467,50.233115 L221.751084,50.8372902 C220.898409,51.3155956 220.288162,52.1379451 220.079173,53.0945559 C219.870184,54.0511666 220.079173,55.0581253 220.655982,55.8469095 L221.383264,56.8454769 C221.726006,57.3153909 221.734365,57.9615227 221.391623,58.4398281 L220.681061,59.4551781 C220.120971,60.2523537 219.920341,61.2593123 220.146049,62.215923 C220.371757,63.1725338 220.990365,63.9781007 221.851399,64.4480147 L222.938142,65.0354073 C223.456434,65.3123209 223.7323,65.8829308 223.640345,66.4619321 L223.431356,67.6870651 C223.272524,68.6520671 223.53167,69.6422431 224.141918,70.4058535 C224.760525,71.1694638 225.671717,71.6309865 226.641426,71.6729431 L227.878641,71.723291 C228.46381,71.748465 228.965383,72.1428571 229.124215,72.7050757 L229.466957,73.8966435 C229.884935,75.3483422 231.230823,76.3636922 232.743903,76.3636922 C233.203679,76.3636922 233.663455,76.2713876 234.089792,76.0867786 L235.226692,75.6000819 C235.753344,75.3735162 236.39703,75.5161686 236.773211,75.9441261 L237.600807,76.8671715 C238.244493,77.5888252 239.172404,78 240.133753,78 C241.120181,78 242.056451,77.5720426 242.708497,76.8252149 L243.511014,75.8769955 C243.887195,75.4406467 244.522521,75.2896029 245.057533,75.5077773 L246.202792,75.9776914 C246.62077,76.1455178 247.055467,76.2378223 247.498524,76.2378223 L247.498524,76.2378223 C249.028323,76.2378223 250.382571,75.2056897 250.78383,73.7204257 L251.109853,72.528858 C251.260325,71.9666394 251.761898,71.5638559 252.338708,71.5302906 L253.567563,71.46316 C254.545631,71.4044208 255.448464,70.9345068 256.050352,70.1625051 C256.65224,69.3905035 256.894667,68.4003275 256.719116,67.4353254 L256.493408,66.2185837 C256.384734,65.6395825 256.6606,65.0605813 257.170533,64.7836676 L258.248916,64.1794924 C259.101591,63.7011871 259.711838,62.8788375 259.920827,61.9222268 C260.129816,60.965616 259.920827,59.9586574 259.344018,59.1698731 L258.625096,58.1545231 Z M257.967766,61.4913518 C257.88403,61.8786982 257.641196,62.19868 257.297878,62.3923532 L256.217684,62.9986345 C254.936523,63.7143832 254.249888,65.1711425 254.517843,66.6194811 L254.74393,67.8404643 C254.819293,68.2278107 254.71881,68.6235776 254.475975,68.9351388 C254.233141,69.2467 253.88145,69.4319527 253.48789,69.4572144 L252.256971,69.524579 C250.791591,69.6087847 249.552299,70.6192535 249.158739,72.0423305 L248.832169,73.2380519 C248.673071,73.8359126 248.128787,74.2485207 247.517514,74.2485207 C247.341668,74.2485207 247.165823,74.2148384 246.998351,74.1474738 L245.851168,73.6759217 C245.432488,73.5075102 244.99706,73.4148839 244.55326,73.4148839 C243.565175,73.4148839 242.627332,73.8443332 241.974191,74.5937642 L241.161952,75.5284479 C240.90237,75.8315885 240.533932,76 240.131999,76 C239.73844,76 239.378375,75.8400091 239.118794,75.545289 L238.289807,74.6190259 C237.64504,73.8948566 236.71557,73.4738279 235.744233,73.4738279 C235.275311,73.4738279 234.823137,73.5664543 234.396083,73.7517069 L233.257274,74.2401001 C233.081428,74.3158853 232.905583,74.3495676 232.721363,74.3495676 C232.118464,74.3495676 231.582554,73.9453801 231.415082,73.3643605 L231.071764,72.1686391 C230.661458,70.7539827 229.405418,69.760355 227.940038,69.6929904 L226.700745,69.642467 C226.307186,69.6256259 225.947121,69.4487938 225.704287,69.1372326 C225.453079,68.8256714 225.352596,68.438325 225.419585,68.0509786 L225.628925,66.8215749 C225.871759,65.3648157 225.168377,63.9248976 223.870469,63.22599 L222.781901,62.6365498 C222.43021,62.4512972 222.187375,62.1313154 222.103639,61.743969 C222.01153,61.3566227 222.086892,60.9608557 222.312979,60.6408739 L223.024735,59.6219845 C223.870469,58.4178425 223.862095,56.809513 222.991241,55.6137915 L222.262738,54.6117433 C222.028277,54.2917615 221.944541,53.8959945 222.03665,53.5086482 C222.120386,53.1213018 222.363221,52.80132 222.706538,52.6076468 L223.786733,52.0013655 C225.067893,51.2856168 225.754529,49.8288575 225.486573,48.3805189 L225.26886,47.1763769 C225.193497,46.7806099 225.293981,46.3932635 225.536815,46.0817023 C225.779649,45.7701411 226.131341,45.5848885 226.5249,45.5596268 L227.755819,45.4838416 C229.221199,45.3996359 230.460492,44.389167 230.854051,42.9660901 L231.180621,41.7619481 C231.33972,41.172508 231.884003,40.7514793 232.495276,40.7514793 C232.671122,40.7514793 232.846967,40.7851616 233.014439,40.8525262 L234.161623,41.3240783 C234.580303,41.4924898 235.01573,41.5851161 235.459531,41.5851161 C236.447615,41.5851161 237.385458,41.1556668 238.038599,40.4062358 L238.850838,39.4715521 C239.11042,39.1684115 239.478858,39 239.880791,39 C240.27435,39 240.634415,39.1599909 240.893997,39.454711 L241.722983,40.3809741 C242.36775,41.1051434 243.29722,41.5261721 244.268557,41.5261721 C244.737479,41.5261721 245.189653,41.4335457 245.616707,41.2482931 L246.755516,40.7598999 C246.931362,40.6841147 247.107208,40.6504324 247.291427,40.6504324 C247.894326,40.6504324 248.430236,41.0546199 248.597708,41.6356395 L248.941026,42.8313609 C249.351332,44.2460173 250.607372,45.239645 252.072752,45.3070096 L253.312045,45.357533 C253.705604,45.3743741 254.065669,45.5512062 254.308503,45.8627674 C254.559711,46.1743286 254.660194,46.561675 254.593206,46.9490214 L254.392239,48.1784251 C254.149405,49.6351843 254.852787,51.0751024 256.150695,51.77401 L257.239263,52.3634502 C257.590954,52.5487028 257.833789,52.8686846 257.925898,53.256031 C258.018008,53.6433773 257.942645,54.0391443 257.716558,54.3591261 L257.004802,55.3780155 C256.159069,56.5821575 256.167442,58.190487 257.038297,59.3862085 L257.7668,60.3882567 C257.967766,60.7082385 258.051502,61.0955849 257.967766,61.4913518 Z M240,44 C232.831453,44 227,49.8314532 227,57 C227,64.1685468 232.831453,70 240,70 C247.168547,70 253,64.1685468 253,57 C253,49.8314532 247.168547,44 240,44 Z M240.5,68 C234.709192,68 230,63.2908082 230,57.5 C230,51.7091918 234.709192,47 240.5,47 C246.290808,47 251,51.7091918 251,57.5 C251,63.2908082 246.290808,68 240.5,68 Z M240.567926,56.5045674 L238.450289,56.5045674 C237.783963,56.5045674 237.245426,55.9645352 237.245426,55.29554 C237.245426,54.6265449 237.783963,54.0865126 238.450289,54.0865126 L242.183538,54.0865126 C242.804225,54.0865126 243.306251,53.6432026 243.306251,53.0951102 C243.306251,52.5470177 242.804225,52.1037077 242.183538,52.1037077 L240.622693,52.1037077 L240.622693,50.9914025 C240.622693,50.44331 240.120667,50 239.49998,50 C238.879293,50 238.377267,50.44331 238.377267,50.9914025 L238.377267,52.1037077 C236.506078,52.1359484 235,53.5464804 235,55.2874798 C235,57.0445997 236.542589,58.471252 238.441161,58.471252 L240.558799,58.471252 C241.225124,58.471252 241.763661,59.0112843 241.763661,59.6802794 C241.763661,60.3492746 241.225124,60.8893068 240.558799,60.8893068 L236.752528,60.8893068 C236.131841,60.8893068 235.629815,61.3326169 235.629815,61.8807093 C235.629815,62.4288017 236.131841,62.8721118 236.752528,62.8721118 L238.377267,62.8721118 L238.377267,64.0085975 C238.377267,64.55669 238.879293,65 239.49998,65 C240.120667,65 240.622693,64.55669 240.622693,64.0085975 L240.622693,62.8721118 C242.493881,62.839871 243.99996,61.4212789 243.99996,59.6883396 C244.009087,57.9312198 242.466498,56.5045674 240.567926,56.5045674 Z" id="sticker-2"></path>
            </g>
        </g>
    </g>
</svg>