<?xml version="1.0" encoding="UTF-8"?>
<svg width="36px" height="36px" viewBox="0 0 36 36" version="1.1" xmlns="http://www.w3.org/2000/svg" xmlns:xlink="http://www.w3.org/1999/xlink">
    <!-- Generator: Sketch 52.5 (67469) - http://www.bohemiancoding.com/sketch -->
    <title>icon</title>
    <desc>Created with Sketch.</desc>
    <g id="Symbols" stroke="none" stroke-width="1" fill="none" fill-rule="evenodd">
        <g id="Footer" transform="translate(-882.000000, -105.000000)">
            <g id="Group-7" transform="translate(828.000000, 103.000000)">
                <g id="icon" transform="translate(54.000000, 2.000000)">
                    <rect id="Base" stroke="#FFFFFF" x="0.5" y="0.5" width="35" height="34.2653061" rx="17.1326531"></rect>
                    <path d="M25.2,13.6994583 C24.6701904,13.9296694 24.1012048,14.0849706 23.5033035,14.1553129 C24.1133307,13.7972067 24.5825107,13.2299007 24.8026428,12.553884 C24.2317917,12.8854976 23.5993782,13.1266712 22.9268558,13.2563933 C22.3877186,12.693655 21.6200544,12.3428571 20.770307,12.3428571 C19.1379712,12.3428571 17.8153129,13.6382514 17.8153129,15.2360261 C17.8153129,15.4625831 17.8414302,15.6836588 17.8917995,15.8955992 C15.4367664,15.7750124 13.2596969,14.6230434 11.8027206,12.8727081 C11.5490089,13.2993295 11.4025651,13.7962932 11.4025651,14.3270577 C11.4025651,15.3310339 11.9239798,16.2162504 12.7168286,16.7351389 C12.2327244,16.7205224 11.777536,16.5898867 11.379246,16.3733786 C11.3783133,16.3852546 11.3783133,16.3971306 11.3783133,16.4099201 C11.3783133,17.8112845 12.3968908,18.9815243 13.7484648,19.2464498 C13.5003498,19.3131379 13.2391761,19.3487658 12.9705402,19.3487658 C12.7793237,19.3487658 12.5946366,19.3304951 12.4146133,19.2966943 C12.7905169,20.4459228 13.8809172,21.2827219 15.1737272,21.3055603 C14.1626117,22.082066 12.8893898,22.5443153 11.5051691,22.5443153 C11.2663817,22.5443153 11.0313253,22.5306122 10.8,22.5041197 C12.1077342,23.3244752 13.6607851,23.8040816 15.3294986,23.8040816 C20.7628449,23.8040816 23.7346288,19.3953562 23.7346288,15.5712939 C23.7346288,15.4461394 23.7318305,15.320985 23.726234,15.1967441 C24.3036145,14.7893069 24.8045084,14.2795538 25.2,13.6994583 L25.2,13.6994583 Z" id="twitter" fill="#FFFFFF"></path>
                </g>
            </g>
        </g>
    </g>
</svg>