<?xml version="1.0" encoding="UTF-8"?>
<svg width="38px" height="37px" viewBox="0 0 38 37" version="1.1" xmlns="http://www.w3.org/2000/svg" xmlns:xlink="http://www.w3.org/1999/xlink">
    <!-- Generator: Sketch 52.5 (67469) - http://www.bohemiancoding.com/sketch -->
    <title>Group 12</title>
    <desc>Created with Sketch.</desc>
    <g id="Symbols" stroke="none" stroke-width="1" fill="none" fill-rule="evenodd">
        <g id="Footer" transform="translate(-933.000000, -103.000000)">
            <g id="Group-7" transform="translate(828.000000, 103.000000)">
                <g id="Group-12" transform="translate(106.000000, 0.000000)">
                    <g id="Group-4" transform="translate(0.000000, 0.780488)">
                        <path d="M0,17.6399571 C0,27.379427 8.03975229,35.2762347 17.955272,35.2762347 C27.8712911,35.2762347 35.9107937,27.379427 35.9107937,17.6399571 C35.9107937,7.89680779 27.8712911,0 17.955272,0 C8.03975229,0 0,7.89680779 0,17.6399571 Z" id="Fill-11" stroke="#FFFFFF"></path>
                        <g id="Group-22" transform="translate(7.057880, 7.831924)" fill="#FFFFFF">
                            <path d="M6.07933405,10.4905033 C6.07933405,7.88423347 8.29100582,5.76390714 11.0097092,5.76390714 C13.7284125,5.76390714 15.9403378,7.88423347 15.9403378,10.4905033 C15.9403378,13.0948304 13.7284125,15.2136996 11.0097092,15.2136996 C8.29100582,15.2136996 6.07933405,13.0948304 6.07933405,10.4905033 M11.0097092,16.7235002 C14.5992393,16.7235002 17.5192342,13.9275642 17.5192342,10.4905033 C17.5192342,7.05149965 14.5992393,4.25362087 11.0097092,4.25362087 C7.42068611,4.25362087 4.5004377,7.05149965 4.5004377,10.4905033 C4.5004377,13.9275642 7.42068611,16.7235002 11.0097092,16.7235002" id="Fill-16"></path>
                            <path d="M4.51800634,1.67615306 C2.97054594,1.67615306 1.71107949,2.8823907 1.71107949,4.36499203 L1.71107949,16.6126633 C1.71107949,18.0950218 2.97054594,19.3015023 4.51800634,19.3015023 L17.5018176,19.3015023 C19.049278,19.3015023 20.308491,18.0950218 20.308491,16.6126633 L20.308491,4.36499203 C20.308491,2.8823907 19.049278,1.67615306 17.5018176,1.67615306 L4.51800634,1.67615306 Z M17.5018176,20.8460304 L4.51800634,20.8460304 C2.08121254,20.8460304 0.0987190495,18.9469408 0.0987190495,16.6126633 L0.0987190495,4.36499203 C0.0987190495,2.0304717 2.08121254,0.131624885 4.51800634,0.131624885 L17.5018176,0.131624885 C19.9386114,0.131624885 21.9208514,2.0304717 21.9208514,4.36499203 L21.9208514,16.6126633 C21.9208514,18.9469408 19.9386114,20.8460304 17.5018176,20.8460304 Z" id="Fill-18"></path>
                            <path d="M17.6076351,3.54245793 C17.0382387,3.54245793 16.5798821,3.98638835 16.5798821,4.52794461 C16.5798821,5.07290078 17.0382387,5.51100279 17.6076351,5.51100279 C18.1727218,5.51100279 18.6361487,5.07290078 18.6361487,4.52794461 C18.6361487,3.98638835 18.1727218,3.54245793 17.6076351,3.54245793" id="Fill-20"></path>
                        </g>
                    </g>
                </g>
            </g>
        </g>
    </g>
</svg>