<?xml version="1.0" encoding="UTF-8"?>
<svg width="32px" height="30px" viewBox="0 0 32 30" version="1.1" xmlns="http://www.w3.org/2000/svg" xmlns:xlink="http://www.w3.org/1999/xlink">
    <!-- Generator: Sketch 52.5 (67469) - http://www.bohemiancoding.com/sketch -->
    <title>Leyes Institucional</title>
    <desc>Created with Sketch.</desc>
    <g id="Leyes-Institucional" stroke="none" stroke-width="1" fill="none" fill-rule="evenodd">
        <g id="Leyes-Icon" stroke="#FFFFFF">
            <g id="Outlined-/-Documents" transform="translate(0.500000, 0.000000)">
                <g id="Stroke" transform="translate(0.968750, 0.000000)">
                    <path d="M14.53125,0 C22.55671,0 29.0625,6.71557575 29.0625,14.9998248 C29.0625,23.2840738 22.55671,30 14.53125,30 C6.50579001,30 0,23.2840738 0,14.9998248 C0,6.71557575 6.50579001,0 14.53125,0 Z" id="Stroke-Copy"></path>
                </g>
            </g>
        </g>
        <g id="Leyes-Icon-Copy" stroke="#FFFFFF">
            <g id="Outlined-/-Documents">
                <g transform="translate(0.500000, 0.000000)">
                    <g id="Stroke" transform="translate(0.968750, 0.000000)">
                        <path d="M14.53125,0 C22.55671,0 29.0625,6.71557575 29.0625,14.9998248 C29.0625,23.2840738 22.55671,30 14.53125,30 C6.50579001,30 0,23.2840738 0,14.9998248 C0,6.71557575 6.50579001,0 14.53125,0 Z" id="Stroke-Copy"></path>
                    </g>
                </g>
            </g>
        </g>
        <g id="Group-677" transform="translate(7.000000, 6.000000)" fill="#FFFFFF">
            <path d="M2.66666667,16.4375 L3.33333333,16.4375 L3.33333333,8.5625 L2.66666667,8.5625 L2.66666667,16.4375 Z M3.66666667,17 L2.33333333,17 C2.14933333,17 2,16.874 2,16.71875 L2,8.28125 C2,8.1254375 2.14933333,8 2.33333333,8 L3.66666667,8 C3.85066667,8 4,8.1254375 4,8.28125 L4,16.71875 C4,16.874 3.85066667,17 3.66666667,17 L3.66666667,17 Z" id="Fill-664"></path>
            <path d="M14.6666667,16.4375 L15.3333333,16.4375 L15.3333333,8.5625 L14.6666667,8.5625 L14.6666667,16.4375 Z M15.6666667,17 L14.3333333,17 C14.1493333,17 14,16.874 14,16.71875 L14,8.28125 C14,8.1254375 14.1493333,8 14.3333333,8 L15.6666667,8 C15.8506667,8 16,8.1254375 16,8.28125 L16,16.71875 C16,16.874 15.8506667,17 15.6666667,17 L15.6666667,17 Z" id="Fill-666"></path>
            <path d="M11.6666667,16.4375 L12.3333333,16.4375 L12.3333333,8.5625 L11.6666667,8.5625 L11.6666667,16.4375 Z M12.6666667,17 L11.3333333,17 C11.1493333,17 11,16.874 11,16.71875 L11,8.28125 C11,8.1254375 11.1493333,8 11.3333333,8 L12.6666667,8 C12.8506667,8 13,8.1254375 13,8.28125 L13,16.71875 C13,16.874 12.8506667,17 12.6666667,17 L12.6666667,17 Z" id="Fill-667"></path>
            <path d="M4.66666667,16.4375 L5.33333333,16.4375 L5.33333333,8.5625 L4.66666667,8.5625 L4.66666667,16.4375 Z M5.66666667,17 L4.33333333,17 C4.14933333,17 4,16.874 4,16.71875 L4,8.28125 C4,8.1254375 4.14933333,8 4.33333333,8 L5.66666667,8 C5.85066667,8 6,8.1254375 6,8.28125 L6,16.71875 C6,16.874 5.85066667,17 5.66666667,17 L5.66666667,17 Z" id="Fill-668"></path>
            <path d="M1.27703332,5.4 L15.7226892,5.4 L8.49986128,0.6528 L1.27703332,5.4 Z M16.7166356,6 L0.283086965,6 C0.156151969,6 0.0450838468,5.9112 0.0110834013,5.7822 C-0.0240503923,5.6532 0.0263836018,5.5158 0.133485005,5.445 L8.35025932,0.045 C8.4426272,-0.015 8.55766204,-0.015 8.64946324,0.045 L16.8662376,5.445 C16.973339,5.5158 17.023773,5.6532 16.9892058,5.7822 C16.9546387,5.9112 16.8435706,6 16.7166356,6 L16.7166356,6 Z" id="Fill-669"></path>
            <path d="M1.57142857,6.33333333 L16.4285714,6.33333333 L16.4285714,5.66666667 L1.57142857,5.66666667 L1.57142857,6.33333333 Z M16.7142857,7 L1.28571429,7 C1.128,7 1,6.85066667 1,6.66666667 L1,5.33333333 C1,5.14866667 1.128,5 1.28571429,5 L16.7142857,5 C16.872,5 17,5.14866667 17,5.33333333 L17,6.66666667 C17,6.85066667 16.872,7 16.7142857,7 L16.7142857,7 Z" id="Fill-670"></path>
            <path d="M3.0999548,9 C3.0681572,9 3.03695955,8.994 3.00516194,8.9805 C2.84797378,8.91525 2.7627802,8.703 2.81497627,8.5065 L3.28414093,6.75 L1.71585907,6.75 L2.18502373,8.5065 C2.2372198,8.703 2.15202622,8.91525 1.99483806,8.9805 C1.8376499,9.04575 1.66786269,8.94 1.61506667,8.7435 L1.01511187,6.4935 C0.985114127,6.3795 1.000113,6.2535 1.0571087,6.156 C1.1129045,6.05775 1.20349767,6 1.3000904,6 L3.6999096,6 C3.79650233,6 3.8870955,6.05775 3.9428913,6.156 C3.999887,6.2535 4.01488587,6.3795 3.98488813,6.4935 L3.38493333,8.7435 C3.34233654,8.901 3.22534535,9 3.0999548,9" id="Fill-671"></path>
            <path d="M6.0999548,9 C6.0681572,9 6.03695955,8.994 6.00516194,8.9805 C5.84797378,8.91525 5.7627802,8.703 5.81497627,8.5065 L6.28414093,6.75 L4.71585907,6.75 L5.18502373,8.5065 C5.2372198,8.703 5.15202622,8.91525 4.99483806,8.9805 C4.8376499,9.04575 4.66786269,8.94 4.61506667,8.7435 L4.01511187,6.4935 C3.98511413,6.3795 4.000113,6.2535 4.0571087,6.156 C4.1129045,6.05775 4.20349767,6 4.3000904,6 L6.6999096,6 C6.79650233,6 6.8870955,6.05775 6.9428913,6.156 C6.999887,6.2535 7.01488587,6.3795 6.98488813,6.4935 L6.38493333,8.7435 C6.34233654,8.901 6.22534535,9 6.0999548,9" id="Fill-672"></path>
            <path d="M12.0999548,9 C12.0681572,9 12.0369595,8.994 12.0051619,8.9805 C11.8479738,8.91525 11.7627802,8.703 11.8149763,8.5065 L12.2841409,6.75 L10.7158591,6.75 L11.1850237,8.5065 C11.2372198,8.703 11.1520262,8.91525 10.9948381,8.9805 C10.8388498,9.04575 10.6678627,8.94 10.6150667,8.7435 L10.0151119,6.4935 C9.98511413,6.3795 10.000113,6.2535 10.0571087,6.156 C10.1129045,6.05775 10.2034977,6 10.3000904,6 L12.6999096,6 C12.7965023,6 12.8870955,6.05775 12.9428913,6.156 C12.999887,6.2535 13.0148859,6.3795 12.9848881,6.4935 L12.3849333,8.7435 C12.3423365,8.901 12.2253454,9 12.0999548,9" id="Fill-673"></path>
            <path d="M16.0999548,9 C16.0681572,9 16.0369595,8.994 16.0051619,8.9805 C15.8479738,8.91525 15.7627802,8.703 15.8149763,8.5065 L16.2841409,6.75 L14.7158591,6.75 L15.1850237,8.5065 C15.2372198,8.703 15.1520262,8.91525 14.9948381,8.9805 C14.8376499,9.04575 14.6678627,8.94 14.6150667,8.7435 L14.0151119,6.4935 C13.9851141,6.3795 14.000113,6.2535 14.0571087,6.156 C14.1129045,6.05775 14.2034977,6 14.3000904,6 L16.6999096,6 C16.7965023,6 16.8870955,6.05775 16.9428913,6.156 C16.999887,6.2535 17.0148859,6.3795 16.9848881,6.4935 L16.3849333,8.7435 C16.3423365,8.901 16.2253454,9 16.0999548,9" id="Fill-674"></path>
            <path d="M8.5,1.5 C7.9485,1.5 7.5,1.9485 7.5,2.5 C7.5,3.0515 7.9485,3.5 8.5,3.5 C9.0515,3.5 9.5,3.0515 9.5,2.5 C9.5,1.9485 9.0515,1.5 8.5,1.5 M8.5,4 C7.673,4 7,3.327 7,2.5 C7,1.673 7.673,1 8.5,1 C9.327,1 10,1.673 10,2.5 C10,3.327 9.327,4 8.5,4" id="Fill-675"></path>
            <path d="M16.7142857,17 L1.28571429,17 C1.128,17 1,16.776 1,16.5 C1,16.224 1.128,16 1.28571429,16 L16.7142857,16 C16.872,16 17,16.224 17,16.5 C17,16.776 16.872,17 16.7142857,17" id="Fill-676"></path>
        </g>
    </g>
</svg>