<?xml version="1.0" encoding="UTF-8"?>
<svg width="32px" height="32px" viewBox="0 0 32 32" version="1.1" xmlns="http://www.w3.org/2000/svg" xmlns:xlink="http://www.w3.org/1999/xlink">
    <!-- Generator: Sketch 52.5 (67469) - http://www.bohemiancoding.com/sketch -->
    <title>Leyes Icon</title>
    <desc>Created with Sketch.</desc>
    <g id="Symbols" stroke="none" stroke-width="1" fill="none" fill-rule="evenodd">
        <g id="Leyes-Icon" transform="translate(0.000000, 1.000000)">
            <g id="Outlined-/-Documents">
                <g transform="translate(0.500000, 0.000000)">
                    <g id="Stroke" transform="translate(0.968750, 0.000000)" fill="#FFFFFF" stroke="#0F69B4">
                        <path d="M14.53125,0 C22.55671,0 29.0625,6.71557575 29.0625,14.9998248 C29.0625,23.2840738 22.55671,30 14.53125,30 C6.50579001,30 0,23.2840738 0,14.9998248 C0,6.71557575 6.50579001,0 14.53125,0 Z" id="Stroke-Copy"></path>
                    </g>
                    <g id="Group-124" transform="translate(6.296875, 5.500000)" fill="#0F69B4">
                        <g id="Group-123">
                            <path d="M0.815587284,9.75 L4.83449677,9.75 L2.57370151,5.8955 L0.815587284,9.75 L0.815587284,9.75 Z M9.203125,16.9 C9.02794828,16.9 8.88577586,16.757 8.88577586,16.575 L8.88577586,3.107 C8.17999138,3.601 6.98358513,3.796 5.81320151,3.9845 C4.47779634,4.199 2.97102263,4.446 2.86248922,5.122 L5.66722091,9.9125 C5.72624784,10.01 5.72751724,10.1335 5.67102909,10.2375 C5.61454095,10.3415 5.50918103,10.4 5.39493534,10.4 L0.317349138,10.4 C0.208815733,10.4 0.107898707,10.348 0.0495064655,10.2505 C-0.00888577586,10.1595 -0.0158674569,10.0425 0.029830819,9.9385 L2.22334806,5.122 C2.29253017,3.8935 4.03160345,3.614 5.71482328,3.341 C7.27364224,3.094 8.88577586,2.834 8.88577586,1.95 C8.88577586,1.7745 9.02794828,1.625 9.203125,1.625 C9.37830172,1.625 9.52047414,1.7745 9.52047414,1.95 L9.52047414,16.575 C9.52047414,16.757 9.37830172,16.9 9.203125,16.9 L9.203125,16.9 Z" id="Fill-2371"></path>
                            <path d="M9.203125,14.3 C7.70841056,14.3 6.34698276,12.909 6.34698276,11.375 C6.34698276,11.1995 6.48915517,11.05 6.6643319,11.05 C6.83950862,11.05 6.98168103,11.1995 6.98168103,11.375 C6.98168103,12.545 8.0613028,13.65 9.203125,13.65 C10.3449472,13.65 11.424569,12.545 11.424569,11.375 C11.424569,11.1995 11.5667414,11.05 11.7419181,11.05 C11.9170948,11.05 12.0592672,11.1995 12.0592672,11.375 C12.0592672,12.909 10.6978394,14.3 9.203125,14.3" id="Fill-2372"></path>
                            <path d="M5.13343966,18.85 L13.2728103,18.85 C12.9281692,17.8425 11.050097,16.9 9.203125,16.9 C7.35615302,16.9 5.47808082,17.8425 5.13343966,18.85 L5.13343966,18.85 Z M13.6460129,19.5 L4.76023707,19.5 C4.58506034,19.5 4.44288793,19.357 4.44288793,19.175 C4.44288793,17.5305 7.00199138,16.25 9.203125,16.25 C11.4042586,16.25 13.9633621,17.5305 13.9633621,19.175 C13.9633621,19.357 13.8211897,19.5 13.6460129,19.5 L13.6460129,19.5 Z" id="Fill-2373"></path>
                            <path d="M2.85614224,13 C1.3614278,13 0,11.609 0,10.075 C0,9.8995 0.142172414,9.75 0.317349138,9.75 C0.492525862,9.75 0.634698276,9.8995 0.634698276,10.075 C0.634698276,11.245 1.71432004,12.35 2.85614224,12.35 C3.99796444,12.35 5.07758621,11.245 5.07758621,10.075 C5.07758621,9.8995 5.21975862,9.75 5.39493534,9.75 C5.57011207,9.75 5.71228448,9.8995 5.71228448,10.075 C5.71228448,11.609 4.35085668,13 2.85614224,13" id="Fill-2374"></path>
                            <path d="M13.5400183,9.75 L17.5601972,9.75 L15.5501078,5.8955 L13.5400183,9.75 L13.5400183,9.75 Z M18.0889009,10.4 L13.0113147,10.4 C12.8996078,10.4 12.7967866,10.3415 12.7390291,10.244 C12.6819062,10.1465 12.6787328,10.023 12.7314127,9.9255 L15.2283157,5.1285 C15.1381886,4.446 13.7602586,4.212 12.4267575,3.9845 C10.6857802,3.692 8.88577586,3.3865 8.88577586,1.95 C8.88577586,1.7745 9.02794828,1.625 9.203125,1.625 C9.37830172,1.625 9.52047414,1.7745 9.52047414,1.95 C9.52047414,2.834 11.0507317,3.094 12.5302134,3.341 C14.1340959,3.614 15.7906584,3.8935 15.8649181,5.1155 L18.3688028,9.9255 C18.4214828,10.023 18.4183093,10.1465 18.3611864,10.244 C18.3034289,10.3415 18.2006078,10.4 18.0889009,10.4 L18.0889009,10.4 Z" id="Fill-2375"></path>
                            <path d="M15.5501078,13 C14.0553933,13 12.6939655,11.609 12.6939655,10.075 C12.6939655,9.8995 12.8361379,9.75 13.0113147,9.75 C13.1864914,9.75 13.3286638,9.8995 13.3286638,10.075 C13.3286638,11.245 14.4082856,12.35 15.5501078,12.35 C16.69193,12.35 17.7715517,11.245 17.7715517,10.075 C17.7715517,9.8995 17.9137241,9.75 18.0889009,9.75 C18.2640776,9.75 18.40625,9.8995 18.40625,10.075 C18.40625,11.609 17.0448222,13 15.5501078,13" id="Fill-2376"></path>
                            <path d="M9.203125,0.65 C9.02794828,0.65 8.88577586,0.7995 8.88577586,0.975 C8.88577586,1.157 9.02794828,1.3 9.203125,1.3 C9.37830172,1.3 9.52047414,1.157 9.52047414,0.975 C9.52047414,0.7995 9.37830172,0.65 9.203125,0.65 L9.203125,0.65 Z M9.203125,1.95 C8.67822953,1.95 8.25107759,1.5145 8.25107759,0.975 C8.25107759,0.442 8.67822953,0 9.203125,0 C9.72802047,0 10.1551724,0.442 10.1551724,0.975 C10.1551724,1.5145 9.72802047,1.95 9.203125,1.95 L9.203125,1.95 Z" id="Fill-2377"></path>
                        </g>
                    </g>
                </g>
            </g>
        </g>
    </g>
</svg>