<?xml version="1.0" encoding="UTF-8"?>
<svg width="239px" height="118px" viewBox="0 0 239 118" version="1.1" xmlns="http://www.w3.org/2000/svg" xmlns:xlink="http://www.w3.org/1999/xlink">
    <!-- Generator: Sketch 52.5 (67469) - http://www.bohemiancoding.com/sketch -->
    <title>Group 62</title>
    <desc>Created with Sketch.</desc>
    <defs>
        <polygon id="path-1" points="0 117.049 238.452 117.049 238.452 0 0 0"></polygon>
    </defs>
    <g id="Symbols" stroke="none" stroke-width="1" fill="none" fill-rule="evenodd">
        <g id="Header" transform="translate(-46.000000, -17.000000)">
            <g id="Group-62" transform="translate(46.000000, 17.000000)">
                <path d="M148.1803,44.988 C143.7783,44.988 141.4143,42.068 141.4143,36.855 C141.4143,31.989 143.7543,28.884 148.1803,28.884 C150.3113,28.884 152.2353,29.347 153.5093,30.205 L152.3513,32.661 C151.5393,32.036 150.1263,31.572 148.5043,31.572 C145.9093,31.572 144.6123,33.402 144.6123,36.832 C144.6123,40.446 145.9093,42.3 148.4583,42.3 C149.9883,42.3 151.5163,41.651 152.5823,40.863 L153.5553,43.319 C152.0033,44.385 150.2423,44.988 148.1803,44.988" id="Fill-1" fill="#FFFFFF"></path>
                <polygon id="Fill-3" fill="#FFFFFF" points="164.1676 44.7555 164.1676 38.2685 158.3746 38.2685 158.3746 44.7555 155.3166 44.7555 155.3166 29.1155 158.3746 29.1155 158.3746 35.5105 164.1676 35.5105 164.1676 29.1155 167.2496 29.1155 167.2496 44.7555"></polygon>
                <mask id="mask-2" fill="white">
                    <use xlink:href="#path-1"></use>
                </mask>
                <g id="Clip-6"></g>
                <polygon id="Fill-5" fill="#FFFFFF" mask="url(#mask-2)" points="170.192 44.756 173.227 44.756 173.227 29.116 170.192 29.116"></polygon>
                <polygon id="Fill-7" fill="#FFFFFF" mask="url(#mask-2)" points="176.2624 44.7555 176.2624 29.1155 179.2984 29.1155 179.2984 42.2065 185.8774 42.2065 185.8774 44.7555"></polygon>
                <polygon id="Fill-8" fill="#FFFFFF" mask="url(#mask-2)" points="187.1989 44.7555 187.1989 29.1155 196.8139 29.1155 196.8139 31.6885 190.2339 31.6885 190.2339 35.5335 195.2619 35.5335 195.0309 38.2215 190.2339 38.2215 190.2339 42.2305 196.8139 42.2305 196.8139 44.7555"></polygon>
                <polygon id="Fill-9" fill="#FFFFFF" mask="url(#mask-2)" points="203.5563 44.7555 203.5563 29.1155 206.5923 29.1155 206.5923 42.2065 213.1723 42.2065 213.1723 44.7555"></polygon>
                <path d="M219.2428,31.5026 C216.5088,31.5026 215.7908,33.9816 215.7908,36.7846 C215.7908,39.8906 216.4858,42.4396 219.2428,42.4396 C221.9308,42.4396 222.7188,39.9366 222.7188,36.7846 C222.7188,33.9356 221.9768,31.5026 219.2428,31.5026 M219.2428,44.9876 C214.0758,44.9876 212.5938,41.0716 212.5938,36.8086 C212.5938,32.7076 214.0288,28.8846 219.2428,28.8846 C224.5498,28.8846 225.9388,32.6606 225.9388,36.8086 C225.9388,41.0016 224.4098,44.9876 219.2428,44.9876" id="Fill-10" fill="#FFFFFF" mask="url(#mask-2)"></path>
                <polygon id="Fill-11" fill="#FFFFFF" mask="url(#mask-2)" points="150.7751 66.3444 150.7751 59.8564 144.9821 59.8564 144.9821 66.3444 141.9241 66.3444 141.9241 50.7034 144.9821 50.7034 144.9821 57.0994 150.7751 57.0994 150.7751 50.7034 153.8571 50.7034 153.8571 66.3444"></polygon>
                <path d="M161.2946,53.3688 L159.5796,60.3658 L163.8436,60.3658 L162.2436,53.3688 L161.2946,53.3688 Z M158.1906,66.3448 L155.2246,66.3448 L159.4646,50.7038 L164.5156,50.7038 L168.6156,66.3448 L165.2096,66.3448 L164.3986,62.8218 L159.0236,62.8218 L158.1906,66.3448 Z" id="Fill-12" fill="#FFFFFF" mask="url(#mask-2)"></path>
                <path d="M175.776,66.5759 C171.374,66.5759 169.01,63.6569 169.01,58.4429 C169.01,53.5779 171.35,50.4719 175.776,50.4719 C177.908,50.4719 179.831,50.9359 181.105,51.7939 L179.947,54.2489 C179.135,53.6239 177.722,53.1609 176.1,53.1609 C173.505,53.1609 172.208,54.9909 172.208,58.4199 C172.208,62.0339 173.505,63.8879 176.054,63.8879 C177.584,63.8879 179.113,63.2389 180.178,62.4509 L181.152,64.9079 C179.599,65.9729 177.839,66.5759 175.776,66.5759" id="Fill-13" fill="#FFFFFF" mask="url(#mask-2)"></path>
                <polygon id="Fill-14" fill="#FFFFFF" mask="url(#mask-2)" points="182.9128 66.3444 182.9128 50.7034 192.5278 50.7034 192.5278 53.2764 185.9478 53.2764 185.9478 57.1224 190.9758 57.1224 190.7438 59.8104 185.9478 59.8104 185.9478 63.8184 192.5278 63.8184 192.5278 66.3444"></polygon>
                <path d="M208.1217,66.3444 L207.7977,53.1374 L207.7047,53.1374 C207.4267,54.8054 207.1477,56.0104 206.9397,56.9134 L204.7157,66.3444 L200.2437,66.3444 L198.1117,56.9134 C197.9027,56.0104 197.6257,54.8054 197.3247,53.1374 L197.2307,53.1374 L197.0227,66.3444 L194.2427,66.3444 L194.8457,50.7034 L200.0587,50.7034 C200.0587,50.7034 201.7727,58.5814 202.6767,63.6334 L202.7457,63.6334 C203.7887,58.6054 205.8277,50.7034 205.8277,50.7034 L210.9477,50.7034 L211.5507,66.3444 L208.1217,66.3444 Z" id="Fill-15" fill="#FFFFFF" mask="url(#mask-2)"></path>
                <path d="M220.0085,53.0905 C217.2745,53.0905 216.5565,55.5695 216.5565,58.3735 C216.5565,61.4785 217.2515,64.0275 220.0085,64.0275 C222.6965,64.0275 223.4845,61.5255 223.4845,58.3735 C223.4845,55.5245 222.7415,53.0905 220.0085,53.0905 M220.0085,66.5755 C214.8415,66.5755 213.3585,62.6595 213.3585,58.3975 C213.3585,54.2955 214.7945,50.4725 220.0085,50.4725 C225.3145,50.4725 226.7045,54.2485 226.7045,58.3975 C226.7045,62.5905 225.1755,66.5755 220.0085,66.5755" id="Fill-16" fill="#FFFFFF" mask="url(#mask-2)"></path>
                <path d="M232.8219,66.5759 C230.7359,66.5759 228.9749,65.8349 227.7239,64.9079 L228.8829,62.5209 C229.7859,63.3089 231.4309,64.0269 232.8679,64.0269 C234.3039,64.0269 235.2779,63.1459 235.2779,61.9649 C235.2779,58.6509 228.0489,60.2969 228.0489,54.7819 C228.0489,52.4189 229.9019,50.4719 233.5629,50.4719 C235.3929,50.4719 236.9459,50.8669 238.2199,51.5379 L237.2009,53.9719 C236.3429,53.4619 234.9529,53.1139 233.5159,53.1139 C232.1029,53.1139 231.1759,53.5779 231.1759,54.7359 C231.1759,57.5399 238.4519,56.4499 238.4519,61.7799 C238.4519,64.2589 236.3899,66.5759 232.8219,66.5759" id="Fill-17" fill="#FFFFFF" mask="url(#mask-2)"></path>
                <polygon id="Fill-18" fill="#FFFFFF" mask="url(#mask-2)" points="147.6706 74.8649 147.6706 87.9319 144.5196 87.9319 144.5196 74.8649 140.7426 74.8649 140.7426 72.2929 151.5636 72.2929 151.5636 74.8649"></polygon>
                <path d="M157.611,74.6794 C154.877,74.6794 154.159,77.1584 154.159,79.9624 C154.159,83.0674 154.853,85.6164 157.611,85.6164 C160.299,85.6164 161.087,83.1134 161.087,79.9624 C161.087,77.1124 160.344,74.6794 157.611,74.6794 M157.611,88.1644 C152.444,88.1644 150.961,84.2484 150.961,79.9854 C150.961,75.8844 152.397,72.0614 157.611,72.0614 C162.917,72.0614 164.307,75.8374 164.307,79.9854 C164.307,84.1794 162.778,88.1644 157.611,88.1644" id="Fill-19" fill="#FFFFFF" mask="url(#mask-2)"></path>
                <path d="M171.4665,74.7487 L169.4045,74.7487 L169.4045,85.2907 C169.9375,85.4537 170.9805,85.6157 172.0925,85.6157 C174.1315,85.6157 175.7765,84.4347 175.7765,79.9387 C175.7765,76.1627 174.5945,74.7487 171.4665,74.7487 M171.9305,88.1647 C169.6595,88.1647 167.8065,87.7477 166.3685,87.3307 L166.3685,72.2927 L171.5825,72.2927 C176.1235,72.2927 178.9965,74.1467 178.9965,79.9627 C178.9965,85.0367 176.7955,88.1647 171.9305,88.1647" id="Fill-20" fill="#FFFFFF" mask="url(#mask-2)"></path>
                <path d="M187.4079,74.6794 C184.6739,74.6794 183.9559,77.1584 183.9559,79.9624 C183.9559,83.0674 184.6509,85.6164 187.4079,85.6164 C190.0959,85.6164 190.8839,83.1134 190.8839,79.9624 C190.8839,77.1124 190.1409,74.6794 187.4079,74.6794 M187.4079,88.1644 C182.2409,88.1644 180.7589,84.2484 180.7589,79.9854 C180.7589,75.8844 182.1939,72.0614 187.4079,72.0614 C192.7139,72.0614 194.1039,75.8374 194.1039,79.9854 C194.1039,84.1794 192.5749,88.1644 187.4079,88.1644" id="Fill-21" fill="#FFFFFF" mask="url(#mask-2)"></path>
                <path d="M200.2213,88.1647 C198.1353,88.1647 196.3743,87.4227 195.1233,86.4967 L196.2823,84.1097 C197.1853,84.8967 198.8303,85.6157 200.2673,85.6157 C201.7033,85.6157 202.6773,84.7347 202.6773,83.5537 C202.6773,80.2397 195.4483,81.8857 195.4483,76.3707 C195.4483,74.0077 197.3013,72.0607 200.9623,72.0607 C202.7923,72.0607 204.3453,72.4547 205.6193,73.1267 L204.6003,75.5607 C203.7423,75.0507 202.3533,74.7027 200.9153,74.7027 C199.5023,74.7027 198.5753,75.1657 198.5753,76.3247 C198.5753,79.1287 205.8513,78.0387 205.8513,83.3677 C205.8513,85.8477 203.7893,88.1647 200.2213,88.1647" id="Fill-22" fill="#FFFFFF" mask="url(#mask-2)"></path>
                <polygon id="Fill-23" fill="#0F69B4" mask="url(#mask-2)" points="-0.001 117.049 52.811 117.049 52.811 0 -0.001 0"></polygon>
                <polygon id="Fill-24" fill="#EB3C46" mask="url(#mask-2)" points="52.811 117.049 128.91 117.049 128.91 0 52.811 0"></polygon>
                <path d="M62.9586,110.8024 C62.1866,111.1674 61.5416,111.3294 60.8186,111.3294 C59.1046,111.3294 58.2986,110.1244 58.2986,108.3084 C58.2986,106.5684 59.1626,105.3884 60.9556,105.3884 C61.8296,105.3884 62.3896,105.6004 62.8386,105.8974 L62.3636,106.7394 C62.0416,106.5254 61.5576,106.3724 60.9646,106.3724 C59.9376,106.3724 59.4706,107.1534 59.4706,108.2904 C59.4706,109.6414 59.9626,110.3794 60.9296,110.3794 C61.3036,110.3794 61.6596,110.3034 61.9306,110.1754 L61.9306,109.1234 L61.1416,109.1234 L61.0816,108.2984 L62.9586,108.2984 L62.9586,110.8024 Z" id="Fill-25" fill="#FFFFFF" mask="url(#mask-2)"></path>
                <path d="M66.4577,109.1579 C66.4577,108.1559 66.1607,107.8059 65.6437,107.8059 C65.1257,107.8059 64.8377,108.1639 64.8377,109.1579 C64.8377,110.1259 65.0997,110.5139 65.6437,110.5139 C66.1867,110.5139 66.4577,110.1499 66.4577,109.1579 M67.5977,109.1579 C67.5977,110.5739 66.8827,111.3299 65.6437,111.3299 C64.3947,111.3299 63.6897,110.5829 63.6897,109.1579 C63.6897,107.9339 64.3707,107.0009 65.6437,107.0009 C66.8997,107.0009 67.5977,107.9339 67.5977,109.1579" id="Fill-26" fill="#FFFFFF" mask="url(#mask-2)"></path>
                <path d="M69.5329,110.0905 C69.7029,110.3195 69.9919,110.5145 70.2879,110.5145 C70.7709,110.5145 71.1299,110.1585 71.1299,109.1575 C71.1299,108.1635 70.8139,107.8155 70.3049,107.8155 C70.0249,107.8155 69.7209,107.9605 69.5329,108.1465 L69.5329,110.0905 Z M69.4569,107.5095 C69.6439,107.2555 70.0919,107.0005 70.5589,107.0005 C71.5369,107.0005 72.2399,107.6965 72.2399,109.1575 C72.2399,110.5915 71.3909,111.3295 70.4239,111.3295 C69.8299,111.3295 69.4829,111.1005 69.2179,110.7425 L69.0139,111.2435 L68.4219,111.2435 L68.4219,105.3895 L69.5329,105.3895 L69.5329,106.8395 L69.4569,107.5095 Z" id="Fill-27" fill="#FFFFFF" mask="url(#mask-2)"></path>
                <path d="M73.388,106.397 L74.509,106.397 L74.509,105.388 L73.388,105.388 L73.388,106.397 Z M73.422,111.244 L73.422,107.9 L72.946,107.8 L72.946,107.086 L74.524,107.086 L74.524,111.244 L73.422,111.244 Z" id="Fill-28" fill="#FFFFFF" mask="url(#mask-2)"></path>
                <path d="M77.2585,107.8151 C76.7075,107.8151 76.4875,108.3151 76.4875,108.8071 L78.0055,108.8071 C78.0055,108.2741 77.8375,107.8151 77.2585,107.8151 Z M76.4875,109.4621 C76.4875,110.1251 76.8615,110.4901 77.5565,110.4901 C77.9875,110.4901 78.4065,110.3101 78.7705,110.1321 L78.9825,110.9141 C78.6345,111.1001 78.0825,111.3301 77.4215,111.3301 C76.1215,111.3301 75.3665,110.5321 75.3665,109.1571 C75.3665,107.8751 75.9785,107.0011 77.3105,107.0011 C78.5675,107.0011 79.0675,107.9341 79.0675,108.9791 L79.0675,109.4621 L76.4875,109.4621 Z" id="Fill-29" fill="#FFFFFF" mask="url(#mask-2)"></path>
                <path d="M82.2702,108.0104 C82.1342,107.9684 81.9482,107.9444 81.7502,107.9444 C81.4552,107.9444 81.1922,108.0714 81.0042,108.2254 L81.0042,111.2434 L79.9012,111.2434 L79.9012,107.0854 L80.6732,107.0854 C80.7152,107.2814 80.7592,107.4604 80.7932,107.6454 L80.8272,107.6454 C80.9532,107.3494 81.3282,107.0094 81.8182,107.0094 C82.0412,107.0094 82.2012,107.0424 82.2942,107.0694 C82.2852,107.3834 82.2852,107.6974 82.2702,108.0104" id="Fill-30" fill="#FFFFFF" mask="url(#mask-2)"></path>
                <path d="M85.5221,111.2438 L85.5221,108.7738 C85.5221,108.1458 85.2821,107.8498 84.7751,107.8498 C84.4851,107.8498 84.2401,107.9778 84.0441,108.1038 L84.0441,111.2438 L82.9321,111.2438 L82.9321,107.0858 L83.6971,107.0858 L83.8671,107.5608 C84.1031,107.2808 84.5621,107.0008 85.1831,107.0008 C86.2351,107.0008 86.6491,107.6208 86.6491,108.6738 L86.6491,111.2438 L85.5221,111.2438 Z" id="Fill-31" fill="#FFFFFF" mask="url(#mask-2)"></path>
                <path d="M90.1588,109.1579 C90.1588,108.1559 89.8588,107.8059 89.3418,107.8059 C88.8258,107.8059 88.5388,108.1639 88.5388,109.1579 C88.5388,110.1259 88.8008,110.5139 89.3418,110.5139 C89.8858,110.5139 90.1588,110.1499 90.1588,109.1579 M91.2958,109.1579 C91.2958,110.5739 90.5818,111.3299 89.3418,111.3299 C88.0958,111.3299 87.3888,110.5829 87.3888,109.1579 C87.3888,107.9339 88.0708,107.0009 89.3418,107.0009 C90.5998,107.0009 91.2958,107.9339 91.2958,109.1579" id="Fill-32" fill="#FFFFFF" mask="url(#mask-2)"></path>
                <path d="M96.5846,108.0368 C96.4156,107.9338 96.1536,107.8328 95.8306,107.8328 C95.3046,107.8328 94.9726,108.1898 94.9726,109.1578 C94.9726,110.1498 95.2886,110.5228 95.8146,110.5228 C96.0926,110.5228 96.3746,110.3898 96.5846,110.1668 L96.5846,108.0368 Z M96.6886,107.4088 C96.6186,107.1708 96.5846,106.9598 96.5846,106.6448 L96.5846,105.3888 L97.6896,105.3888 L97.6896,111.2438 L96.7896,111.2438 L96.6616,110.7868 C96.4936,111.0408 96.0926,111.3298 95.5596,111.3298 C94.6156,111.3298 93.8606,110.6508 93.8606,109.1658 C93.8606,107.7908 94.6426,107.0008 95.6526,107.0008 C96.1036,107.0008 96.4596,107.1538 96.6886,107.4088 Z" id="Fill-33" fill="#FFFFFF" mask="url(#mask-2)"></path>
                <path d="M100.4245,107.8151 C99.8725,107.8151 99.6525,108.3151 99.6525,108.8071 L101.1715,108.8071 C101.1715,108.2741 101.0015,107.8151 100.4245,107.8151 Z M99.6525,109.4621 C99.6525,110.1251 100.0255,110.4901 100.7205,110.4901 C101.1535,110.4901 101.5705,110.3101 101.9375,110.1321 L102.1485,110.9141 C101.7995,111.1001 101.2475,111.3301 100.5865,111.3301 C99.2875,111.3301 98.5315,110.5321 98.5315,109.1571 C98.5315,107.8751 99.1425,107.0011 100.4755,107.0011 C101.7325,107.0011 102.2325,107.9341 102.2325,108.9791 L102.2325,109.4621 L99.6525,109.4621 Z" id="Fill-34" fill="#FFFFFF" mask="url(#mask-2)"></path>
                <path d="M107.2858,111.3298 C105.6728,111.3298 104.8158,110.2448 104.8158,108.3348 C104.8158,106.5758 105.6648,105.3898 107.2858,105.3898 C108.0658,105.3898 108.7708,105.5588 109.2378,105.8718 L108.8128,106.7548 C108.5168,106.5348 107.9978,106.3638 107.4038,106.3638 C106.4528,106.3638 105.9788,107.0688 105.9788,108.3248 C105.9788,109.6488 106.4528,110.3528 107.3858,110.3528 C107.9468,110.3528 108.5088,110.1168 108.8988,109.8278 L109.2538,110.7198 C108.6848,111.1098 108.0408,111.3298 107.2858,111.3298" id="Fill-35" fill="#FFFFFF" mask="url(#mask-2)"></path>
                <path d="M110.0202,111.2438 L110.0202,105.3888 L111.1312,105.3888 L111.1312,106.9258 C111.1312,107.2138 111.0402,107.5018 111.0232,107.5678 C111.2582,107.2808 111.6072,107.0008 112.2002,107.0008 C113.3992,107.0008 113.7382,107.6208 113.7382,108.6738 L113.7382,111.2438 L112.6102,111.2438 L112.6102,108.7738 C112.6102,108.6648 112.5922,108.5788 112.5492,108.5198 C112.5152,108.0538 112.2772,107.8498 111.8642,107.8498 C111.5742,107.8498 111.3282,107.9778 111.1312,108.1038 L111.1312,111.2438 L110.0202,111.2438 Z" id="Fill-36" fill="#FFFFFF" mask="url(#mask-2)"></path>
                <path d="M114.944,106.397 L116.066,106.397 L116.066,105.388 L114.944,105.388 L114.944,106.397 Z M114.979,111.244 L114.979,107.9 L114.504,107.8 L114.504,107.086 L116.082,107.086 L116.082,111.244 L114.979,111.244 Z" id="Fill-37" fill="#FFFFFF" mask="url(#mask-2)"></path>
                <path d="M117.0944,110.1413 L117.0944,105.3883 L118.1884,105.3883 L118.1884,110.0803 C118.1884,110.4303 118.4004,110.4823 118.8584,110.4823 L118.8584,111.2623 C118.8584,111.2623 118.5364,111.3293 118.2474,111.3293 C117.3994,111.3293 117.0944,110.8803 117.0944,110.1413" id="Fill-38" fill="#FFFFFF" mask="url(#mask-2)"></path>
                <path d="M121.3131,107.8151 C120.7611,107.8151 120.5421,108.3151 120.5421,108.8071 L122.0611,108.8071 C122.0611,108.2741 121.8901,107.8151 121.3131,107.8151 Z M120.5421,109.4621 C120.5421,110.1251 120.9151,110.4901 121.6101,110.4901 C122.0431,110.4901 122.4591,110.3101 122.8241,110.1321 L123.0361,110.9141 C122.6871,111.1001 122.1371,111.3301 121.4761,111.3301 C120.1761,111.3301 119.4201,110.5321 119.4201,109.1571 C119.4201,107.8751 120.0321,107.0011 121.3651,107.0011 C122.6221,107.0011 123.1221,107.9341 123.1221,108.9791 L123.1221,109.4621 L120.5421,109.4621 Z" id="Fill-39" fill="#FFFFFF" mask="url(#mask-2)"></path>
                <path d="M27.5085,16.0593 C27.6245,15.9633 27.8685,15.7533 27.6715,15.3563 C27.5765,15.1693 27.3295,15.1523 27.4375,15.1293 C28.7615,14.8183 29.4695,12.8853 29.4285,12.1443 C30.1095,12.7723 31.6365,12.9523 32.7435,12.0093 C33.4595,11.3213 33.8055,9.5093 32.5805,8.6023 C31.9545,8.1403 30.8455,8.0993 30.1515,8.6363 C29.9315,8.2673 29.5495,8.0033 29.1415,8.0003 C29.1355,7.8713 29.1585,6.9993 28.6415,6.4343 C27.9795,5.7123 26.1175,5.6583 25.4425,6.4483 C24.1055,6.1133 22.3685,6.7293 22.4665,8.8233 C21.5265,8.4523 20.9885,8.4473 20.4915,8.4923 C20.0255,8.5363 19.4015,8.9533 19.1855,9.2403 C19.0865,9.3673 18.9755,9.5463 18.8945,9.7023 C18.7415,10.0023 18.6245,10.3983 18.6675,10.8383 C18.7375,11.5833 19.1045,12.2103 19.6455,12.5083 C20.3915,12.9163 21.3365,12.8613 21.6745,12.8073 C21.9335,12.7503 22.2115,12.6563 22.5055,12.3483 C22.5925,12.2603 22.6555,12.1203 22.7815,12.1183 C22.7795,12.3063 22.7105,13.3103 23.8305,13.7873 C23.8355,13.8343 23.8515,13.8813 23.8625,13.9533 C24.2165,15.3333 25.1465,15.1633 25.1605,15.2593 C24.7495,15.5093 24.9235,15.8713 25.0215,16.0583 C25.6505,15.8653 26.1155,15.8383 26.2645,15.8383 C26.4125,15.8383 26.8785,15.8653 27.5085,16.0593" id="Fill-40" fill="#FFFFFF" mask="url(#mask-2)"></path>
                <path d="M29.9254,20.2145 L27.5114,21.9435 L28.4354,24.6755 L26.1174,22.9175 L23.8024,24.6755 L24.7254,21.9435 L22.3114,20.2165 L22.3024,20.2135 L25.2814,20.2135 L26.1174,17.4485 L26.9534,20.2135 L29.9314,20.2135 L29.9254,20.2145 Z M30.6504,20.2285 C30.6464,18.8435 31.5804,17.7735 31.5934,17.7595 C31.6954,17.6445 31.7054,17.5365 31.6984,17.4615 C31.6804,17.3335 31.5804,17.2475 31.5604,17.2445 C31.2934,17.0645 30.6944,16.6975 30.6944,16.6975 L30.6464,16.6545 L30.5944,16.6545 C30.5294,16.6545 30.4804,16.6935 30.3984,16.7555 C30.2324,16.8835 29.9234,17.1215 29.3854,17.1215 C29.2904,17.1215 29.1934,17.1125 29.0884,17.0995 C28.8074,17.0605 28.3354,16.8195 28.3354,16.8195 C28.1804,16.7385 27.9884,16.6545 27.9104,16.6195 L27.8764,16.6065 C27.1044,16.2855 26.4474,16.2605 26.2644,16.2605 C26.0804,16.2605 25.4244,16.2855 24.6504,16.6065 L24.6144,16.6195 C24.5734,16.6385 24.5024,16.6705 24.4204,16.7075 L23.9504,16.9315 C23.7924,17.0005 23.5914,17.0785 23.4364,17.0995 C23.3354,17.1125 23.2384,17.1215 23.1404,17.1215 C22.6034,17.1215 22.2944,16.8835 22.1264,16.7555 C22.0444,16.6935 21.9934,16.6545 21.9314,16.6545 L21.8844,16.6595 L21.8574,16.6785 C21.8534,16.6795 21.2414,17.0575 20.9874,17.2325 C20.9464,17.2505 20.8504,17.3325 20.8304,17.4635 C20.8214,17.5365 20.8314,17.6445 20.9364,17.7595 C20.9734,17.8055 21.8814,18.8585 21.8784,20.2485 C21.9024,20.4065 21.9714,21.2425 21.2604,22.4705 C21.2274,22.5325 20.4454,23.9635 21.3004,25.2175 C21.3044,25.2305 21.9454,26.3975 23.8164,26.3975 C23.9684,26.3975 25.3504,26.4225 25.8254,27.3055 C25.8464,27.3405 26.0684,27.6935 26.1554,27.8675 L26.2644,28.0795 L26.3684,27.8675 C26.4594,27.6955 26.6774,27.3455 26.7094,27.2965 C27.1774,26.4225 28.5594,26.3975 28.7124,26.3975 C30.5574,26.3975 31.2164,25.2355 31.2164,25.2355 C32.0934,23.9495 31.2724,22.4785 31.2674,22.4705 C30.5574,21.2425 30.6254,20.4065 30.6504,20.2285 Z" id="Fill-41" fill="#FFFFFF" mask="url(#mask-2)"></path>
                <path d="M35.2614,33.0446 C35.1714,32.9356 35.0524,32.4346 35.0524,32.4346 C34.9834,32.1526 34.8814,31.9216 34.7834,31.6876 C35.0924,31.6016 35.3914,31.4956 35.6944,31.3976 C35.6604,32.3286 35.2614,33.0446 35.2614,33.0446 M31.4754,34.1396 C31.1714,34.0946 31.0134,33.1596 30.9354,32.4336 C32.0784,32.2866 33.1864,32.0826 34.2484,31.8116 C34.6044,32.6926 34.6964,33.5376 34.6964,33.5376 C33.3834,34.8886 31.4754,34.1396 31.4754,34.1396 M31.8864,29.8196 C32.5034,29.8296 32.9874,30.0736 33.3654,30.4316 C32.6484,30.5956 31.8064,30.7476 30.8774,30.8776 C31.0324,29.8086 31.8864,29.8196 31.8864,29.8196 M30.5324,28.5546 C33.4354,27.4516 35.0524,29.4136 35.0524,29.4136 C35.1794,29.5716 35.2644,29.7336 35.3494,29.8966 C34.9444,30.0236 34.4284,30.1656 33.8554,30.3096 C32.8164,29.3236 31.5624,29.2406 31.4584,29.2186 C30.6614,29.0426 30.4734,28.5736 30.5324,28.5546 M27.1984,31.1706 C27.6464,30.2526 28.6274,29.6486 28.9924,29.1436 C29.1994,28.8596 29.5014,28.8506 29.5014,28.8506 C29.9224,28.8466 30.0074,29.8236 30.1284,30.9806 C29.2394,31.0826 28.2474,31.1436 27.1984,31.1706 M22.6064,30.9796 C22.7284,29.8226 22.8134,28.8466 23.2334,28.8506 C23.2334,28.8506 23.5354,28.8596 23.7414,29.1436 C24.1054,29.6486 25.0874,30.2526 25.5354,31.1706 C24.4874,31.1426 23.4944,31.0816 22.6064,30.9796 M21.2764,29.2186 C21.1724,29.2406 19.9204,29.3236 18.8814,30.3066 C18.3084,30.1626 17.7914,30.0196 17.3874,29.8926 C17.4714,29.7316 17.5554,29.5706 17.6804,29.4136 C17.6804,29.4136 19.2994,27.4516 22.2014,28.5546 C22.2584,28.5736 22.0734,29.0426 21.2764,29.2186 M19.3724,30.4276 C19.7514,30.0716 20.2354,29.8296 20.8504,29.8196 C20.8504,29.8196 21.7014,29.8096 21.8574,30.8756 C20.9284,30.7446 20.0894,30.5936 19.3724,30.4276 M21.2604,34.1396 C21.2604,34.1396 19.3514,34.8886 18.0384,33.5376 C18.0384,33.5376 18.1314,32.6916 18.4884,31.8086 C19.5504,32.0796 20.6574,32.2836 21.8004,32.4316 C21.7224,33.1576 21.5644,34.0946 21.2604,34.1396 M17.6804,32.4346 C17.6804,32.4346 17.5634,32.9356 17.4744,33.0446 C17.4744,33.0446 17.0724,32.3256 17.0394,31.3926 C17.3424,31.4896 17.6414,31.5966 17.9514,31.6846 C17.8524,31.9186 17.7504,32.1516 17.6804,32.4346 M13.1894,31.1346 C13.1894,31.1346 13.0994,31.2126 13.0014,31.0956 C12.0534,29.9316 13.5004,28.6086 13.9614,29.4146 C13.9614,29.4146 13.4164,29.4346 13.4764,29.8186 C13.4764,29.8186 13.4864,30.2156 13.9764,30.1906 C13.9764,30.1906 14.6584,30.1206 14.4964,29.2976 C14.4964,29.2976 14.4084,28.9276 13.9904,28.8006 C13.9904,28.8006 12.7954,28.4756 12.2874,29.5156 C12.2874,29.5156 12.1834,29.7646 12.1674,30.1416 C12.0294,30.0296 11.8724,29.9416 11.7024,29.9146 C11.4794,29.6796 11.0884,27.7716 11.3384,26.7906 C13.1654,26.4086 13.7294,24.8986 13.8144,24.4716 C14.1844,24.5926 14.4014,25.0196 14.4194,25.1996 C14.4494,25.4466 14.3334,25.7036 14.4794,25.9046 C14.6924,26.2016 15.1654,26.4726 15.4564,26.6686 C15.5554,26.7326 16.8954,27.7696 17.0674,27.8046 C17.2594,27.8446 17.3754,27.7016 17.5424,27.7316 C17.6024,27.7436 17.6434,27.7866 17.6894,27.8216 C17.6894,27.8216 17.7844,27.9186 17.9214,28.0166 C17.5704,28.2486 17.1114,28.5826 16.5054,29.1216 C16.5054,29.1216 16.0414,29.7226 13.1894,31.1346 M46.7994,31.6996 C46.4964,31.3326 45.6944,31.5156 45.6944,31.5156 C46.1264,30.2316 44.9394,29.8906 44.9394,29.8906 C44.5154,29.7776 44.2364,29.8576 44.0544,29.9816 C44.0544,29.9816 44.0464,29.9856 44.0414,29.9896 C44.0374,29.9936 44.0334,29.9946 44.0334,29.9986 C44.0024,30.0216 43.9754,30.0406 43.9494,30.0666 C43.8434,30.1796 43.7764,30.3306 43.7764,30.4956 C43.7764,30.8346 44.0544,31.1116 44.3944,31.1116 C44.5264,31.1116 44.6484,31.0696 44.7484,31.0006 C44.8704,30.9136 44.9604,30.7826 44.9934,30.6346 C45.1594,30.7396 45.2214,30.9226 45.2214,30.9226 C45.5674,32.0166 44.3354,32.4086 44.3354,32.4086 C41.6184,33.2256 39.9564,31.8216 39.9564,31.8216 L40.4324,31.5676 C40.5954,31.4956 40.7454,31.4756 40.8634,31.4756 C40.8584,31.4966 40.8534,31.5266 40.8534,31.5556 C40.8534,31.8476 41.0974,32.0876 41.3934,32.0876 C41.6894,32.0876 41.9314,31.8476 41.9314,31.5556 C41.9284,31.3326 41.8224,31.2256 41.8224,31.2256 C41.5054,30.7456 40.4074,31.0636 40.4074,31.0636 C40.7734,30.1616 40.4474,29.5156 40.4474,29.5156 C39.9404,28.4756 38.7424,28.8006 38.7424,28.8006 C38.3244,28.9276 38.2384,29.2976 38.2384,29.2976 C38.0754,30.1206 38.7584,30.1906 38.7584,30.1906 C39.2494,30.2156 39.2544,29.8186 39.2544,29.8186 C39.3184,29.4346 38.7754,29.4146 38.7754,29.4146 C39.2334,28.6086 40.6784,29.9316 39.7334,31.0956 C39.6354,31.2126 39.5444,31.1346 39.5444,31.1346 C37.8534,30.2966 37.0134,29.7506 36.6014,29.4396 C36.5624,28.9796 36.1584,28.7456 36.2364,28.6226 C36.3024,28.5956 36.5414,28.7156 36.6744,28.5156 C36.7234,28.4416 36.8344,27.7136 36.9244,27.1966 C38.4214,27.8806 39.6984,27.6726 39.9564,27.5896 C40.0874,27.5356 40.1944,27.4416 40.1964,27.2456 C40.2204,26.6756 38.7424,23.3216 38.7014,22.1386 C39.4004,22.4836 39.8304,21.4066 39.9564,21.0786 C40.8954,21.5066 41.2174,30.2086 41.9394,30.5016 C42.3004,30.6486 42.4434,30.0566 42.4764,29.9456 C43.6364,26.0666 43.6774,22.2896 43.6004,21.0236 C43.4844,19.0386 43.3244,17.2626 42.8454,15.6286 C42.5524,14.6226 41.9834,12.5696 40.6564,12.2896 C40.0334,12.1576 39.5634,12.7376 39.5734,13.2586 C39.5834,13.7086 39.8954,13.9266 39.7564,14.3696 C39.5914,14.6586 39.4244,14.9746 39.3434,15.2986 C39.2634,15.6216 39.5504,15.7536 39.4574,16.0976 C39.0374,16.0336 38.8274,16.4016 38.1674,16.2336 C38.5974,16.0336 38.6034,14.8076 38.0754,14.5976 C37.9974,14.5656 37.9074,14.5536 37.8934,14.4826 C37.8934,14.4826 38.0644,14.3016 38.1494,14.1246 C38.4514,13.5036 38.4494,12.9566 38.2084,12.5436 C38.4274,12.5636 38.6554,12.1616 38.6854,11.8416 L38.6904,11.8446 L38.6904,11.8186 L38.6904,11.8166 C38.6954,11.7326 38.6804,11.4516 38.8074,11.1906 C38.8484,11.1056 38.8074,11.0066 38.7344,10.9686 C38.6584,10.9336 38.5594,10.9656 38.5164,11.0526 C38.3864,11.3266 38.0754,11.1736 38.2074,10.8986 C38.2464,10.8116 38.2074,10.7156 38.1324,10.6786 C38.0594,10.6446 37.9584,10.6706 37.9174,10.7586 C37.7924,11.0236 37.4904,10.8746 37.6154,10.6096 C37.6554,10.5246 37.6164,10.4266 37.5434,10.3916 C37.4724,10.3576 37.3704,10.3856 37.3264,10.4736 C37.1984,10.7456 36.8844,10.5956 37.0154,10.3236 C37.0554,10.2326 37.0154,10.1366 36.9424,10.0996 C36.8684,10.0676 36.7704,10.0956 36.7274,10.1816 C36.5884,10.4696 36.4924,10.5906 36.3474,10.7056 C36.0544,10.7576 36.1324,11.0956 36.1664,11.3236 C35.6174,11.2046 35.2034,11.6226 35.1884,11.9986 L35.1254,11.9986 C34.6724,12.0096 34.2384,12.2446 34.2724,12.6626 C34.2874,12.8996 34.5664,13.1956 34.6724,13.1996 C34.7214,13.1836 34.6474,12.9476 34.8834,12.9326 C35.0984,12.9206 35.4184,13.1046 35.4574,13.3086 C35.5044,13.5416 35.3144,14.1026 36.0554,14.1856 C36.0554,14.1856 36.0494,14.2996 36.0384,14.4196 C35.7734,14.4016 35.7044,14.3876 35.4404,14.4286 C34.9724,14.5026 34.3304,14.7666 34.1734,15.2316 C34.1434,15.3086 34.1304,15.4706 34.1434,15.5826 C34.1534,15.6776 34.2404,15.7966 34.2294,15.9126 C34.2204,15.9686 34.1214,16.0866 34.0834,16.1226 C33.8894,16.3276 33.5274,16.5226 33.2064,16.5376 C32.8524,16.5566 32.5074,16.3276 32.3684,16.1376 C31.8984,15.5046 32.5074,14.4086 32.4984,14.0006 C32.4714,12.9136 31.0984,13.5606 30.5554,13.8446 C29.9074,14.1846 29.3914,14.7326 28.9564,15.2716 C28.7174,15.5656 28.4494,15.9386 28.3174,16.2516 C28.2924,16.3096 28.2404,16.3186 28.1844,16.3176 C28.4624,16.4426 28.9524,16.6256 29.3404,16.6306 C29.3404,16.6306 30.0994,16.7336 30.6424,16.2806 C30.6424,16.2806 30.7194,16.2136 30.8284,16.2136 C30.9074,16.2136 30.9764,16.2466 31.0364,16.3026 C31.0424,16.3096 31.1124,16.3656 31.1934,16.4306 C31.2404,16.4696 31.3014,16.5176 31.3654,16.5666 C31.3974,16.5926 31.4284,16.6176 31.4634,16.6456 C31.5554,16.7166 31.6524,16.7916 31.7504,16.8676 C31.7684,16.8816 31.7844,16.8956 31.8034,16.9086 C31.9104,16.9906 32.0174,17.0716 32.1114,17.1436 C32.2224,17.2276 32.3284,17.3066 32.3914,17.3476 L32.3964,17.3526 C32.4074,17.3606 32.4344,17.3876 32.4434,17.4286 C32.4464,17.4696 32.4264,17.5186 32.3904,17.5646 C32.3874,17.5656 32.3304,17.6296 32.2434,17.7396 C32.0624,17.9696 31.7554,18.4226 31.5214,18.9766 C31.7774,19.4216 32.2074,19.9536 32.8244,19.9596 C33.3184,19.9646 33.5194,19.7186 33.5924,19.4016 C33.6014,19.4096 33.6274,19.4416 33.6314,19.4436 C33.6914,19.3906 33.9624,20.8616 34.3214,21.2616 C33.9854,21.4176 33.4654,21.9446 33.7474,23.3976 C33.4704,23.1756 32.9614,22.7906 32.7184,22.5376 C32.5724,22.2366 32.2854,21.5276 31.4644,21.4596 C31.5834,21.8236 31.7554,22.2336 32.0204,22.6896 C32.0254,22.7016 32.5264,23.6236 32.3694,24.6706 C32.7144,24.3176 32.6604,23.3506 32.6604,23.3506 C32.6734,23.3366 32.7234,23.3226 32.7384,23.3176 C32.8074,23.3126 33.1534,23.9846 33.7474,24.1256 C34.5244,25.4526 35.3974,26.2946 36.2404,26.8276 C36.2244,27.1486 36.2634,27.9136 36.0564,27.9136 C35.3934,28.0606 34.7814,27.6126 34.1964,27.6436 C34.1464,27.6196 34.0944,27.5966 34.0944,27.5966 C31.5784,26.3846 28.2624,28.9856 27.7084,29.4896 C27.4174,29.7586 27.0804,29.3926 27.0804,29.3926 C26.8824,29.1426 26.6214,29.0286 26.3664,29.0586 C26.1144,29.0286 25.8514,29.1426 25.6544,29.3926 C25.6544,29.3926 25.3164,29.7586 25.0244,29.4896 C24.5014,29.0116 21.4954,26.6846 19.0384,27.4786 C19.0324,27.3446 18.7004,27.2756 18.6084,27.2406 C18.4124,27.1856 18.2414,27.0316 18.1194,26.9706 C17.8524,26.8366 17.4174,26.9196 17.1134,26.8836 C16.9934,26.8656 16.8274,26.8046 16.7224,26.7406 C16.3284,26.4976 15.8794,26.2016 15.6284,25.8476 C15.5894,25.7896 15.4904,25.6546 15.4714,25.6326 C15.3494,25.4796 15.2884,25.3656 15.1964,25.1116 C15.0614,24.6266 15.2704,24.1066 15.3414,23.6146 C15.3944,23.2516 15.3814,23.2286 15.4144,22.8376 C16.9744,22.3016 17.6124,21.1316 17.9764,20.5076 C18.0104,20.4586 18.1084,20.2606 18.1084,20.2606 C18.1764,20.2706 18.2454,20.2756 18.3214,20.2786 C18.9454,20.2826 19.3654,19.9356 20.0464,20.0186 C20.0464,20.0556 20.1384,20.3426 20.5814,20.5236 C20.5944,20.9716 20.6264,21.3406 20.7964,21.6886 C20.8344,21.7486 20.8804,21.7996 20.9144,21.8506 C21.2064,21.1306 21.2834,20.5706 21.2924,20.2326 C21.2714,20.2036 21.2524,20.1616 21.2404,20.0976 C21.0934,19.3376 20.7404,19.1296 20.4074,18.9386 C20.2414,18.8486 20.0604,18.8206 19.9034,18.7066 C19.6604,18.5396 19.4034,18.3616 19.2424,18.0496 C19.2424,18.0496 19.3224,17.9756 19.4074,17.8676 C19.8424,17.4106 20.0614,16.7396 20.2204,16.0046 C20.5534,15.5486 21.4794,15.7276 21.8314,15.7916 C21.9224,15.8026 22.0764,15.8366 22.1484,15.8926 C22.2474,15.9606 22.2704,16.1176 22.4084,16.1776 C22.5544,16.2376 22.7204,16.1926 22.8974,16.1776 C22.9624,16.2516 22.9974,16.3546 23.0444,16.4466 C23.0444,16.4466 23.0924,16.5326 23.1844,16.6296 C23.6164,16.6206 24.1984,16.3926 24.4434,16.2696 C24.4134,16.2496 24.3884,16.2316 24.3754,16.2116 C24.1804,15.9636 23.8894,15.6906 23.6154,15.6466 C23.2704,15.5896 23.1984,15.2806 22.8674,15.2156 C22.7834,15.1926 22.4914,15.1486 22.3924,15.1846 C21.6614,15.2796 21.1464,15.0026 20.4624,14.9536 C19.8134,14.9076 19.7924,15.3516 19.5564,15.7176 C19.4684,15.8556 19.3654,16.0166 19.2574,16.1186 C19.0774,16.2926 18.8694,16.2986 18.6534,16.4636 L18.5524,16.1926 C18.4924,15.9686 18.4084,15.7356 18.2614,15.5156 C17.9084,14.9616 17.5064,14.5336 16.7224,14.3536 C16.5734,14.2926 16.5494,14.2826 16.4504,14.2036 C16.3234,14.1046 16.4134,13.9856 16.4504,13.9746 C16.6734,13.8456 17.0594,13.8916 17.3134,13.7736 C17.9384,13.4826 17.7164,12.9526 17.4724,12.9096 C17.1584,12.8516 16.5894,12.7016 16.4784,12.6366 C16.3264,12.5406 16.0644,12.0646 15.8164,11.9466 C15.5414,11.8726 15.6364,11.4246 15.3834,11.3266 C15.2744,11.3086 15.1134,11.3636 14.9364,11.4516 C14.9254,11.3586 14.8584,10.8496 14.5774,10.6836 C14.3674,10.5636 14.2914,10.7496 14.3014,10.8716 C14.3134,10.9806 14.6094,11.1296 14.6644,11.6096 C14.6144,11.6426 14.5654,11.6706 14.5134,11.7066 C14.4734,11.5086 14.3844,11.2016 14.1794,11.0796 C13.9694,10.9596 13.8934,11.1466 13.9044,11.2676 C13.9134,11.3706 14.1734,11.5066 14.2554,11.9116 C14.1934,11.9636 14.1354,12.0156 14.0764,12.0686 C13.6574,11.9536 13.5444,11.6686 13.4394,11.6486 C13.3214,11.6226 13.1294,11.6836 13.2274,11.9036 C13.3294,12.1256 13.6444,12.2466 13.8364,12.3046 C13.7924,12.3506 13.7574,12.3966 13.7194,12.4406 C13.2334,12.3436 13.1144,12.0266 13.0054,12.0026 C12.8864,11.9806 12.6934,12.0396 12.7914,12.2586 C12.9334,12.5676 13.4854,12.6876 13.5364,12.6976 C13.4574,12.8296 13.4074,12.9506 13.4264,13.0366 C13.0474,12.9926 12.3744,13.1956 12.5014,13.6436 C12.6274,13.7336 13.0744,13.3686 13.4864,13.5716 C13.7584,13.9936 14.1934,14.0116 14.2914,14.0896 C14.4434,14.2096 14.4674,14.4266 14.5364,14.6226 C14.6584,14.9876 14.9134,15.2796 15.1264,15.6026 C15.3594,15.9566 15.6024,16.3276 15.8464,16.6376 C15.8764,16.7216 15.9024,16.8096 15.8874,16.9406 C15.6094,17.3826 14.7764,17.8996 14.4354,18.2196 C14.0894,18.5436 10.8294,21.0246 10.4194,22.1066 C10.3294,22.3496 10.2764,22.6596 10.2904,22.9826 C10.0914,23.0886 9.6544,23.2626 9.5164,23.0666 C9.2644,22.7176 9.7554,22.4516 9.6484,22.1136 C9.5974,21.9826 9.4074,21.8966 9.2874,21.9826 C8.4754,22.5656 8.8944,23.5976 9.4074,23.8316 C9.9724,24.0656 10.0534,23.4576 10.4904,23.7036 C10.5954,23.7636 11.6304,24.6876 11.4554,25.4176 C11.4464,25.4556 11.4064,25.5616 11.3854,25.5886 C11.1574,25.8696 10.7804,26.0876 10.5224,26.3516 C9.9834,26.6926 11.0324,28.8386 10.9464,29.9396 C10.8854,30.3566 11.2944,30.3086 11.5434,30.9636 C11.2884,30.9726 11.0374,31.0346 10.9104,31.2256 C10.9104,31.2256 10.8034,31.3326 10.8034,31.5556 C10.8034,31.8476 11.0424,32.0876 11.3394,32.0876 C11.6364,32.0876 11.8784,31.8476 11.8784,31.5556 C11.8784,31.5266 11.8764,31.4966 11.8724,31.4756 C11.9904,31.4756 12.1414,31.4956 12.3034,31.5676 L12.7784,31.8216 C12.7784,31.8216 11.1154,33.2256 8.4014,32.4086 C8.4014,32.4086 7.1684,32.0166 7.5144,30.9226 C7.5144,30.9226 7.5744,30.7396 7.7414,30.6346 C7.7744,30.7826 7.8644,30.9136 7.9864,31.0006 C8.0864,31.0696 8.2084,31.1116 8.3404,31.1116 C8.6794,31.1116 8.9554,30.8346 8.9554,30.4956 C8.9554,30.3306 8.8924,30.1796 8.7854,30.0666 C8.7584,30.0406 8.7334,30.0216 8.6994,29.9986 C8.6994,29.9946 8.6974,29.9936 8.6974,29.9936 C8.6874,29.9856 8.6844,29.9836 8.6844,29.9836 C8.4974,29.8576 8.2194,29.7776 7.7934,29.8906 C7.7934,29.8906 6.6094,30.2316 7.0384,31.5156 C7.0384,31.5156 6.2394,31.3326 5.9364,31.6996 C5.9364,31.6996 5.8314,31.8156 5.8404,32.0036 L5.8404,32.0106 L5.8404,32.0166 C5.8484,32.0926 5.8704,32.1796 5.9264,32.2776 C6.0104,32.3976 6.1494,32.4786 6.3074,32.4786 C6.4524,32.4786 6.5814,32.4106 6.6694,32.3066 C6.6694,32.3016 6.6724,32.3016 6.6724,32.3016 C6.7054,32.2596 6.8034,32.2026 6.9484,32.3536 C8.7484,34.2316 11.6854,33.4566 13.3144,32.1986 C13.3144,32.1986 14.2164,31.2896 15.2224,30.7336 C15.6144,30.9016 16.0304,31.0266 16.4344,31.1726 C16.4054,31.7576 16.5264,32.5936 17.1774,33.5666 C17.1774,33.5666 16.7194,34.4156 15.9434,33.9496 C15.9434,33.9496 15.3704,33.5086 15.8584,32.9766 C15.8584,32.9766 16.1844,32.7046 16.3244,33.0446 C16.1574,33.0546 16.0234,33.1906 16.0234,33.3596 C16.0234,33.5356 16.1624,33.6746 16.3364,33.6746 C16.5074,33.6746 16.6414,33.5426 16.6514,33.3786 C16.6664,33.2506 16.6734,32.9246 16.3934,32.6886 C16.3934,32.6886 16.1464,32.4196 15.6794,32.4946 C14.9954,32.6016 14.6104,34.0306 15.9594,34.6226 C15.9594,34.6226 17.0204,35.1066 17.5674,34.3156 C17.5674,34.3156 17.5584,34.1996 17.7634,34.3976 C18.8864,35.4846 21.3934,35.1696 22.3894,34.4296 C22.3894,34.4296 22.6414,34.2706 22.9164,34.1396 C22.9294,34.5576 23.2714,34.9006 23.6984,34.9006 C24.1274,34.9006 24.4774,34.5476 24.4774,34.1176 C24.4774,33.7326 24.1994,33.4146 23.8324,33.3496 C23.8164,33.3436 23.3184,33.2016 22.5904,33.6426 C22.5904,33.6426 21.8224,34.1246 21.8664,34.0506 C22.1254,33.6446 22.2854,33.0956 22.3974,32.5076 C23.4904,32.6286 24.6124,32.7076 25.7744,32.7326 C25.7594,33.0706 25.7134,33.4836 25.5824,33.7996 C25.5824,33.7996 25.1724,33.9696 25.1624,34.2586 C25.1624,34.2586 25.1164,34.4706 25.4824,34.7626 C25.4824,34.7626 25.7474,35.0576 25.8244,35.2846 C25.8244,35.2846 25.8464,35.6036 26.2834,35.6036 C26.3164,35.6036 26.3424,35.5996 26.3664,35.5946 C26.3944,35.5996 26.4214,35.6036 26.4514,35.6036 C26.8894,35.6036 26.9094,35.2846 26.9094,35.2846 C26.9884,35.0576 27.2524,34.7626 27.2524,34.7626 C27.6164,34.4706 27.5714,34.2586 27.5714,34.2586 C27.5644,33.9696 27.1514,33.7996 27.1514,33.7996 C27.0214,33.4836 26.9744,33.0706 26.9604,32.7336 C28.1224,32.7086 29.2444,32.6296 30.3374,32.5106 C30.4494,33.0966 30.6094,33.6456 30.8684,34.0506 C30.9144,34.1246 30.1464,33.6426 30.1464,33.6426 C29.4174,33.2016 28.9154,33.3436 28.9004,33.3496 C28.5334,33.4146 28.2574,33.7326 28.2574,34.1176 C28.2574,34.5476 28.6074,34.9006 29.0364,34.9006 C29.4624,34.9006 29.8064,34.5576 29.8164,34.1396 C30.0934,34.2706 30.3464,34.4296 30.3464,34.4296 C31.3384,35.1696 33.8494,35.4846 34.9724,34.3976 C35.1764,34.1996 35.1674,34.3156 35.1674,34.3156 C35.7144,35.1066 36.7774,34.6226 36.7774,34.6226 C38.1244,34.0306 37.7374,32.6016 37.0574,32.4946 C36.5894,32.4196 36.3394,32.6886 36.3394,32.6886 C36.0624,32.9246 36.0674,33.2506 36.0834,33.3786 C36.0924,33.5426 36.2284,33.6746 36.3964,33.6746 C36.5714,33.6746 36.7114,33.5356 36.7114,33.3596 C36.7114,33.1906 36.5764,33.0546 36.4104,33.0446 C36.5514,32.7046 36.8774,32.9766 36.8774,32.9766 C37.3654,33.5086 36.7904,33.9496 36.7904,33.9496 C36.0164,34.4156 35.5564,33.5666 35.5564,33.5666 C36.2064,32.5966 36.3284,31.7626 36.3004,31.1776 C36.7074,31.0316 37.1244,30.9056 37.5174,30.7356 C38.5224,31.2936 39.4204,32.1986 39.4204,32.1986 C41.0484,33.4566 43.9844,34.2316 45.7864,32.3536 C45.9314,32.2026 46.0304,32.2596 46.0614,32.3016 C46.0614,32.3016 46.0654,32.3016 46.0654,32.3066 C46.1524,32.4106 46.2824,32.4786 46.4274,32.4786 C46.5854,32.4786 46.7224,32.3976 46.8094,32.2776 C46.8644,32.1796 46.8864,32.0926 46.8954,32.0166 L46.8954,32.0136 L46.8954,32.0036 C46.9024,31.8156 46.7994,31.6996 46.7994,31.6996" id="Fill-42" fill="#FFFFFF" mask="url(#mask-2)"></path>
                <path d="M65.0348,19.1354 L64.8838,13.0084 L64.8418,13.0084 C64.7118,13.7824 64.5828,14.3414 64.4858,14.7614 L63.4538,19.1354 L61.3798,19.1354 L60.3898,14.7614 C60.2938,14.3414 60.1648,13.7824 60.0248,13.0084 L59.9818,13.0084 L59.8858,19.1354 L58.5958,19.1354 L58.8748,11.8794 L61.2938,11.8794 C61.2938,11.8794 62.0898,15.5344 62.5088,17.8784 L62.5408,17.8784 C63.0238,15.5454 63.9708,11.8794 63.9708,11.8794 L66.3458,11.8794 L66.6258,19.1354 L65.0348,19.1354 Z" id="Fill-43" fill="#FFFFFF" mask="url(#mask-2)"></path>
                <path d="M68.226,12.997 L69.645,12.997 L69.645,11.718 L68.226,11.718 L68.226,12.997 Z M68.269,19.135 L68.269,14.879 L67.657,14.75 L67.657,13.869 L69.667,13.869 L69.667,19.135 L68.269,19.135 Z" id="Fill-44" fill="#FFFFFF" mask="url(#mask-2)"></path>
                <path d="M74.2135,19.1354 L74.2135,16.0074 C74.2135,15.2124 73.9125,14.8354 73.2685,14.8354 C72.9015,14.8354 72.5905,14.9964 72.3435,15.1584 L72.3435,19.1354 L70.9355,19.1354 L70.9355,13.8684 L71.9025,13.8684 L72.1175,14.4704 C72.4185,14.1154 72.9985,13.7614 73.7835,13.7614 C75.1165,13.7614 75.6435,14.5454 75.6435,15.8784 L75.6435,19.1354 L74.2135,19.1354 Z" id="Fill-45" fill="#FFFFFF" mask="url(#mask-2)"></path>
                <path d="M77.18,12.997 L78.599,12.997 L78.599,11.718 L77.18,11.718 L77.18,12.997 Z M77.223,19.135 L77.223,14.879 L76.61,14.75 L76.61,13.869 L78.621,13.869 L78.621,19.135 L77.223,19.135 Z" id="Fill-46" fill="#FFFFFF" mask="url(#mask-2)"></path>
                <path d="M81.1139,15.2555 C81.1139,16.0715 83.3929,15.8245 83.3929,17.5455 C83.3929,18.5015 82.6829,19.2425 81.3179,19.2425 C80.6839,19.2425 80.0929,19.0615 79.7379,18.8565 L80.0289,17.8785 C80.2759,18.0505 80.7919,18.2435 81.2749,18.2435 C81.7379,18.2435 82.0499,17.9855 82.0499,17.6625 C82.0499,16.7175 79.8019,17.0285 79.8019,15.2345 C79.8019,14.4595 80.3939,13.7615 81.8129,13.7615 C82.3609,13.7615 82.9299,13.8685 83.2969,14.0195 L83.1029,15.0405 C82.7479,14.8785 82.2969,14.7715 81.8349,14.7715 C81.3499,14.7715 81.1139,14.9545 81.1139,15.2555" id="Fill-47" fill="#FFFFFF" mask="url(#mask-2)"></path>
                <path d="M86.446,19.2428 C85.51,19.2428 84.898,18.8028 84.898,17.4798 L84.898,14.8688 L84.113,14.8688 L84.113,13.8688 L84.898,13.8688 L84.898,12.9548 L86.285,12.5038 L86.285,13.8688 L87.693,13.8688 L87.693,14.8688 L86.285,14.8688 L86.285,17.4478 C86.285,17.8128 86.467,18.0508 86.843,18.0508 C87.133,18.0508 87.434,17.9648 87.649,17.8568 L87.865,18.8888 C87.552,19.0708 87.005,19.2428 86.446,19.2428" id="Fill-48" fill="#FFFFFF" mask="url(#mask-2)"></path>
                <path d="M90.6911,14.7936 C89.9931,14.7936 89.7031,15.4276 89.7031,16.0506 L91.6271,16.0506 C91.6271,15.3736 91.4221,14.7936 90.6911,14.7936 Z M89.7031,16.8786 C89.7031,17.7176 90.1751,18.1796 91.0571,18.1796 C91.5941,18.1796 92.1431,17.9746 92.6051,17.7386 L92.8741,18.7276 C92.4331,18.9636 91.7121,19.2426 90.8841,19.2426 C89.2611,19.2426 88.2951,18.2326 88.2951,16.4916 C88.2951,14.8686 89.0791,13.7616 90.7671,13.7616 C92.3571,13.7616 92.9811,14.9426 92.9811,16.2656 L92.9811,16.8786 L89.7031,16.8786 Z" id="Fill-49" fill="#FFFFFF" mask="url(#mask-2)"></path>
                <path d="M97.0329,15.0407 C96.8609,14.9867 96.6139,14.9547 96.3779,14.9547 C96.0019,14.9547 95.6689,15.1157 95.4309,15.3097 L95.4309,19.1357 L94.0339,19.1357 L94.0339,13.8687 L95.0119,13.8687 L95.1629,14.5777 L95.1949,14.5777 C95.3559,14.2017 95.8289,13.7717 96.4529,13.7717 C96.7319,13.7717 96.9469,13.8147 97.0649,13.8477 L97.0329,15.0407 Z" id="Fill-50" fill="#FFFFFF" mask="url(#mask-2)"></path>
                <path d="M98.269,12.997 L99.688,12.997 L99.688,11.718 L98.269,11.718 L98.269,12.997 Z M98.312,19.135 L98.312,14.879 L97.699,14.75 L97.699,13.869 L99.71,13.869 L99.71,19.135 L98.312,19.135 Z" id="Fill-51" fill="#FFFFFF" mask="url(#mask-2)"></path>
                <path d="M104.278,16.4919 C104.278,15.2229 103.901,14.7819 103.246,14.7819 C102.591,14.7819 102.225,15.2339 102.225,16.4919 C102.225,17.7179 102.558,18.2119 103.246,18.2119 C103.934,18.2119 104.278,17.7489 104.278,16.4919 M105.718,16.4919 C105.718,18.2869 104.815,19.2429 103.246,19.2429 C101.666,19.2429 100.773,18.2979 100.773,16.4919 C100.773,14.9429 101.633,13.7619 103.246,13.7619 C104.837,13.7619 105.718,14.9429 105.718,16.4919" id="Fill-52" fill="#FFFFFF" mask="url(#mask-2)"></path>
                <path d="M112.4147,15.0729 C112.1997,14.9429 111.8657,14.8149 111.4577,14.8149 C110.7917,14.8149 110.3717,15.2659 110.3717,16.4919 C110.3717,17.7489 110.7697,18.2219 111.4357,18.2219 C111.7917,18.2219 112.1457,18.0509 112.4147,17.7709 L112.4147,15.0729 Z M112.5437,14.2769 C112.4577,13.9759 112.4147,13.7079 112.4147,13.3089 L112.4147,11.7189 L113.8117,11.7189 L113.8117,19.1349 L112.6727,19.1349 L112.5117,18.5549 C112.2967,18.8779 111.7917,19.2429 111.1137,19.2429 C109.9207,19.2429 108.9647,18.3839 108.9647,16.5029 C108.9647,14.7609 109.9527,13.7609 111.2317,13.7609 C111.8027,13.7609 112.2537,13.9549 112.5437,14.2769 Z" id="Fill-53" fill="#FFFFFF" mask="url(#mask-2)"></path>
                <path d="M117.2731,14.7936 C116.5741,14.7936 116.2841,15.4276 116.2841,16.0506 L118.2091,16.0506 C118.2091,15.3736 118.0041,14.7936 117.2731,14.7936 Z M116.2841,16.8786 C116.2841,17.7176 116.7571,18.1796 117.6381,18.1796 C118.1761,18.1796 118.7241,17.9746 119.1861,17.7386 L119.4561,18.7276 C119.0141,18.9636 118.2941,19.2426 117.4661,19.2426 C115.8431,19.2426 114.8761,18.2326 114.8761,16.4916 C114.8761,14.8686 115.6611,13.7616 117.3481,13.7616 C118.9391,13.7616 119.5631,14.9426 119.5631,16.2656 L119.5631,16.8786 L116.2841,16.8786 Z" id="Fill-54" fill="#FFFFFF" mask="url(#mask-2)"></path>
                <polygon id="Fill-55" fill="#FFFFFF" mask="url(#mask-2)" points="58.735 29.4714 58.735 22.2154 63.196 22.2154 63.196 23.4094 60.143 23.4094 60.143 25.1934 62.476 25.1934 62.369 26.4404 60.143 26.4404 60.143 28.2994 63.196 28.2994 63.196 29.4714"></polygon>
                <path d="M67.5387,29.4714 L67.5387,26.3434 C67.5387,25.5474 67.2377,25.1714 66.5927,25.1714 C66.2267,25.1714 65.9157,25.3324 65.6687,25.4934 L65.6687,29.4714 L64.2607,29.4714 L64.2607,24.2044 L65.2267,24.2044 L65.4427,24.8064 C65.7437,24.4514 66.3237,24.0974 67.1087,24.0974 C68.4417,24.0974 68.9687,24.8814 68.9687,26.2144 L68.9687,29.4714 L67.5387,29.4714 Z" id="Fill-56" fill="#FFFFFF" mask="url(#mask-2)"></path>
                <path d="M72.3112,25.1286 C71.6122,25.1286 71.3222,25.7626 71.3222,26.3866 L73.2472,26.3866 C73.2472,25.7086 73.0412,25.1286 72.3112,25.1286 Z M71.3222,27.2146 C71.3222,28.0526 71.7952,28.5146 72.6762,28.5146 C73.2142,28.5146 73.7622,28.3106 74.2242,28.0736 L74.4932,29.0636 C74.0522,29.2996 73.3322,29.5786 72.5042,29.5786 C70.8812,29.5786 69.9142,28.5686 69.9142,26.8266 C69.9142,25.2036 70.6992,24.0976 72.3862,24.0976 C73.9772,24.0976 74.6002,25.2786 74.6002,26.6016 L74.6002,27.2146 L71.3222,27.2146 Z" id="Fill-57" fill="#FFFFFF" mask="url(#mask-2)"></path>
                <path d="M78.653,25.3757 C78.481,25.3217 78.234,25.2897 77.998,25.2897 C77.621,25.2897 77.288,25.4507 77.051,25.6457 L77.051,29.4717 L75.654,29.4717 L75.654,24.2047 L76.632,24.2047 L76.783,24.9137 L76.815,24.9137 C76.976,24.5377 77.449,24.1067 78.073,24.1067 C78.352,24.1067 78.567,24.1507 78.685,24.1827 L78.653,25.3757 Z" id="Fill-58" fill="#FFFFFF" mask="url(#mask-2)"></path>
                <path d="M82.3825,25.8805 C82.3825,25.2575 81.8565,25.0965 81.4475,25.0965 C81.0385,25.0965 80.5015,25.2575 80.5015,25.8805 C80.5015,26.5475 81.0065,26.7085 81.4475,26.7085 C81.8775,26.7085 82.3825,26.5475 82.3825,25.8805 M81.2435,29.1705 C80.7485,29.2135 80.4375,29.4925 80.4375,29.9445 C80.4375,30.4065 80.8565,30.7395 81.4265,30.7395 C82.0605,30.7395 82.4795,30.4175 82.4795,29.8685 C82.4795,29.4065 82.0705,29.2345 81.2435,29.1705 M84.1135,24.2045 L84.0915,25.2465 C83.8445,25.2355 83.4575,25.1825 83.1035,25.0645 C83.3395,25.2785 83.5865,25.5475 83.6295,25.8925 C83.6295,27.1825 82.3505,27.6975 81.4585,27.6975 C81.2535,27.6975 81.0065,27.6545 80.7805,27.6015 C80.6195,27.6545 80.5235,27.7515 80.5235,27.8915 C80.5235,28.4605 83.8655,27.7945 83.8655,29.7725 C83.8655,31.0085 82.6835,31.6865 81.3615,31.6865 C80.2545,31.6865 79.1365,31.2015 79.1365,30.2345 C79.1365,29.5575 79.6735,29.2025 80.5335,29.0735 C79.8785,28.9985 79.2225,28.7945 79.2225,28.1815 C79.2225,27.7405 79.6305,27.4185 80.2225,27.3755 C79.6945,27.0845 79.2765,26.6445 79.2765,25.8925 C79.2765,24.4945 80.5985,24.0975 81.4475,24.0975 C82.0175,24.0975 83.1995,24.1935 84.1135,24.2045" id="Fill-59" fill="#FFFFFF" mask="url(#mask-2)"></path>
                <path d="M85.4567,29.4714 L85.4567,25.2144 L84.8447,25.0854 L84.8447,24.2044 L86.8537,24.2044 L86.8537,29.4714 L85.4567,29.4714 Z M84.6937,23.3874 L84.5547,22.5804 L87.2727,21.8184 L87.4567,22.8504 L84.6937,23.3874 Z" id="Fill-60" fill="#FFFFFF" mask="url(#mask-2)"></path>
                <path d="M91.0036,27.1706 L90.1326,27.1706 C89.5526,27.1706 89.2826,27.4496 89.2826,27.8486 C89.2826,28.3316 89.5416,28.6226 90.0676,28.6226 C90.4006,28.6226 90.7446,28.4716 91.0036,28.2676 L91.0036,27.1706 Z M91.4006,29.4716 L91.2076,28.8486 C90.9396,29.2136 90.4116,29.5786 89.6706,29.5786 C88.6166,29.5786 87.9066,28.9016 87.9066,27.8916 C87.9066,26.9126 88.6276,26.3326 89.8966,26.3326 L91.0036,26.3326 L91.0036,26.0646 C91.0036,25.3866 90.6156,25.1716 90.0786,25.1716 C89.4556,25.1716 88.9286,25.3326 88.4986,25.5266 L88.1446,24.5256 C88.6706,24.3006 89.3916,24.0976 90.2186,24.0976 C91.7126,24.0976 92.3576,24.7846 92.3576,26.1286 L92.3576,29.4716 L91.4006,29.4716 Z" id="Fill-61" fill="#FFFFFF" mask="url(#mask-2)"></path>
            </g>
        </g>
    </g>
</svg>