<?xml version="1.0" encoding="UTF-8"?>
<svg width="36px" height="36px" viewBox="0 0 36 36" version="1.1" xmlns="http://www.w3.org/2000/svg" xmlns:xlink="http://www.w3.org/1999/xlink">
    <!-- Generator: Sketch 52.5 (67469) - http://www.bohemiancoding.com/sketch -->
    <title>Shape</title>
    <desc>Created with Sketch.</desc>
    <g id="Symbols" stroke="none" stroke-width="1" fill="none" fill-rule="evenodd">
        <g id="Header" transform="translate(-232.000000, -37.000000)" fill="#FFFFFF" fill-rule="nonzero">
            <g id="Group-27-Copy-2" transform="translate(232.000000, 37.000000)">
                <path d="M35.1829435,31.2105097 L25.8729976,21.8229892 C28.7045901,17.5050541 28.9547269,11.9676617 26.524154,7.40804461 C24.093581,2.84842753 19.3753047,0.00384369296 14.2415333,0.00302155612 C9.18889858,-0.10236108 4.47469672,2.55536154 1.91772716,6.95080596 C-0.639242388,11.3462504 -0.639242388,16.7922661 1.91772716,21.1877106 C4.47469672,25.583155 9.18889858,28.2408776 14.2415333,28.135495 C16.9769817,28.1390258 19.6520116,27.3243851 21.9282065,25.7946325 L24.5003774,28.3882359 L31.2381523,35.1761354 C31.9428214,35.8866761 32.9698989,36.1641738 33.9324948,35.9040979 C34.8950906,35.6440219 35.6469636,34.885884 35.9048904,33.9152674 C36.1628171,32.9446507 35.8876125,31.9090151 35.1829435,31.1984744 L35.1829435,31.2105097 Z M23.0859818,24.9581803 C23.8084645,24.3620912 24.470198,23.6948437 25.0613613,22.966341 L27.0367409,24.964198 C26.4366304,25.6806281 25.7778391,26.3449087 25.0673292,26.9500196 L23.0859818,24.9581803 Z M1.70891387,14.0722671 C1.70891387,7.08138673 7.32931044,1.41415846 14.262421,1.41415846 C21.1955315,1.41415846 26.815928,7.08138673 26.815928,14.0722671 C26.8119329,18.1244154 24.881043,21.9288571 21.6238429,24.3022574 C17.8100325,27.1054323 12.7578358,27.5105414 8.55259133,25.3503725 C4.34734685,23.1902036 1.70218281,18.8310796 1.70891387,14.0722671 Z M34.1982377,34.2193304 C33.6514704,34.7662337 32.7696254,34.7662337 32.2228581,34.2193304 L26.0341313,27.9730187 C26.7389086,27.3616486 27.397225,26.6978468 28.0035429,25.987197 L34.1982377,32.2335088 C34.7399279,32.7827736 34.7399279,33.6700656 34.1982377,34.2193304 Z" id="Shape"></path>
            </g>
        </g>
    </g>
</svg>