<?xml version="1.0" encoding="UTF-8"?>
<svg width="47px" height="47px" viewBox="0 0 47 47" version="1.1" xmlns="http://www.w3.org/2000/svg" xmlns:xlink="http://www.w3.org/1999/xlink">
    <!-- Generator: Sketch 52.5 (67469) - http://www.bohemiancoding.com/sketch -->
    <title>Group 7</title>
    <desc>Created with Sketch.</desc>
    <g id="Symbols" stroke="none" stroke-width="1" fill="none" fill-rule="evenodd">
        <g id="Descarga-Noticias" transform="translate(-137.000000, -75.000000)">
            <g id="Group-2" transform="translate(137.000000, 75.000000)">
                <g id="Group-7">
                    <circle id="Oval" fill="#0F69B4" cx="23.5" cy="23.5" r="23.5"></circle>
                    <path d="M10,18.7084522 L10,30.6260149 C10,32.4450693 11.4795173,33.922362 13.3013109,33.922362 L33.7495644,33.922362 C35.571358,33.922362 37.0508753,32.4450693 37.0508753,30.6260149 L37.0508753,18.7084522 C37.0508753,16.9775944 35.6431257,15.5719614 33.9096614,15.5719614 L29.5152743,15.5719614 L29.4103832,15.1144417 C28.985298,13.2788504 27.3677661,12 25.4797254,12 L21.5656293,12 C19.6831092,12 18.0655773,13.2788504 17.6349715,15.1144417 L17.5300804,15.5719614 L13.1412139,15.5719614 C11.4077496,15.5719614 10,16.9831067 10,18.7084522 Z M18.0710979,16.9224715 C18.3857713,16.9224715 18.6562801,16.7074924 18.7280477,16.3988043 L18.9543918,15.4176174 C19.2414623,14.1994022 20.3124561,13.3505101 21.5656293,13.3505101 L25.4797254,13.3505101 C26.7328986,13.3505101 27.8038924,14.1994022 28.0909629,15.4176174 L28.317307,16.3988043 C28.3890746,16.7019801 28.6595834,16.9224715 28.9742568,16.9224715 L33.9041408,16.9224715 C34.8923259,16.9224715 35.6928109,17.721753 35.6928109,18.7084522 L35.6928109,30.6260149 C35.6928109,31.7009107 34.8205582,32.5718519 33.7440438,32.5718519 L13.3013109,32.5718519 C12.2247965,32.5718519 11.3525438,31.7009107 11.3525438,30.6260149 L11.3525438,18.7084522 C11.3525438,17.721753 12.1530288,16.9224715 13.1412139,16.9224715 L18.0710979,16.9224715 Z M14.5765665,20.7094121 C15.0765919,20.7094121 15.4819427,20.3046708 15.4819427,19.8053972 C15.4819427,19.3061235 15.0765919,18.9013823 14.5765665,18.9013823 C14.076541,18.9013823 13.6711902,19.3061235 13.6711902,19.8053972 C13.6711902,20.3046708 14.076541,20.7094121 14.5765665,20.7094121 Z M23.5254376,30.455134 C26.6556104,30.455134 29.2061215,27.9084578 29.2061215,24.7829916 C29.2061215,21.6575253 26.6556104,19.1108491 23.5254376,19.1108491 C20.3952649,19.1108491 17.8447538,21.652013 17.8447538,24.7829916 C17.8447538,27.9139701 20.3952649,30.455134 23.5254376,30.455134 Z M23.5254376,20.4613592 C25.9103311,20.4613592 27.8535777,22.401684 27.8535777,24.7829916 C27.8535777,27.1642992 25.9103311,29.1046239 23.5254376,29.1046239 C21.1405442,29.1046239 19.1972976,27.1642992 19.1972976,24.7829916 C19.1972976,22.401684 21.1405442,20.4613592 23.5254376,20.4613592 Z" id="photo-camera" fill="#FFFFFF" fill-rule="nonzero"></path>
                </g>
            </g>
        </g>
    </g>
</svg>