<?xml version="1.0" encoding="UTF-8"?>
<svg width="47px" height="47px" viewBox="0 0 47 47" version="1.1" xmlns="http://www.w3.org/2000/svg" xmlns:xlink="http://www.w3.org/1999/xlink">
    <!-- Generator: Sketch 52.5 (67469) - http://www.bohemiancoding.com/sketch -->
    <title>Group 11</title>
    <desc>Created with Sketch.</desc>
    <g id="Symbols" stroke="none" stroke-width="1" fill="none" fill-rule="evenodd">
        <g id="Descarga-Noticias" transform="translate(-275.000000, -75.000000)">
            <g id="Group-2" transform="translate(137.000000, 75.000000)">
                <g id="Group" transform="translate(69.000000, 0.000000)">
                    <g id="Group-11" transform="translate(69.000000, 0.000000)">
                        <circle id="Oval" fill="#0F69B4" cx="23.5" cy="23.5" r="23.5"></circle>
                        <path d="M23.6921121,27.0583579 C26.8358204,27.0583579 29.3982393,24.5085868 29.3982393,21.3803956 L29.3982393,13.6779623 C29.3982393,10.549771 26.8358204,8 23.6921121,8 C20.5484038,8 17.9859849,10.549771 17.9859849,13.6779623 L17.9859849,21.3803956 C17.9859849,24.5144891 20.5484038,27.0583579 23.6921121,27.0583579 Z M19.4392086,13.6779623 C19.4392086,11.3465745 21.3491597,9.44605069 23.6921121,9.44605069 C26.0350645,9.44605069 27.9450156,11.3465745 27.9450156,13.6779623 L27.9450156,21.3803956 C27.9450156,23.7117834 26.0350645,25.6123072 23.6921121,25.6123072 C21.3491597,25.6123072 19.4392086,23.7117834 19.4392086,21.3803956 L19.4392086,13.6779623 Z M14.7295776,20.6603213 C15.1329213,20.6603213 15.4532237,20.984945 15.4413606,21.3862978 C15.4413606,25.9074195 19.1367008,29.5845199 23.6802491,29.5845199 C28.2237973,29.5845199 31.9191375,25.9074195 31.9191375,21.3862978 C31.9191375,20.984945 32.2453714,20.6603213 32.6487151,20.6603213 C33.0520588,20.6603213 33.3782927,20.984945 33.3782927,21.3862978 C33.3782927,26.4563286 29.4219654,30.6233155 24.4157582,30.9951571 L24.4157582,35.5221811 L28.2060027,35.5221811 C28.6093465,35.5221811 28.9355803,35.8468047 28.9355803,36.2481575 C28.9355803,36.6495104 28.6093465,36.974134 28.2060027,36.974134 L19.1722899,36.974134 C18.7689462,36.974134 18.4427123,36.6495104 18.4427123,36.2481575 C18.4427123,35.8468047 18.7689462,35.5221811 19.1722899,35.5221811 L22.9625345,35.5221811 L22.9625345,30.9951571 C17.9563273,30.6292177 14,26.4563286 14,21.3862978 C14,20.984945 14.3262339,20.6603213 14.7295776,20.6603213 Z" id="microphone" fill="#F9F5F5" fill-rule="nonzero"></path>
                    </g>
                </g>
            </g>
        </g>
    </g>
</svg>