<?xml version="1.0" encoding="UTF-8"?>
<svg width="47px" height="47px" viewBox="0 0 47 47" version="1.1" xmlns="http://www.w3.org/2000/svg" xmlns:xlink="http://www.w3.org/1999/xlink">
    <!-- Generator: Sketch 52.5 (67469) - http://www.bohemiancoding.com/sketch -->
    <title>Group 9</title>
    <desc>Created with Sketch.</desc>
    <g id="Symbols" stroke="none" stroke-width="1" fill="none" fill-rule="evenodd">
        <g id="Descarga-Noticias" transform="translate(-206.000000, -75.000000)">
            <g id="Group-2" transform="translate(137.000000, 75.000000)">
                <g id="Group" transform="translate(69.000000, 0.000000)">
                    <g id="Group-9">
                        <circle id="Oval" fill="#0F69B4" cx="23.5" cy="23.5" r="23.5"></circle>
                        <g id="Outlined/UI/video" transform="translate(8.949125, 9.000000)" fill="#FBFCFD">
                            <path d="M27.1875,5.61874997 L27.1875,23.38125 L19.9375,18.85 L19.9375,19.9375 C19.9375,21.4390242 18.7202742,22.65625 17.21875,22.65625 L4.53124997,22.65625 C3.0297258,22.65625 1.81249996,21.4390242 1.81249996,19.9375 L1.81249996,9.06249998 C1.81249996,7.56097581 3.0297258,6.34374997 4.53124997,6.34374997 L17.21875,6.34374997 C18.7202742,6.34374997 19.9375,7.56097581 19.9375,9.06249998 L19.9375,10.15 L27.1875,5.61874997 Z M18.125,19.9375 L18.125,9.06249998 C18.125,8.56199193 17.7192581,8.15624998 17.21875,8.15624998 L4.53124997,8.15624998 C4.03074191,8.15624998 3.62499997,8.56199193 3.62499997,9.06249998 L3.62499997,19.9375 C3.62499997,20.4380081 4.03074191,20.84375 4.53124997,20.84375 L17.21875,20.84375 C17.7192581,20.84375 18.125,20.4380081 18.125,19.9375 Z M25.375,20.11875 L25.375,8.88124998 L19.9375,12.2796875 L19.9375,16.7203125 L25.375,20.11875 Z M6.34374997,10.875 L9.96874999,10.875 L9.96874999,12.6875 L6.34374997,12.6875 L6.34374997,10.875 Z" id="Style"></path>
                        </g>
                    </g>
                </g>
            </g>
        </g>
    </g>
</svg>