<?xml version="1.0" encoding="UTF-8"?>
<svg width="141px" height="127px" viewBox="0 0 141 127" version="1.1" xmlns="http://www.w3.org/2000/svg" xmlns:xlink="http://www.w3.org/1999/xlink">
    <!-- Generator: Sketch 52.5 (67469) - http://www.bohemiancoding.com/sketch -->
    <title>Formato documento/ PDF</title>
    <desc>Created with Sketch.</desc>
    <g id="Formato-documento/-PDF" stroke="none" stroke-width="1" fill="none" fill-rule="evenodd">
        <rect id="Rectangle" fill="#F9F7F7" fill-rule="nonzero" x="0" y="0" width="141" height="127"></rect>
        <g id="pdf" transform="translate(29.000000, 16.000000)">
            <path d="M17.7857143,0 C14.525,0 11.8571429,2.66785714 11.8571429,5.92857143 L11.8571429,88.9285714 C11.8571429,92.1892857 14.525,94.8571429 17.7857143,94.8571429 L77.0714286,94.8571429 C80.3321429,94.8571429 83,92.1892857 83,88.9285714 L83,23.7142857 L59.2857143,0 L17.7857143,0 Z" id="Path" fill="#E2E5E7"></path>
            <path d="M65.2142857,23.7142857 L83,23.7142857 L59.2857143,0 L59.2857143,17.7857143 C59.2857143,21.0464286 61.9535714,23.7142857 65.2142857,23.7142857 Z" id="Path" fill="#B0B7BD"></path>
            <polygon id="Path" fill="#CAD1D8" points="83 41.5 65.2142857 23.7142857 83 23.7142857"></polygon>
            <path d="M71.1428571,77.0714286 C71.1428571,78.7017857 69.8089286,80.0357143 68.1785714,80.0357143 L2.96428571,80.0357143 C1.33392857,80.0357143 0,78.7017857 0,77.0714286 L0,47.4285714 C0,45.7982143 1.33392857,44.4642857 2.96428571,44.4642857 L68.1785714,44.4642857 C69.8089286,44.4642857 71.1428571,45.7982143 71.1428571,47.4285714 L71.1428571,77.0714286 Z" id="Path" fill="#F15642"></path>
            <g id="Group" transform="translate(12.783482, 54.468750)" fill="#FFFFFF">
                <path d="M0.137839286,1.69557143 C0.137839286,0.913 0.754410714,0.0592857143 1.74744643,0.0592857143 L7.22248214,0.0592857143 C10.3053393,0.0592857143 13.0799107,2.12242857 13.0799107,6.07678571 C13.0799107,9.82364286 10.3053393,11.9105 7.22248214,11.9105 L3.26516071,11.9105 L3.26516071,15.0407857 C3.26516071,16.0842143 2.60116071,16.6741071 1.74744643,16.6741071 C0.964875,16.6741071 0.137839286,16.0842143 0.137839286,15.0407857 L0.137839286,1.69557143 Z M3.26516071,3.04432143 L3.26516071,8.94917857 L7.22248214,8.94917857 C8.81133929,8.94917857 10.0681964,7.54707143 10.0681964,6.07678571 C10.0681964,4.41975 8.81133929,3.04432143 7.22248214,3.04432143 L3.26516071,3.04432143 Z" id="Shape" fill-rule="nonzero"></path>
                <path d="M17.7219821,16.6741071 C16.9394107,16.6741071 16.0856964,16.24725 16.0856964,15.2067857 L16.0856964,1.743 C16.0856964,0.89225 16.9394107,0.272714286 17.7219821,0.272714286 L23.1495893,0.272714286 C33.9810893,0.272714286 33.7439464,16.6741071 23.3630179,16.6741071 L17.7219821,16.6741071 Z M19.2159821,3.16585714 L19.2159821,13.7839286 L23.1495893,13.7839286 C29.5494821,13.7839286 29.8340536,3.16585714 23.1495893,3.16585714 L19.2159821,3.16585714 Z" id="Shape" fill-rule="nonzero"></path>
                <path d="M37.5856607,3.35557143 L37.5856607,7.12317857 L43.6298393,7.12317857 C44.4835536,7.12317857 45.3372679,7.97689286 45.3372679,8.80392857 C45.3372679,9.5865 44.4835536,10.2267857 43.6298393,10.2267857 L37.5856607,10.2267857 L37.5856607,15.2038214 C37.5856607,16.0338214 36.9957679,16.6711429 36.1657679,16.6711429 C35.1223393,16.6711429 34.4850179,16.0338214 34.4850179,15.2038214 L34.4850179,1.74003571 C34.4850179,0.889285714 35.1253036,0.26975 36.1657679,0.26975 L44.4865179,0.26975 C45.5299464,0.26975 46.1465179,0.889285714 46.1465179,1.74003571 C46.1465179,2.49889286 45.5299464,3.35260714 44.4865179,3.35260714 L37.5856607,3.35260714 L37.5856607,3.35557143 Z" id="Path"></path>
            </g>
            <path d="M68.1785714,80.0357143 L11.8571429,80.0357143 L11.8571429,83 L68.1785714,83 C69.8089286,83 71.1428571,81.6660714 71.1428571,80.0357143 L71.1428571,77.0714286 C71.1428571,78.7017857 69.8089286,80.0357143 68.1785714,80.0357143 Z" id="Path" fill="#CAD1D8"></path>
        </g>
    </g>
</svg>