<?xml version="1.0" encoding="UTF-8"?>
<svg width="100px" height="89px" viewBox="0 0 100 89" version="1.1" xmlns="http://www.w3.org/2000/svg" xmlns:xlink="http://www.w3.org/1999/xlink">
    <!-- Generator: Sketch 52.5 (67469) - http://www.bohemiancoding.com/sketch -->
    <title>Formato documento</title>
    <desc>Created with Sketch.</desc>
    <g id="Symbols" stroke="none" stroke-width="1" fill="none" fill-rule="evenodd">
        <g id="Resultado-documentos" transform="translate(-52.000000, -23.000000)">
            <g id="Formato-documento/-PPT" transform="translate(52.000000, 23.000000)">
                <rect id="Rectangle" fill="#F9F7F7" fill-rule="nonzero" x="0" y="0" width="100" height="89"></rect>
                <g id="ppt" stroke-width="1" fill-rule="evenodd" transform="translate(20.567376, 9.110236)">
                    <path d="M12.7068558,0 C10.3989362,0 8.5106383,1.87241634 8.5106383,4.1609252 L8.5106383,62.413878 C8.5106383,64.7023868 10.3989362,66.5748031 12.7068558,66.5748031 L54.6690307,66.5748031 C56.9769504,66.5748031 58.8652482,64.7023868 58.8652482,62.413878 L58.8652482,16.6437008 L42.0803783,0 L12.7068558,0 Z" id="Path" fill="#E2E5E7"></path>
                    <path d="M46.0992908,16.8188976 L58.8652482,16.8188976 L41.8439716,0 L41.8439716,12.6141732 C41.8439716,14.9267717 43.7588652,16.8188976 46.0992908,16.8188976 Z" id="Path" fill="#B0B7BD"></path>
                    <polygon id="Path" fill="#CAD1D8" points="58.8652482 29.4330709 46.0992908 16.8188976 58.8652482 16.8188976"></polygon>
                    <path d="M50.3546099,53.9606299 C50.3546099,55.1169291 49.410461,56.0629921 48.2565012,56.0629921 L2.09810875,56.0629921 C0.944148936,56.0629921 0,55.1169291 0,53.9606299 L0,32.9370079 C0,31.7807087 0.944148936,30.8346457 2.09810875,30.8346457 L48.2565012,30.8346457 C49.410461,30.8346457 50.3546099,31.7807087 50.3546099,32.9370079 L50.3546099,53.9606299 Z" id="Path" fill="#F1A542"></path>
                    <g id="Group" transform="translate(9.929078, 37.842520)" fill="#FFFFFF">
                        <path d="M0.0596442274,1.19814623 C0.0596442274,0.645155663 0.494942449,0.0418932249 1.19602372,0.0418932249 L5.06138821,0.0418932249 C7.23787932,0.0418932249 9.19672131,1.49977745 9.19672131,4.29405555 C9.19672131,6.94170736 7.23787932,8.41634888 5.06138821,8.41634888 L2.26752703,8.41634888 L2.26752703,10.6283112 C2.26752703,11.3656319 1.80083711,11.7824695 1.1981165,11.7824695 C0.645622602,11.7824695 0.0617370073,11.3656319 0.0617370073,10.6283112 L0.0617370073,1.19814623 L0.0596442274,1.19814623 Z M2.26752703,2.1512171 L2.26752703,6.3237823 L5.06138821,6.3237823 C6.18311824,6.3237823 7.07045692,5.33300753 7.07045692,4.29405555 C7.07045692,3.12313992 6.18311824,2.1512171 5.06138821,2.1512171 L2.26752703,2.1512171 Z" id="Shape" fill-rule="nonzero"></path>
                        <path d="M11.329264,1.19814623 C11.329264,0.645155663 11.7645623,0.0418932249 12.4677363,0.0418932249 L16.3331008,0.0418932249 C18.5095919,0.0418932249 20.4684339,1.49977745 20.4684339,4.29405555 C20.4684339,6.94170736 18.5095919,8.41634888 16.3331008,8.41634888 L13.5392396,8.41634888 L13.5392396,10.6283112 C13.5392396,11.3656319 13.0704569,11.7824695 12.4677363,11.7824695 C11.9152424,11.7824695 11.329264,11.3656319 11.329264,10.6283112 L11.329264,1.19814623 Z M13.5371468,2.1512171 L13.5371468,6.3237823 L16.331008,6.3237823 C17.4527381,6.3237823 18.3400767,5.33300753 18.3400767,4.29405555 C18.3400767,3.12313992 17.4527381,2.1512171 16.331008,2.1512171 L13.5371468,2.1512171 Z" id="Shape" fill-rule="nonzero"></path>
                        <path d="M25.725497,2.28737008 L22.7997907,2.28737008 C21.3432159,2.28737008 21.3432159,0.144531626 22.7997907,0.144531626 L30.7125916,0.144531626 C32.2026509,0.144531626 32.2026509,2.28737008 30.7125916,2.28737008 L27.9354726,2.28737008 L27.9354726,10.7456122 C27.9354726,12.2014017 25.725497,12.237011 25.725497,10.7456122 L25.725497,2.28737008 Z" id="Path"></path>
                    </g>
                    <path d="M48.2624113,56.0629921 L8.5106383,56.0629921 L8.5106383,58.1653543 L48.2624113,58.1653543 C49.4131206,58.1653543 50.3546099,57.2192913 50.3546099,56.0629921 L50.3546099,53.9606299 C50.3546099,55.1169291 49.4131206,56.0629921 48.2624113,56.0629921 Z" id="Path" fill="#CAD1D8"></path>
                </g>
            </g>
        </g>
    </g>
</svg>