<?xml version="1.0" encoding="UTF-8"?>
<svg width="32px" height="30px" viewBox="0 0 32 30" version="1.1" xmlns="http://www.w3.org/2000/svg" xmlns:xlink="http://www.w3.org/1999/xlink">
    <!-- Generator: Sketch 52.5 (67469) - http://www.bohemiancoding.com/sketch -->
    <title>Preguntas icon</title>
    <desc>Created with Sketch.</desc>
    <g id="Preguntas-icon" stroke="none" stroke-width="1" fill="none" fill-rule="evenodd">
        <g id="Leyes-Icon" stroke="#FFFFFF">
            <g id="Outlined-/-Documents" transform="translate(0.500000, 0.000000)">
                <g id="Stroke" transform="translate(0.968750, 0.000000)">
                    <path d="M14.53125,0 C22.55671,0 29.0625,6.71557575 29.0625,14.9998248 C29.0625,23.2840738 22.55671,30 14.53125,30 C6.50579001,30 0,23.2840738 0,14.9998248 C0,6.71557575 6.50579001,0 14.53125,0 Z" id="Stroke-Copy"></path>
                </g>
            </g>
        </g>
        <path d="M16.5017358,7 C11.8117215,7 8,10.3649399 8,14.5 C8,16.1339038 8.61098632,17.7331175 9.72534205,19.0305273 C9.49275066,19.5439408 9.15254237,19.949815 8.70818869,20.2377428 C8.47906882,20.3869103 8.3679804,20.6574931 8.42699612,20.9246068 C8.48601184,21.1882516 8.69777415,21.3825162 8.96508066,21.4172063 C9.23238718,21.4553654 9.50663672,21.4727105 9.77741474,21.4727105 C10.63835,21.4727105 11.422912,21.2888529 12.1137431,20.9246068 C13.4363896,21.6288159 14.9464979,22 16.4982642,22 C21.1882785,22 25,18.6350601 25,14.5 C25,10.3649399 21.1917501,7 16.5017358,7 Z M16.5,21 C15.0401543,21 13.6245463,20.6338028 12.4063067,19.942097 C12.3416515,19.9047992 12.2701906,19.8878456 12.1987296,19.8878456 C12.1238657,19.8878456 12.0490018,19.9081899 11.9843466,19.9454877 C11.3446007,20.3286385 10.5789474,20.5117371 9.73843013,20.4812207 C10.1774047,20.0878978 10.5108893,19.5894627 10.7354809,18.9893062 C10.7899274,18.8435055 10.7558984,18.6773605 10.6504083,18.5620762 C9.56828494,17.399061 9,15.9953052 9,14.5 C9,10.9160146 12.3654719,8 16.5,8 C20.6345281,8 24,10.9160146 24,14.5 C24,18.0839854 20.6345281,21 16.5,21 Z M18.2596945,12.1132738 L14.9459459,15.0654176 L13.7367803,13.9761239 C13.5675676,13.82457 13.2961222,13.82457 13.1269095,13.9761239 C12.9576968,14.1276778 12.9576968,14.3707955 13.1269095,14.5223494 L14.6427732,15.8863346 C14.7273796,15.9621115 14.8366627,16 14.9494712,16 C15.0587544,16 15.1680376,15.9621115 15.2526439,15.8863346 L18.8730905,12.6626567 C19.0423032,12.5111028 19.0423032,12.2679851 18.8730905,12.1164312 C18.7003525,11.9617199 18.4289072,11.9617199 18.2596945,12.1132738 Z" id="speech-bubble-10" fill="#FFFFFF" fill-rule="nonzero"></path>
    </g>
</svg>