<?xml version="1.0" encoding="UTF-8"?>
<svg width="32px" height="30px" viewBox="0 0 32 30" version="1.1" xmlns="http://www.w3.org/2000/svg" xmlns:xlink="http://www.w3.org/1999/xlink">
    <!-- Generator: Sketch 52.5 (67469) - http://www.bohemiancoding.com/sketch -->
    <title>Regiones icon</title>
    <desc>Created with Sketch.</desc>
    <g id="Regiones-icon" stroke="none" stroke-width="1" fill="none" fill-rule="evenodd">
        <g id="Leyes-Icon" stroke="#FFFFFF">
            <g id="Outlined-/-Documents" transform="translate(0.500000, 0.000000)">
                <g id="Stroke" transform="translate(0.968750, 0.000000)">
                    <path d="M14.53125,0 C22.55671,0 29.0625,6.71557575 29.0625,14.9998248 C29.0625,23.2840738 22.55671,30 14.53125,30 C6.50579001,30 0,23.2840738 0,14.9998248 C0,6.71557575 6.50579001,0 14.53125,0 Z" id="Stroke-Copy"></path>
                </g>
            </g>
        </g>
        <path d="M7.05899165,16.4696043 L22.8491598,16.4696043 L18.7165095,20.3083731 C18.3032444,20.69225 18.3032444,21.3080525 18.7165095,21.6919294 C18.923142,21.8838678 19.1900423,21.9798371 19.4655523,21.9798371 C19.7410624,21.9798371 20.0079627,21.8838678 20.2145952,21.6919294 L26.1466704,16.1816967 C26.5599354,15.7978198 26.5599354,15.1820173 26.1466704,14.7981404 L20.2145952,9.28790766 C19.8013302,8.90403078 19.1383842,8.90403078 18.7251191,9.28790766 C18.3118541,9.67178454 18.3118541,10.287587 18.7251191,10.6714639 L22.8577695,14.5102327 L7.05899165,14.5102327 C6.47353285,14.5102327 6,14.9500917 6,15.4939173 C6,16.0377428 6.47353285,16.4696043 7.05899165,16.4696043 Z" id="Shape" fill="#FFFFFF" fill-rule="nonzero"></path>
    </g>
</svg>