<?xml version="1.0" encoding="UTF-8"?>
<svg width="141px" height="127px" viewBox="0 0 141 127" version="1.1" xmlns="http://www.w3.org/2000/svg" xmlns:xlink="http://www.w3.org/1999/xlink">
    <!-- Generator: Sketch 52.5 (67469) - http://www.bohemiancoding.com/sketch -->
    <title>Formato documento/ XLS</title>
    <desc>Created with Sketch.</desc>
    <g id="Formato-documento/-XLS" stroke="none" stroke-width="1" fill="none" fill-rule="evenodd">
        <rect id="Rectangle" fill="#F9F7F7" fill-rule="nonzero" x="0" y="0" width="141" height="127"></rect>
        <g id="xls" transform="translate(29.000000, 19.142857)">
            <path d="M17.7857143,0 C14.525,0 11.8571429,2.66785714 11.8571429,5.92857143 L11.8571429,88.9285714 C11.8571429,92.1892857 14.525,94.8571429 17.7857143,94.8571429 L77.0714286,94.8571429 C80.3321429,94.8571429 83,92.1892857 83,88.9285714 L83,23.7142857 L59.2857143,0 L17.7857143,0 Z" id="Path" fill="#E2E5E7"></path>
            <path d="M65.2142857,23.7142857 L83,23.7142857 L59.2857143,0 L59.2857143,17.7857143 C59.2857143,21.0464286 61.9535714,23.7142857 65.2142857,23.7142857 Z" id="Path" fill="#B0B7BD"></path>
            <polygon id="Path" fill="#CAD1D8" points="83 41.5 65.2142857 23.7142857 83 23.7142857"></polygon>
            <path d="M71.1428571,77.0714286 C71.1428571,78.7017857 69.8089286,80.0357143 68.1785714,80.0357143 L2.96428571,80.0357143 C1.33392857,80.0357143 0,78.7017857 0,77.0714286 L0,47.4285714 C0,45.7982143 1.33392857,44.4642857 2.96428571,44.4642857 L68.1785714,44.4642857 C69.8089286,44.4642857 71.1428571,45.7982143 71.1428571,47.4285714 L71.1428571,77.0714286 Z" id="Path" fill="#84BD5A"></path>
            <g id="Group" transform="translate(13.524554, 53.912946)" fill="#FFFFFF">
                <path d="M7.28769643,6.51994643 L11.4110179,1.35319643 C12.6441607,-0.259375 15.0393036,1.80080357 13.6875893,3.34223214 C12.2676964,5.02594643 10.7736964,6.85194643 9.35083929,8.72241071 L14.1855893,14.742875 C15.489875,16.5214464 12.8842679,18.2259107 11.6036964,16.4710536 L7.24026786,10.8774464 L2.95094643,16.5925893 C1.74151786,18.3207679 -0.938196429,16.3791607 0.413517857,14.7665893 L5.177125,8.72241071 C3.683125,6.84898214 2.23655357,5.02594643 0.792946429,3.34223214 C-0.698089286,1.56366071 2.07351786,-0.259375 3.164375,1.40358929 L7.28769643,6.51994643 Z" id="Path"></path>
                <path d="M17.1113393,2.251375 C17.1113393,1.46880357 17.7753393,0.804803571 18.6053393,0.804803571 C19.3641964,0.804803571 20.0044821,1.47176786 20.0044821,2.251375 L20.0044821,14.1263036 L26.4518036,14.1263036 C28.7728393,14.1263036 28.8232321,17.2299107 26.4518036,17.2299107 L18.6083036,17.2299107 C17.7783036,17.2299107 17.1143036,16.6400179 17.1143036,15.7863036 L17.1143036,2.251375 L17.1113393,2.251375 Z" id="Path"></path>
                <path d="M30.9456607,4.38566071 C31.4910893,-0.214910714 38.4334464,-1.04194643 41.7060179,1.47176786 C43.3185893,2.77308929 41.6111607,4.83623214 40.1883036,3.79280357 C38.4334464,2.68119643 34.4524107,2.15948214 33.9544107,4.61983929 C33.314125,8.50898214 43.6239107,6.28280357 43.4579107,12.5878393 C43.2919107,18.6083036 34.5709821,18.747625 31.2984107,16.0471607 C30.512875,15.406875 30.5395536,14.3664107 30.9664107,13.7231607 C31.5829821,13.1095536 32.2677321,12.896125 33.0769821,13.560125 C35.0185893,14.8851607 40.0223036,15.8811607 40.3750536,12.5137321 C40.0697321,9.00994643 30.2105179,11.1175536 30.9456607,4.38566071 Z" id="Path"></path>
            </g>
            <path d="M68.1785714,80.0357143 L11.8571429,80.0357143 L11.8571429,83 L68.1785714,83 C69.8089286,83 71.1428571,81.6660714 71.1428571,80.0357143 L71.1428571,77.0714286 C71.1428571,78.7017857 69.8089286,80.0357143 68.1785714,80.0357143 Z" id="Path" fill="#CAD1D8"></path>
        </g>
    </g>
</svg>