<svg xmlns="http://www.w3.org/2000/svg" width="25" height="21" viewBox="0 0 25 21">
    <g fill="#F3F3F5" fill-rule="nonzero">
        <path d="M14.955 2.603a8.118 8.118 0 0 1 2.812-.505c.56 0 1.096.057 1.601.165.201.041.396-.103.366-.279l-.073-.494C19.6.665 18.486 0 17.152 0c-1.37 0-2.678.696-2.678 1.557l.06.824c.019.18.232.294.42.222z"/>
        <path d="M24.959 16.42l-.026-.147c0-.01-.005-.02-.005-.031l-.947-4.789c-.123-1.105-.932-2.068-2.11-2.664l-.451-3.48c0-1.477-1.68-2.684-3.693-2.684s-3.929 1.197-3.929 2.68c0 .07.006.147.016.219l.025.377a3.996 3.996 0 0 0-1.336-.225c-.487 0-.943.082-1.347.23l.025-.382c.01-.072.015-.143.015-.22 0-1.477-1.92-2.679-3.928-2.679-2.013 0-3.693 1.207-3.693 2.685l-.45 3.48c-1.179.59-1.988 1.558-2.11 2.663l-.948 4.789c0 .01-.006.02-.006.03l-.025.148c-.02.153-.036.306-.036.464C0 19.156 2.392 21 5.337 21s5.337-1.844 5.337-4.116v-1.885a4.374 4.374 0 0 0 1.829.382 4.43 4.43 0 0 0 1.823-.377v1.88c0 2.272 2.392 4.116 5.337 4.116C22.603 21 25 19.156 25 16.884a4.585 4.585 0 0 0-.041-.464zM5.337 19.518c-2.085 0-3.847-1.208-3.847-2.634 0-1.432 1.762-2.634 3.847-2.634s3.847 1.207 3.847 2.634c0 1.426-1.762 2.634-3.847 2.634zm7.166-5.441c-.876 0-1.588-.494-1.588-1.1 0-.607.712-1.1 1.588-1.1.875 0 1.587.493 1.587 1.1 0 .606-.712 1.1-1.587 1.1zm7.155 5.44c-2.085 0-3.847-1.207-3.847-2.633 0-1.432 1.762-2.634 3.847-2.634 2.084 0 3.846 1.207 3.846 2.634 0 1.426-1.762 2.634-3.846 2.634z"/>
        <path d="M5.637 2.262a7.673 7.673 0 0 1 1.601-.165c.968 0 1.955.18 2.813.506.19.072.402-.041.414-.217l.061-.826C10.526.697 9.217 0 7.847 0 6.514 0 5.405.666 5.338 1.493l-.073.495c-.024.17.165.32.372.274z"/>
    </g>
</svg>
