<svg xmlns="http://www.w3.org/2000/svg" width="39" height="30" viewBox="0 0 39 30">
    <g fill="#F3F3F3" fill-rule="nonzero">
        <path d="M35.257 9.204c-.494.339-1.98 1.346-4.462 3.021a1092.44 1092.44 0 0 0-5.702 3.87c-.145.1-.453.315-.924.647-.472.333-.864.601-1.176.806-.312.205-.689.435-1.131.69-.443.253-.86.445-1.252.571a3.53 3.53 0 0 1-1.088.191h-.044c-.334 0-.696-.063-1.088-.19a6.653 6.653 0 0 1-1.252-.573c-.442-.254-.82-.484-1.131-.689a45.083 45.083 0 0 1-1.175-.806c-.472-.332-.78-.548-.925-.647-1.335-.904-4.73-3.202-10.186-6.892a10.207 10.207 0 0 1-2.654-2.608C.355 5.577 0 4.51 0 3.393 0 2.46.345 1.661 1.034.997 1.724.332 2.539 0 3.482 0h32.036c1.117 0 1.977.368 2.579 1.103.602.735.903 1.654.903 2.756 0 .891-.4 1.856-1.197 2.895-.798 1.04-1.647 1.856-2.546 2.45z"/>
        <path d="M2.177 11.824c4.758 3.102 8.371 5.513 10.837 7.233a51.403 51.403 0 0 0 2.014 1.373c.515.328 1.2.664 2.056 1.006.856.343 1.654.513 2.394.513h.044c.74 0 1.538-.17 2.394-.513.856-.342 1.541-.678 2.056-1.006a51.591 51.591 0 0 0 2.013-1.373c1.96-1.384 5.565-3.795 10.817-7.233A11.42 11.42 0 0 0 39 10v16.645c0 .923-.34 1.713-1.023 2.37-.682.657-1.502.985-2.46.985H3.483c-.957 0-1.777-.328-2.46-.986C.342 28.357 0 27.568 0 26.645V10c.624.67 1.35 1.279 2.177 1.824z"/>
    </g>
</svg>
