<svg xmlns="http://www.w3.org/2000/svg" width="53" height="52" viewBox="0 0 53 52">
    <g fill="#F1C400" fill-rule="evenodd">
        <path d="M26.314 30.988c2.904 0 5.27-2.318 5.27-5.169a5.087 5.087 0 0 0-.996-3.013 5.293 5.293 0 0 0-4.27-2.156 5.298 5.298 0 0 0-4.273 2.155 5.08 5.08 0 0 0-.997 3.013c-.003 2.85 2.362 5.17 5.267 5.17zM37.819 19.496v-4.978l-.66.002-4.415.014.017 4.978z"/>
        <path fill-rule="nonzero" d="M26.316 0C11.806 0 0 11.582 0 25.819c0 14.236 11.805 25.82 26.316 25.82 14.509 0 26.315-11.584 26.315-25.82C52.631 11.582 40.827 0 26.316 0zm14.966 22.806V34.83c0 3.131-2.595 5.676-5.785 5.676H17.134c-3.19 0-5.785-2.545-5.785-5.676V16.812c0-3.13 2.594-5.676 5.785-5.676h18.362c3.19 0 5.786 2.545 5.786 5.676v5.994z"/>
        <path d="M34.502 25.819c0 4.427-3.672 8.032-8.186 8.032-4.515 0-8.186-3.605-8.186-8.032 0-1.065.216-2.083.602-3.013h-4.468V34.83c0 1.553 1.286 2.812 2.869 2.812h18.362c1.58 0 2.869-1.259 2.869-2.812V22.806h-4.47c.389.93.608 1.948.608 3.013z"/>
    </g>
</svg>
