<svg xmlns="http://www.w3.org/2000/svg" width="53" height="52" viewBox="0 0 53 52">
    <path fill="#F1C400" fill-rule="nonzero" d="M26.316 0C11.806 0 0 11.582 0 25.819c0 14.236 11.805 25.82 26.316 25.82 14.509 0 26.315-11.584 26.315-25.82C52.631 11.582 40.827 0 26.316 0zm11.74 19.91c.01.256.017.514.017.771 0 7.853-6.09 16.906-17.234 16.906-3.421 0-6.605-.981-9.285-2.668.474.055.956.083 1.445.083 2.838 0 5.45-.95 7.523-2.544-2.65-.047-4.888-1.766-5.659-4.127a6.219 6.219 0 0 0 2.735-.1c-2.77-.545-4.858-2.947-4.858-5.827l.001-.075a6.12 6.12 0 0 0 2.742.742c-1.623-1.064-2.693-2.884-2.693-4.945 0-1.09.298-2.111.82-2.989a17.31 17.31 0 0 0 12.483 6.211 5.829 5.829 0 0 1-.156-1.355c0-3.281 2.712-5.943 6.056-5.943 1.743 0 3.315.722 4.421 1.877a12.232 12.232 0 0 0 3.848-1.443 5.991 5.991 0 0 1-2.667 3.289 12.223 12.223 0 0 0 3.479-.935 12.059 12.059 0 0 1-3.019 3.072z"/>
</svg>
