<svg xmlns="http://www.w3.org/2000/svg" width="52" height="52" viewBox="0 0 52 52">
    <g fill="#F1C400" fill-rule="evenodd">
        <path d="M21.208 31.618L32.85 25.58c-3.905-2.037-7.761-4.048-11.642-6.074v12.11z"/>
        <path fill-rule="nonzero" d="M25.934 0C11.61 0 0 11.61 0 25.934c0 14.322 11.611 25.933 25.934 25.933 14.322 0 25.933-11.61 25.933-25.933S40.256 0 25.934 0zm17.67 34.59c-.45 1.947-2.042 3.384-3.96 3.598-4.54.507-9.135.51-13.711.507-4.577.003-9.173 0-13.715-.507-1.917-.214-3.509-1.65-3.956-3.598-.639-2.774-.639-5.801-.639-8.656 0-2.856.008-5.884.646-8.657.448-1.947 2.04-3.384 3.957-3.598 4.541-.508 9.138-.51 13.714-.508 4.576-.002 9.172 0 13.712.508 1.918.214 3.51 1.65 3.958 3.598.639 2.774.634 5.801.634 8.657 0 2.855-.002 5.883-.64 8.656z"/>
    </g>
</svg>
