<svg xmlns="http://www.w3.org/2000/svg" width="21" height="27" viewBox="0 0 21 27">
    <g fill="#FFF" fill-rule="nonzero">
        <path d="M21 27c0-5.56-1.567-8.558-4-10v10h4zM0 27h4V17c-2.362 1.465-4 4.507-4 10zM10.545 18.344C8.881 18.344 7.364 17.852 6 17v10h9v-9.943a8.283 8.283 0 0 1-4.455 1.287zM10.5 7.688c3.608 0 6.74.77 8.5 1.312v-.478-.74C18.964 3.477 15.9 0 12.033 0H9.125C5.26 0 2.038 3.477 2 7.782V9c1.76-.543 4.892-1.312 8.5-1.312zM2.867 11.39c.362-.121.728-.232 1.097-.336.56 3.38 3.273 5.946 6.538 5.946 3.273 0 5.992-2.578 6.542-5.97.367.103.731.215 1.092.336a.613.613 0 0 0 .203.032c.283-.002.543-.202.631-.512a.78.78 0 0 0-.075-.605.704.704 0 0 0-.379-.303 22.029 22.029 0 0 0-2.791-.757v.982c0 1.445-1.083 2.617-2.41 2.617-1.074 0-1.996-.761-2.288-1.825-.251-.913.022-1.97-.514-1.995-.537.026-.266 1.082-.516 1.995-.293 1.064-1.248 1.825-2.322 1.825-1.328 0-2.45-1.172-2.45-2.617v-.957c-.918.2-1.854.451-2.764.756a.653.653 0 0 0-.339.272.777.777 0 0 0-.092.635.678.678 0 0 0 .638.513h.002a.62.62 0 0 0 .197-.032z"/>
    </g>
</svg>
