<svg xmlns="http://www.w3.org/2000/svg" width="29" height="28" viewBox="0 0 29 28">
    <g fill="#000" fill-rule="nonzero">
        <path d="M13.976 25.236c-.758 0-1.5-.078-2.218-.225L10 26.358c1.256.417 2.592.642 3.976.642 1.402 0 2.754-.231 4.024-.659L16.249 25c-.736.155-1.495.236-2.273.236zM11.408 2.821L12 1c-4.524.764-8.276 3.852-10 8l1.815-.004c1.488-3.043 4.257-5.34 7.593-6.175zM3.587 15.243L2 14c.022 3.5 1.34 6.674 3.465 9L6 21.218a11.75 11.75 0 0 1-2.413-5.975zM25.39 16.12A9.952 9.952 0 0 1 23 21.394L23.543 23c2.111-2.076 3.422-4.895 3.457-8l-1.61 1.12zM25.172 8.996L27 9c-1.727-4.132-5.475-7.214-10-8l.598 1.83c3.328.85 6.086 3.14 7.574 6.166z"/>
        <path d="M23.461 28l-3.393-10.685L29 10.695l-11.059-.026L14.5 0l-3.441 10.67L0 10.694l8.931 6.62L5.538 28l8.962-6.578z"/>
    </g>
</svg>
