<svg xmlns="http://www.w3.org/2000/svg" width="38" height="39" viewBox="0 0 38 39">
    <g fill="#FFF" fill-rule="evenodd" opacity=".928">
        <path d="M28.595 25.895c-1.23-1.249-2.763-1.249-3.984 0-.931.95-1.863 1.901-2.779 2.868-.25.266-.461.322-.767.145-.602-.338-1.244-.612-1.823-.983-2.7-1.748-4.962-3.996-6.966-6.526-.994-1.256-1.878-2.602-2.497-4.117-.125-.306-.101-.507.141-.757.932-.926 1.84-1.877 2.755-2.828 1.276-1.321 1.276-2.868-.008-4.197-.728-.758-1.455-1.499-2.183-2.256-.752-.774-1.495-1.555-2.254-2.32C7 3.69 5.467 3.69 4.246 4.931c-.94.95-1.84 1.925-2.794 2.86-.885.862-1.33 1.917-1.425 3.15-.148 2.006.329 3.9 1.002 5.744 1.378 3.82 3.475 7.21 6.019 10.32 3.436 4.206 7.537 7.534 12.335 9.935 2.16 1.08 4.398 1.91 6.832 2.046 1.675.097 3.131-.338 4.297-1.684.799-.918 1.699-1.756 2.544-2.634 1.252-1.305 1.26-2.885.016-4.174-1.488-1.538-2.982-3.07-4.477-4.6zM26.953 20L30 19.468a14.023 14.023 0 0 0-3.807-7.51C24.07 9.789 21.386 8.422 18.429 8L18 11.13a10.429 10.429 0 0 1 6.012 3.064A10.82 10.82 0 0 1 26.952 20zM31.88 6.377C28.476 2.885 24.17.68 19.415 0L19 3.041c4.107.59 7.83 2.5 10.77 5.508A19.496 19.496 0 0 1 35.052 19L38 18.484a22.667 22.667 0 0 0-6.12-12.107z"/>
    </g>
</svg>
